<?xml version="1.0" encoding="utf-8"?>
<!-- Generator: Adobe Illustrator 24.0.1, SVG Export Plug-In . SVG Version: 6.00 Build 0)  -->
<svg version="1.1" id="Layer_1" xmlns="http://www.w3.org/2000/svg" xmlns:xlink="http://www.w3.org/1999/xlink" x="0px" y="0px"
	 viewBox="0 0 70 51.8" style="enable-background:new 0 0 70 51.8;" xml:space="preserve">
<style type="text/css">
	.st0{opacity:0.3;}
	.st1{fill:url(#SVGID_1_);}
	.st2{fill:url(#SVGID_2_);}
</style>
<g>
	<g>
		<g class="st0">
			<path d="M35,51.8L1.8,26.2c-2.1-1.6-2.4-4.5-0.8-6.6c1.6-2.1,4.5-2.4,6.6-0.8L35,39.9l27.4-21.2c2.1-1.6,5-1.2,6.6,0.8
				c1.6,2.1,1.2,5-0.8,6.6L35,51.8z"/>
		</g>
		<g>
			<linearGradient id="SVGID_1_" gradientUnits="userSpaceOnUse" x1="35.0001" y1="27.8795" x2="35.0001" y2="65.2768">
				<stop  offset="0" style="stop-color:#3ABEEE"/>
				<stop  offset="1" style="stop-color:#3061AD"/>
			</linearGradient>
			<path class="st1" d="M35,49.8L1.8,24.2c-2.1-1.6-2.4-4.5-0.8-6.6c1.6-2.1,4.5-2.4,6.6-0.8L35,38l27.4-21.2c2.1-1.6,5-1.2,6.6,0.8
				c1.6,2.1,1.2,5-0.8,6.6L35,49.8z"/>
		</g>
	</g>
	<g>
		<g class="st0">
			<path d="M68.2,10.4c2.1-1.6,2.4-4.5,0.8-6.6c-1.6-2.1-4.5-2.4-6.6-0.8L35,24.2L7.6,3C5.5,1.4,2.6,1.8,1,3.8
				c-1.6,2.1-1.2,5,0.8,6.6L35,36L68.2,10.4z"/>
		</g>
		<g>
			<linearGradient id="SVGID_2_" gradientUnits="userSpaceOnUse" x1="35.0001" y1="-0.5507" x2="35.0001" y2="36.847">
				<stop  offset="0" style="stop-color:#9BEDFD"/>
				<stop  offset="0.392" style="stop-color:#79C7E5"/>
				<stop  offset="0.7835" style="stop-color:#5CA7D1"/>
				<stop  offset="1" style="stop-color:#519BCA"/>
			</linearGradient>
			<path class="st2" d="M68.2,8.4c2.1-1.6,2.4-4.5,0.8-6.6c-1.6-2.1-4.5-2.4-6.6-0.8L35,22.2L7.6,1C5.5-0.6,2.6-0.2,1,1.8
				c-1.6,2.1-1.2,5,0.8,6.6L35,34.1L68.2,8.4z"/>
		</g>
	</g>
</g>
</svg>
