<?xml version="1.0" encoding="utf-8"?>
<!-- Generator: Adobe Illustrator 24.0.1, SVG Export Plug-In . SVG Version: 6.00 Build 0)  -->
<svg version="1.1" id="Layer_1" xmlns="http://www.w3.org/2000/svg" xmlns:xlink="http://www.w3.org/1999/xlink" x="0px" y="0px"
	 viewBox="0 0 20.3 64.7" style="enable-background:new 0 0 20.3 64.7;" xml:space="preserve">
<style type="text/css">
	.st0{opacity:0.3;}
	.st1{fill:url(#SVGID_1_);}
</style>
<g>
	<g class="st0">
		<path d="M0,33.8l15.3,29.7c0.9,1.2,2.7,1.4,3.9,0.5c1.2-0.9,1.4-2.7,0.5-3.9L7.1,33.8L19.7,7.5c0.9-1.2,0.7-3-0.5-3.9
			c-1.2-0.9-3-0.7-3.9,0.5L0,33.8z"/>
	</g>
	<g>
		
			<linearGradient id="SVGID_1_" gradientUnits="userSpaceOnUse" x1="4597.6826" y1="1883.2657" x2="4597.6826" y2="1905.5297" gradientTransform="matrix(4.489700e-11 -1 -1 -4.489700e-11 1903.8739 4628.519)">
			<stop  offset="0" style="stop-color:#3ABEEE"/>
			<stop  offset="1" style="stop-color:#3061AD"/>
		</linearGradient>
		<path class="st1" d="M0,30.8l15.3,29.7c0.9,1.2,2.7,1.4,3.9,0.5c1.2-0.9,1.4-2.7,0.5-3.9L7.1,30.8L19.7,4.5c0.9-1.2,0.7-3-0.5-3.9
			c-1.2-0.9-3-0.7-3.9,0.5L0,30.8z"/>
	</g>
</g>
</svg>
