<?xml version="1.0" encoding="utf-8"?>
<!-- Generator: Adobe Illustrator 24.0.1, SVG Export Plug-In . SVG Version: 6.00 Build 0)  -->
<svg version="1.1" id="Layer_1" xmlns="http://www.w3.org/2000/svg" xmlns:xlink="http://www.w3.org/1999/xlink" x="0px" y="0px"
	 viewBox="0 0 20.3 64.7" style="enable-background:new 0 0 20.3 64.7;" xml:space="preserve">
<style type="text/css">
	.st0{opacity:0.3;}
	.st1{fill:url(#SVGID_1_);}
</style>
<g>
	<g class="st0">
		<path d="M5,4.1C4.1,2.9,2.3,2.6,1.1,3.6c-1.2,0.9-1.4,2.7-0.5,3.9l12.6,26.3L0.6,60.2c-0.9,1.2-0.7,3,0.5,3.9
			c1.2,0.9,3,0.7,3.9-0.5l15.3-29.7L5,4.1z"/>
	</g>
	<g>
		
			<linearGradient id="SVGID_1_" gradientUnits="userSpaceOnUse" x1="4597.6826" y1="2466.6453" x2="4597.6826" y2="2488.9092" gradientTransform="matrix(0 -1 1 0 -2466.9729 4628.519)">
			<stop  offset="0" style="stop-color:#3ABEEE"/>
			<stop  offset="1" style="stop-color:#3061AD"/>
		</linearGradient>
		<path class="st1" d="M5,1.1C4.1-0.1,2.3-0.4,1.1,0.6c-1.2,0.9-1.4,2.7-0.5,3.9l12.6,26.3L0.6,57.2c-0.9,1.2-0.7,3,0.5,3.9
			c1.2,0.9,3,0.7,3.9-0.5l15.3-29.7L5,1.1z"/>
	</g>
</g>
</svg>
