<?xml version="1.0" encoding="utf-8"?>
<!-- Generator: Adobe Illustrator 24.0.1, SVG Export Plug-In . SVG Version: 6.00 Build 0)  -->
<svg version="1.1" id="Layer_1" xmlns="http://www.w3.org/2000/svg" xmlns:xlink="http://www.w3.org/1999/xlink" x="0px" y="0px"
	 viewBox="0 0 140.8 70" style="enable-background:new 0 0 140.8 70;" xml:space="preserve">
<style type="text/css">
	.st0{fill:#0E3179;}
</style>
<path class="st0" d="M43.4,29c0,1.2,0,3.5,0,5.9h-6.3c0-0.8,0-3.7,0-5.9H43.4 M37.1,35.9c0,1.8,0,3.8,0,5.9h6.3c0-2.3,0-4.2,0-5.9
	H37.1z M59.5,34.8h-6.2V29h6.2V34.8z M65.8,22H46.9v5.8h18.7V22H65.8z M53.3,41.9h6.2v-6h-6.2V41.9z M75.5,34.8h-6.2V29h6.2V34.8z
	 M69.3,27.8h6.2v-5.8h-6.2V27.8z M91.8,15l-2.4,5.8h13.4V15H91.8z M96.7,34.8h6.2V29h-6.2V34.8z M79,27.8h6.4L83.1,22h-6.4L79,27.8z
	 M95.5,22h-6.4l-2.4,5.8h6.4L95.5,22z M69.3,41.9h6.2v-6h-6.2V41.9z M96.7,41.9h6.2v-6h-6.2V41.9z M96.7,27.8h6.2v-5.8h-6.2V27.8z
	 M79.5,29l2.4,5.9h8.5l2.4-5.9H79.5z M69.3,15v5.8h13.4L80.3,15H69.3z"/>
<path class="st0" d="M102.9,48.5H37.1v-3h65.7V48.5z M38.5,60.3h-0.9v4.5h0.9V60.3z M42.9,61h-1.5v3.8h-1V61h-1.5v-0.9h3.8V61H42.9z
	 M43.3,62h2v0.8h-2V62z M46.3,60.1h1.5l0.8,1.9h0.2l0.8-1.9H51v4.6h-0.9v-3.5h-0.2l-0.8,1.9h-0.9l-0.8-1.9h-0.2v3.5h-0.9V60.1z
	 M55.7,63.9v0.9h-3.5v-4.6h3.5v0.9h-2.5v1h1.9v0.8h-1.9V64h2.5V63.9z M60.8,60.1v4.6h-1v-1.9h-2v1.9h-1v-4.6h1v1.8h2v-1.8H60.8z
	 M65.5,63.9v0.9h-3.5v-4.6h3.5v0.9h-2.5v1H65v0.8h-1.9V64h2.5V63.9z M69.5,61h-1.4v0.5c0,1.1-0.2,2-0.5,2.5h1.9V61H69.5z M71.2,63.9
	v2h-0.9v-1.1h-3v1.1h-1v-2h0.5c0.3-0.6,0.6-1.4,0.6-2.7v-1h3.3v3.7C70.5,63.9,71.2,63.9,71.2,63.9z M75.5,62.8v1.9h-0.9v-1.9h-1
	l-0.8,1.9h-1l1-2.4l-0.9-2.3h1l0.7,1.8h1v-1.8h0.9v1.8h1l0.7-1.8h1l-0.9,2.3l1,2.4h-1l-0.8-1.9H75.5z M79.3,60.1h1.5l0.8,1.9h0.2
	l0.8-1.9H84v4.6h-0.9v-3.5h-0.2l-0.8,1.9h-1l-0.8-1.9h-0.2v3.5h-0.9v-4.6H79.3z M88.8,63.9v0.9h-3.5v-4.6h3.5v0.9h-2.5v1h1.9v0.8
	h-1.9V64h2.5V63.9z M93.7,60.1v4.6h-1v-1.9h-2v1.9h-1v-4.6h1v1.8h2v-1.8H93.7z M98.5,61H97v3.8h-1V61h-1.5v-0.9h3.8V61H98.5z
	 M100.2,62.7h1.2l-0.5-1.6h-0.3L100.2,62.7z M101.6,63.5h-1.8l-0.3,1.2h-1l1.5-4.6h1.5l1.5,4.6h-1L101.6,63.5z M39.6,52h0.9v3.7H42
	V52h0.9v4.6h-5.8V52H38v3.7h1.5V52H39.6z M44.2,52h1v1.8h1.1l0.9-1.8h0.9l-1,2.3l1.1,2.4h-1l-0.9-1.9h-1.1v1.9h-1
	C44.2,56.6,44.2,52,44.2,52z M54.2,55.7c0.6,0,0.7-0.1,0.7-1.7v-2h3.4v4.6h-1v-3.7h-1.5v1.2c0,2.1-0.6,2.5-1.7,2.5h-0.2v-0.9H54.2z
	 M60.7,54.6h1.2L61.5,53h-0.3L60.7,54.6z M62.3,55.3h-1.8l-0.3,1.2h-1l1.5-4.6h1.5l1.5,4.6h-1L62.3,55.3z M52.4,54.3
	c0-0.9-0.5-1.6-1.2-1.6c-0.9,0-1.2,0.7-1.2,1.6c0,0.9,0.5,1.6,1.2,1.6C51.9,55.8,52.4,55.1,52.4,54.3 M53.4,54.3
	c0,1.4-0.8,2.4-2.3,2.4s-2.3-1-2.3-2.4c0-1.4,0.8-2.4,2.3-2.4C52.6,51.8,53.4,53,53.4,54.3"/>
</svg>
