<?xml version="1.0" encoding="utf-8"?>
<!-- Generator: Adobe Illustrator 24.0.1, SVG Export Plug-In . SVG Version: 6.00 Build 0)  -->
<svg version="1.1" id="Layer_1" xmlns="http://www.w3.org/2000/svg" xmlns:xlink="http://www.w3.org/1999/xlink" x="0px" y="0px"
	 viewBox="0 0 30.1 30.1" style="enable-background:new 0 0 30.1 30.1;" xml:space="preserve">
<style type="text/css">
	.st0{fill:url(#SVGID_1_);}
	.st1{fill:url(#SVGID_2_);}
	.st2{fill:url(#SVGID_3_);}
	.st3{fill:url(#SVGID_4_);}
	.st4{fill:url(#SVGID_5_);}
	.st5{fill:url(#SVGID_6_);}
	.st6{fill:url(#SVGID_7_);}
	.st7{fill:url(#SVGID_8_);}
	.st8{fill:url(#SVGID_9_);}
	.st9{fill:url(#SVGID_10_);}
	.st10{fill:url(#SVGID_11_);}
	.st11{fill:url(#SVGID_12_);}
</style>
<linearGradient id="SVGID_1_" gradientUnits="userSpaceOnUse" x1="1.1197" y1="7.4315" x2="12.772" y2="21.2697">
	<stop  offset="0" style="stop-color:#00F1E5"/>
	<stop  offset="0.6335" style="stop-color:#175FB8"/>
	<stop  offset="1" style="stop-color:#04A3FF"/>
</linearGradient>
<path class="st0" d="M14.6,19C7.2,19,3.5,13.7,3.2,9.9c-0.1-2,1-3.7,2.8-5c0.1-0.1,0-0.3-0.1-0.2C3,6.1,1.3,8.9,1.2,12.5
	c-0.1,5.2,3.6,8.9,8.3,8.8c3.3-0.1,5.6-0.9,7.2-2.4C16,19,15.3,19,14.6,19z"/>
<linearGradient id="SVGID_2_" gradientUnits="userSpaceOnUse" x1="1.0408" y1="16.7626" x2="7.5551" y2="21.0114">
	<stop  offset="0" style="stop-color:#9BEDFD"/>
	<stop  offset="0.392" style="stop-color:#79C7E5"/>
	<stop  offset="0.7835" style="stop-color:#5CA7D1"/>
	<stop  offset="1" style="stop-color:#519BCA"/>
</linearGradient>
<path class="st1" d="M7.8,21.1c-2.9-0.5-5.2-2.5-6.2-5.3L0,17.3c0,0,3.6,3.1,7.5,3.7C7.6,21.1,7.7,21.1,7.8,21.1z"/>
<linearGradient id="SVGID_3_" gradientUnits="userSpaceOnUse" x1="1.6806" y1="22.4306" x2="15.4011" y2="16.523">
	<stop  offset="0" style="stop-color:#09317A"/>
	<stop  offset="0.1524" style="stop-color:#0A337C"/>
	<stop  offset="0.2293" style="stop-color:#0E3B81"/>
	<stop  offset="0.2893" style="stop-color:#14488B"/>
	<stop  offset="0.3406" style="stop-color:#1D5B99"/>
	<stop  offset="0.3863" style="stop-color:#2873AB"/>
	<stop  offset="0.4281" style="stop-color:#3692C1"/>
	<stop  offset="0.4668" style="stop-color:#47B5DB"/>
	<stop  offset="0.5022" style="stop-color:#5ADEF9"/>
	<stop  offset="0.5056" style="stop-color:#5CE2FC"/>
	<stop  offset="0.5378" style="stop-color:#4DC2E4"/>
	<stop  offset="0.583" style="stop-color:#3B9BC8"/>
	<stop  offset="0.6318" style="stop-color:#2B7AB0"/>
	<stop  offset="0.6839" style="stop-color:#1F609C"/>
	<stop  offset="0.7405" style="stop-color:#154B8D"/>
	<stop  offset="0.8039" style="stop-color:#0E3C82"/>
	<stop  offset="0.8796" style="stop-color:#0A347C"/>
	<stop  offset="1" style="stop-color:#09317A"/>
</linearGradient>
<path class="st2" d="M7.8,21.1C7.8,21.1,7.8,21.1,7.8,21.1c-0.1,0-0.2,0-0.3,0c-4-0.7-7.5-3.7-7.5-3.7c2.2,3.8,5.6,6.8,9.7,6.8
	c3.5,0,6.2-2.4,7-5.3c-1.6,1.4-3.9,2.3-7.2,2.4C8.9,21.2,8.4,21.2,7.8,21.1z"/>
<linearGradient id="SVGID_4_" gradientUnits="userSpaceOnUse" x1="22.1845" y1="7.4024" x2="33.8368" y2="21.2407" gradientTransform="matrix(4.489700e-11 -1 1 4.489700e-11 2.902336e-02 51.1304)">
	<stop  offset="0" style="stop-color:#00F1E5"/>
	<stop  offset="0.6335" style="stop-color:#175FB8"/>
	<stop  offset="1" style="stop-color:#04A3FF"/>
</linearGradient>
<path class="st3" d="M19,15.5c0,7.4-5.4,11.1-9.1,11.4c-2,0.1-3.7-1-5-2.8c-0.1-0.1-0.3,0-0.2,0.1c1.5,2.9,4.3,4.6,7.8,4.7
	c5.2,0.1,8.9-3.6,8.8-8.3c-0.1-3.3-0.9-5.6-2.4-7.2C19,14.1,19,14.8,19,15.5z"/>
<linearGradient id="SVGID_5_" gradientUnits="userSpaceOnUse" x1="22.1055" y1="16.7336" x2="28.6198" y2="20.9824" gradientTransform="matrix(4.489700e-11 -1 1 4.489700e-11 2.902336e-02 51.1304)">
	<stop  offset="0" style="stop-color:#9BEDFD"/>
	<stop  offset="0.392" style="stop-color:#79C7E5"/>
	<stop  offset="0.7835" style="stop-color:#5CA7D1"/>
	<stop  offset="1" style="stop-color:#519BCA"/>
</linearGradient>
<path class="st4" d="M21.1,22.2c-0.5,2.9-2.5,5.2-5.3,6.2l1.6,1.7c0,0,3.1-3.6,3.7-7.5C21.1,22.4,21.1,22.3,21.1,22.2z"/>
<linearGradient id="SVGID_6_" gradientUnits="userSpaceOnUse" x1="22.7453" y1="22.4015" x2="36.4658" y2="16.494" gradientTransform="matrix(4.489700e-11 -1 1 4.489700e-11 2.902336e-02 51.1304)">
	<stop  offset="0" style="stop-color:#09317A"/>
	<stop  offset="0.1524" style="stop-color:#0A337C"/>
	<stop  offset="0.2293" style="stop-color:#0E3B81"/>
	<stop  offset="0.2893" style="stop-color:#14488B"/>
	<stop  offset="0.3406" style="stop-color:#1D5B99"/>
	<stop  offset="0.3863" style="stop-color:#2873AB"/>
	<stop  offset="0.4281" style="stop-color:#3692C1"/>
	<stop  offset="0.4668" style="stop-color:#47B5DB"/>
	<stop  offset="0.5022" style="stop-color:#5ADEF9"/>
	<stop  offset="0.5056" style="stop-color:#5CE2FC"/>
	<stop  offset="0.5378" style="stop-color:#4DC2E4"/>
	<stop  offset="0.583" style="stop-color:#3B9BC8"/>
	<stop  offset="0.6318" style="stop-color:#2B7AB0"/>
	<stop  offset="0.6839" style="stop-color:#1F609C"/>
	<stop  offset="0.7405" style="stop-color:#154B8D"/>
	<stop  offset="0.8039" style="stop-color:#0E3C82"/>
	<stop  offset="0.8796" style="stop-color:#0A347C"/>
	<stop  offset="1" style="stop-color:#09317A"/>
</linearGradient>
<path class="st5" d="M21.1,22.2C21.1,22.2,21.1,22.2,21.1,22.2c0,0.1,0,0.2,0,0.3c-0.7,4-3.7,7.5-3.7,7.5c3.8-2.2,6.8-5.6,6.8-9.7
	c0-3.5-2.4-6.2-5.3-7c1.4,1.6,2.3,3.9,2.4,7.2C21.2,21.2,21.2,21.7,21.1,22.2z"/>
<linearGradient id="SVGID_7_" gradientUnits="userSpaceOnUse" x1="22.2135" y1="28.4672" x2="33.8658" y2="42.3054" gradientTransform="matrix(-1 0 0 -1 51.1594 51.1013)">
	<stop  offset="0" style="stop-color:#00F1E5"/>
	<stop  offset="0.6335" style="stop-color:#175FB8"/>
	<stop  offset="1" style="stop-color:#04A3FF"/>
</linearGradient>
<path class="st6" d="M15.5,11c7.4,0,11.1,5.4,11.4,9.1c0.1,2-1,3.7-2.8,5c-0.1,0.1,0,0.3,0.1,0.2c2.9-1.5,4.6-4.3,4.7-7.8
	c0.1-5.2-3.6-8.9-8.3-8.8c-3.3,0.1-5.6,0.9-7.2,2.4C14.1,11.1,14.8,11,15.5,11z"/>
<linearGradient id="SVGID_8_" gradientUnits="userSpaceOnUse" x1="22.1345" y1="37.7983" x2="28.6488" y2="42.0471" gradientTransform="matrix(-1 0 0 -1 51.1594 51.1013)">
	<stop  offset="0" style="stop-color:#9BEDFD"/>
	<stop  offset="0.392" style="stop-color:#79C7E5"/>
	<stop  offset="0.7835" style="stop-color:#5CA7D1"/>
	<stop  offset="1" style="stop-color:#519BCA"/>
</linearGradient>
<path class="st7" d="M22.2,9c2.9,0.5,5.2,2.5,6.2,5.3l1.7-1.6c0,0-3.6-3.1-7.5-3.7C22.4,9,22.3,9,22.2,9z"/>
<linearGradient id="SVGID_9_" gradientUnits="userSpaceOnUse" x1="22.2818" y1="43.1621" x2="37.3135" y2="38.254" gradientTransform="matrix(-1 0 0 -1 51.1594 51.1013)">
	<stop  offset="0" style="stop-color:#0A347C"/>
	<stop  offset="0.1537" style="stop-color:#0B367E"/>
	<stop  offset="0.2309" style="stop-color:#0F3E83"/>
	<stop  offset="0.2912" style="stop-color:#154B8D"/>
	<stop  offset="0.3426" style="stop-color:#1E5E9B"/>
	<stop  offset="0.3884" style="stop-color:#2976AD"/>
	<stop  offset="0.4302" style="stop-color:#3794C3"/>
	<stop  offset="0.4681" style="stop-color:#48B7DD"/>
	<stop  offset="0.5036" style="stop-color:#5BE0FA"/>
	<stop  offset="0.5056" style="stop-color:#5CE2FC"/>
	<stop  offset="0.5372" style="stop-color:#47B4DA"/>
	<stop  offset="0.5701" style="stop-color:#348CBD"/>
	<stop  offset="0.604" style="stop-color:#246BA5"/>
	<stop  offset="0.6387" style="stop-color:#185292"/>
	<stop  offset="0.6745" style="stop-color:#103F85"/>
	<stop  offset="0.7121" style="stop-color:#0B357D"/>
	<stop  offset="0.7542" style="stop-color:#09317A"/>
	<stop  offset="0.7871" style="stop-color:#0B367D"/>
	<stop  offset="0.8243" style="stop-color:#124387"/>
	<stop  offset="0.8637" style="stop-color:#1C5A98"/>
	<stop  offset="0.9045" style="stop-color:#2B7AAF"/>
	<stop  offset="0.9464" style="stop-color:#3EA2CD"/>
	<stop  offset="0.9887" style="stop-color:#55D4F1"/>
	<stop  offset="1" style="stop-color:#5CE2FC"/>
</linearGradient>
<path class="st8" d="M22.2,9C22.2,9,22.2,9,22.2,9c0.1,0,0.2,0,0.3,0c4,0.7,7.5,3.7,7.5,3.7c-2.2-3.8-5.6-6.8-9.7-6.8
	c-3.5,0-6.2,2.4-7,5.3c1.6-1.4,3.9-2.3,7.2-2.4C21.2,8.8,21.7,8.9,22.2,9z"/>
<linearGradient id="SVGID_10_" gradientUnits="userSpaceOnUse" x1="1.1488" y1="28.4962" x2="12.801" y2="42.3345" gradientTransform="matrix(-4.489700e-11 1 -1 -4.489700e-11 51.1304 -2.902263e-02)">
	<stop  offset="0" style="stop-color:#00F1E5"/>
	<stop  offset="0.6335" style="stop-color:#175FB8"/>
	<stop  offset="1" style="stop-color:#04A3FF"/>
</linearGradient>
<path class="st9" d="M11,14.6c0-7.4,5.4-11.1,9.1-11.4c2-0.1,3.7,1,5,2.8c0.1,0.1,0.3,0,0.2-0.1c-1.5-2.9-4.3-4.6-7.8-4.7
	c-5.2-0.1-8.9,3.6-8.8,8.3c0.1,3.3,0.9,5.6,2.4,7.2C11.1,16,11,15.3,11,14.6z"/>
<linearGradient id="SVGID_11_" gradientUnits="userSpaceOnUse" x1="1.0698" y1="37.8273" x2="7.5841" y2="42.0762" gradientTransform="matrix(-4.489700e-11 1 -1 -4.489700e-11 51.1304 -2.902263e-02)">
	<stop  offset="0" style="stop-color:#398DBA"/>
	<stop  offset="5.701184e-03" style="stop-color:#398CBA"/>
	<stop  offset="0.4636" style="stop-color:#1F5995"/>
	<stop  offset="0.8091" style="stop-color:#0F397F"/>
	<stop  offset="1" style="stop-color:#092D76"/>
</linearGradient>
<path class="st10" d="M9,7.8c0.5-2.9,2.5-5.2,5.3-6.2L12.7,0c0,0-3.1,3.6-3.7,7.5C9,7.6,9,7.7,9,7.8z"/>
<linearGradient id="SVGID_12_" gradientUnits="userSpaceOnUse" x1="2.0601" y1="42.0142" x2="16.9606" y2="40.9522" gradientTransform="matrix(-4.489700e-11 1 -1 -4.489700e-11 51.1304 -2.902263e-02)">
	<stop  offset="0" style="stop-color:#09317A"/>
	<stop  offset="9.707204e-02" style="stop-color:#12498F"/>
	<stop  offset="0.2744" style="stop-color:#216FB0"/>
	<stop  offset="0.4168" style="stop-color:#2A86C4"/>
	<stop  offset="0.5056" style="stop-color:#2D8FCC"/>
	<stop  offset="0.9077" style="stop-color:#10438A"/>
	<stop  offset="1" style="stop-color:#09317A"/>
</linearGradient>
<path class="st11" d="M9,7.8C9,7.8,9,7.8,9,7.8c0-0.1,0-0.2,0-0.3c0.7-4,3.7-7.5,3.7-7.5C8.9,2.2,5.9,5.6,5.9,9.7
	c0,3.5,2.4,6.2,5.3,7c-1.4-1.6-2.3-3.9-2.4-7.2C8.8,8.9,8.9,8.4,9,7.8z"/>
</svg>
