<?xml version="1.0" encoding="utf-8"?>
<!-- Generator: Adobe Illustrator 24.0.1, SVG Export Plug-In . SVG Version: 6.00 Build 0)  -->
<svg version="1.1" id="Layer_1" xmlns="http://www.w3.org/2000/svg" xmlns:xlink="http://www.w3.org/1999/xlink" x="0px" y="0px"
	 viewBox="0 0 90 62.5" style="enable-background:new 0 0 90 62.5;" xml:space="preserve">
<style type="text/css">
	.st0{fill:#FFFFFF;}
</style>
<path class="st0" d="M21.1,15.6c0,1.1,0,3.1,0,5.2l-5.6,0c0-0.7,0-3.3,0-5.2H21.1 M15.5,21.9c0,1.7,0,3.4,0,5.3h5.6c0-2,0-3.8,0-5.3
	L15.5,21.9z M35.5,20.8h-5.6v-5.2h5.6V20.8z M41.1,9.4H24.3v5.2h16.8V9.4z M29.9,27.2h5.6v-5.3h-5.6V27.2z M49.8,20.8h-5.6v-5.2h5.6
	V20.8z M44.2,14.6h5.6V9.4h-5.6V14.6z M64.4,3.1l-2.1,5.2h12V3.1H64.4z M68.7,20.8h5.6v-5.2h-5.6V20.8z M52.9,14.6h5.8l-2.1-5.2
	h-5.8L52.9,14.6z M67.7,9.4h-5.8l-2.1,5.2h5.8L67.7,9.4z M44.2,27.2h5.6v-5.3h-5.6V27.2z M68.7,27.2h5.6v-5.3h-5.6V27.2z M68.7,14.6
	h5.6V9.4h-5.6V14.6z M53.4,15.6l2.1,5.2H63l2.1-5.2H53.4z M44.2,3.1v5.2h12l-2.1-5.2H44.2z"/>
<path class="st0" d="M74.3,33.1H15.5v-2.7h58.8V33.1z M16.7,43.6h-0.9v4h0.9V43.6z M20.7,44.2h-1.3v3.4h-0.9v-3.4h-1.3v-0.8h3.5
	V44.2z M21,45.1h1.8v0.7H21V45.1z M23.7,43.5H25l0.7,1.7h0.2l0.7-1.7h1.3v4.1h-0.8v-3.1h-0.2l-0.7,1.7h-0.9l-0.7-1.7h-0.2v3.1h-0.8
	V43.5z M32.2,46.8v0.8H29v-4.1h3.1v0.8h-2.2v0.9h1.7v0.8h-1.7v1H32.2z M36.7,43.5v4.1h-0.9v-1.7H34v1.7h-0.9v-4.1H34v1.6h1.8v-1.6
	H36.7z M41,46.8v0.8h-3.1v-4.1h3.1v0.8h-2.2v0.9h1.7v0.8h-1.7v1H41z M44.5,44.2h-1.3v0.4c0,1.1-0.2,1.8-0.4,2.2h1.7V44.2z
	 M45.9,46.8v1.8h-0.8v-1h-2.7v1h-0.8v-1.8h0.4c0.3-0.5,0.5-1.3,0.5-2.5v-0.9h2.9v3.4H45.9z M49.8,45.9v1.7h-0.8v-1.7h-0.9l-0.7,1.7
	h-0.9l0.9-2.1l-0.8-2h0.9l0.7,1.6h0.9v-1.6h0.8v1.6h0.9l0.7-1.6h0.9l-0.8,2l0.9,2.1h-0.9l-0.7-1.7H49.8z M53.2,43.5h1.3l0.7,1.7h0.2
	l0.7-1.7h1.3v4.1h-0.8v-3.1h-0.2l-0.7,1.7h-0.9l-0.7-1.7H54v3.1h-0.8V43.5z M61.6,46.8v0.8h-3.1v-4.1h3.1v0.8h-2.2v0.9h1.7v0.8h-1.7
	v1H61.6z M66.1,43.5v4.1h-0.9v-1.7h-1.8v1.7h-0.9v-4.1h0.9v1.6h1.8v-1.6H66.1z M70.3,44.2H69v3.4h-0.9v-3.4h-1.3v-0.8h3.5V44.2z
	 M71.8,45.7H73l-0.4-1.4h-0.3L71.8,45.7z M73.2,46.5h-1.6l-0.3,1.1h-0.9l1.3-4.1h1.3l1.3,4.1h-0.9L73.2,46.5z M17.7,36.2h0.8v3.4
	h1.3v-3.4h0.8v4.1h-5.2v-4.1h0.8v3.4h1.3V36.2z M21.9,36.2h0.9v1.6h1l0.8-1.6h0.9l-0.9,2l1,2.1h-0.9l-0.8-1.7h-1v1.7h-0.9V36.2z
	 M30.7,39.5c0.5,0,0.7-0.1,0.7-1.5v-1.8h3.1v4.1h-0.9V37h-1.4v1.1c0,1.9-0.5,2.3-1.5,2.3h-0.2v-0.8H30.7z M36.6,38.4h1.1L37.3,37
	h-0.3L36.6,38.4z M38,39.2h-1.6l-0.3,1.1h-0.9l1.3-4.1h1.3l1.3,4.1h-0.9L38,39.2z M29.1,38.3c0-0.8-0.4-1.4-1.1-1.4
	c-0.8,0-1.1,0.6-1.1,1.4c0,0.8,0.4,1.4,1.1,1.4C28.8,39.6,29.1,39,29.1,38.3 M30,38.3c0,1.2-0.7,2.1-2,2.1c-1.3,0-2-0.9-2-2.1
	c0-1.2,0.7-2.1,2-2.1C29.3,36.1,30,37,30,38.3"/>
</svg>
