<?xml version="1.0" encoding="utf-8"?>
<!-- Generator: Adobe Illustrator 24.0.1, SVG Export Plug-In . SVG Version: 6.00 Build 0)  -->
<svg version="1.1" id="Layer_1" xmlns="http://www.w3.org/2000/svg" xmlns:xlink="http://www.w3.org/1999/xlink" x="0px" y="0px"
	 viewBox="0 0 140.8 62.5" style="enable-background:new 0 0 140.8 62.5;" xml:space="preserve">
<style type="text/css">
	.st0{fill-rule:evenodd;clip-rule:evenodd;fill:#B3B3B3;}
	.st1{fill-rule:evenodd;clip-rule:evenodd;fill:#FFFFFF;}
	.st2{fill:#FFFFFF;}
</style>
<g id="uuid-fa7df7e0-9162-4474-96ba-8be79dee7d6f">
	<polygon class="st0" points="39.1,6.6 33.3,1.5 30.1,1.7 1.1,34.4 0.7,37 5.5,44.7 	"/>
	<path class="st1" d="M69.7,49c6,0,10.9-2.2,14.2-6.1l-5.1-4.7c-2.3,2.7-5.2,4.1-8.6,4.1c-6.4,0-11-4.5-11-11s4.6-11,11-11
		c3.4,0,6.3,1.4,8.6,4l5.1-4.7c-3.3-3.9-8.2-6.1-14.2-6.1c-10.7,0-18.7,7.4-18.7,17.8S59.1,49,69.7,49L69.7,49z M89.3,49h8V13.4h-8
		V49z M122,49c10.8,0,18.8-7.5,18.8-17.8s-8-17.8-18.8-17.8s-18.8,7.6-18.8,17.8S111.2,49,122,49z M122,42.2
		c-6.1,0-10.8-4.5-10.8-11s4.6-11,10.8-11c6.1,0,10.8,4.5,10.8,11S128.2,42.2,122,42.2L122,42.2z"/>
	<path class="st1" d="M41.6,2.5L39.1,0h-6.5l-1.9,0.9L28.9,3c0.3-0.3,0.7-0.5,1.1-0.5c0.9,0,1.6,0.7,1.6,1.5v20.5l10,8.2L41.6,2.5
		L41.6,2.5z M31.5,58.4v4.1l10-8.3v-4L31.5,58.4z"/>
	<path class="st1" d="M0,36.8v6.6l2.4,2.4h36.3v-10H3.4c-0.9,0-1.5-0.7-1.5-1.5c0-0.4,0.1-0.8,0.4-1l-1.7,1.9L0,36.8L0,36.8z"/>
	<polygon class="st1" points="46.7,41.6 39.1,35.4 31.5,29.2 31.5,41.6 31.5,54 39.1,47.8 	"/>
	<circle class="st2" cx="2.4" cy="43.4" r="2.4"/>
	<circle class="st2" cx="39.1" cy="2.4" r="2.4"/>
	<path class="st1" d="M32.6,0c1.1,0,2,0.7,2.3,1.7h-4.6C30.6,0.7,31.6,0,32.6,0L32.6,0z"/>
	<path class="st1" d="M1.2,38.8C0.5,38.4,0,37.6,0,36.7c0-0.9,0.5-1.7,1.2-2.1V38.8L1.2,38.8z"/>
</g>
</svg>
