<?xml version="1.0" encoding="utf-8"?>
<!-- Generator: Adobe Illustrator 24.0.1, SVG Export Plug-In . SVG Version: 6.00 Build 0)  -->
<svg version="1.1" id="Layer_1" xmlns="http://www.w3.org/2000/svg" xmlns:xlink="http://www.w3.org/1999/xlink" x="0px" y="0px"
	 viewBox="0 0 140 60" style="enable-background:new 0 0 140 60;" xml:space="preserve">
<style type="text/css">
	.st0{fill-rule:evenodd;clip-rule:evenodd;fill:#B3B3B3;}
	.st1{fill-rule:evenodd;clip-rule:evenodd;fill:#FFFFFF;}
	.st2{fill:#FFFFFF;}
</style>
<g id="uuid-fa7df7e0-9162-4474-96ba-8be79dee7d6f">
	<polygon class="st0" points="40.4,6.3 34.8,1.4 31.7,1.6 3.9,33 3.5,35.5 8.1,42.9 	"/>
	<path class="st1" d="M69.7,47c5.8,0,10.5-2.1,13.6-5.9l-4.9-4.5c-2.2,2.6-5,3.9-8.3,3.9c-6.1,0-10.6-4.3-10.6-10.6
		s4.4-10.6,10.6-10.6c3.3,0,6,1.3,8.3,3.8l4.9-4.5c-3.2-3.7-7.9-5.9-13.6-5.9c-10.3,0-18,7.1-18,17.1S59.6,47,69.7,47L69.7,47z
		 M88.5,47h7.7V12.9h-7.7V47z M119.9,47c10.4,0,18-7.2,18-17.1s-7.7-17.1-18-17.1s-18,7.3-18,17.1S109.6,47,119.9,47z M119.9,40.5
		c-5.9,0-10.4-4.3-10.4-10.6s4.4-10.6,10.4-10.6c5.9,0,10.4,4.3,10.4,10.6S125.9,40.5,119.9,40.5L119.9,40.5z"/>
	<path class="st1" d="M42.8,2.4L40.4,0h-6.2l-1.8,0.9l-1.7,2c0.3-0.3,0.7-0.5,1.1-0.5c0.9,0,1.5,0.7,1.5,1.4v19.7l9.6,7.9V2.4
		L42.8,2.4z M33.1,56.1V60l9.6-8v-3.8L33.1,56.1z"/>
	<path class="st1" d="M2.8,35.3v6.3L5.1,44H40v-9.6H6.1c-0.9,0-1.4-0.7-1.4-1.4c0-0.4,0.1-0.8,0.4-1l-1.6,1.8L2.8,35.3L2.8,35.3z"/>
	<polygon class="st1" points="47.6,39.9 40.4,34 33.1,28 33.1,39.9 33.1,51.8 40.4,45.9 	"/>
	<circle class="st2" cx="5.1" cy="41.7" r="2.3"/>
	<circle class="st2" cx="40.4" cy="2.3" r="2.3"/>
	<path class="st1" d="M34.1,0c1.1,0,1.9,0.7,2.2,1.6h-4.4C32.2,0.7,33.2,0,34.1,0L34.1,0z"/>
	<path class="st1" d="M4,37.2c-0.7-0.4-1.2-1.2-1.2-2c0-0.9,0.5-1.6,1.2-2V37.2L4,37.2z"/>
</g>
</svg>
