<?xml version="1.0" encoding="utf-8"?>
<!-- Generator: Adobe Illustrator 24.0.1, SVG Export Plug-In . SVG Version: 6.00 Build 0)  -->
<svg version="1.1" id="Layer_1" xmlns="http://www.w3.org/2000/svg" xmlns:xlink="http://www.w3.org/1999/xlink" x="0px" y="0px"
	 viewBox="0 0 90 62.5" style="enable-background:new 0 0 90 62.5;" xml:space="preserve">
<style type="text/css">
	.st0{fill:#FFFFFF;}
</style>
<path class="st0" d="M5.7,12.5c0,1.1,0,3.1,0,5.2H0.1c0-0.7,0-3.3,0-5.2L5.7,12.5 M0.1,18.8c0,1.7,0,3.4,0,5.3h5.6c0-2,0-3.8,0-5.3
	L0.1,18.8z M20.1,17.7h-5.6v-5.2h5.6V17.7z M25.7,6.3H8.9v5.2h16.8V6.3z M14.5,24.1h5.6v-5.3h-5.6V24.1z M34.4,17.7h-5.6v-5.2h5.6
	V17.7z M28.8,11.5h5.6V6.3h-5.6V11.5z M49,0l-2.1,5.2h12V0H49z M53.3,17.7h5.6v-5.2h-5.6V17.7z M37.5,11.5h5.8l-2.1-5.2h-5.8
	L37.5,11.5z M52.3,6.3h-5.8l-2.1,5.2h5.8L52.3,6.3z M28.8,24.1h5.6v-5.3h-5.6V24.1z M53.3,24.1h5.6v-5.3h-5.6V24.1z M53.3,11.5h5.6
	V6.3h-5.6V11.5z M38,12.5l2.1,5.2h7.5l2.1-5.2C49.7,12.5,38,12.5,38,12.5z M28.8,0v5.2h12L38.7,0C38.7,0,28.8,0,28.8,0z"/>
<path class="st0" d="M58.9,30H0.1v-2.7h58.8V30z M1.3,40.5H0.4v4h0.9V40.5z M5.3,41.1H4v3.4H3.1v-3.4H1.8v-0.8h3.5
	C5.3,40.3,5.3,41.1,5.3,41.1z M5.6,42h1.8v0.7H5.6V42z M8.3,40.4h1.3l0.7,1.7h0.2l0.7-1.7h1.3v4.1h-0.8v-3.1h-0.2l-0.7,1.7H9.9
	l-0.7-1.7H9v3.1H8.2v-4.1H8.3z M16.8,43.7v0.8h-3.2v-4.1h3.1v0.8h-2.2v0.9h1.7v0.8h-1.7v1h2.3V43.7z M21.3,40.4v4.1h-0.9v-1.7h-1.8
	v1.7h-0.9v-4.1h0.9V42h1.8v-1.6H21.3z M25.6,43.7v0.8h-3.1v-4.1h3.1v0.8h-2.2v0.9h1.7v0.8h-1.7v1h2.2V43.7z M29.1,41.1h-1.3v0.4
	c0,1.1-0.2,1.8-0.4,2.2h1.7V41.1z M30.5,43.7v1.8h-0.8v-1H27v1h-0.8v-1.8h0.4c0.3-0.5,0.5-1.3,0.5-2.5v-0.9H30v3.4H30.5z M34.4,42.8
	v1.7h-0.8v-1.7h-0.9L32,44.5h-0.9l0.9-2.1l-0.8-2h0.9l0.7,1.6h0.9v-1.6h0.8V42h0.9l0.7-1.6H37l-0.8,2l0.9,2.1h-0.9l-0.7-1.7H34.4z
	 M37.8,40.4h1.3l0.7,1.7H40l0.7-1.7H42v4.1h-0.8v-3.1H41l-0.7,1.7h-0.9l-0.7-1.7h-0.1v3.1h-0.8V40.4z M46.2,43.7v0.8h-3.1v-4.1h3.1
	v0.8H44v0.9h1.7v0.8H44v1h2.2V43.7z M50.7,40.4v4.1h-0.9v-1.7H48v1.7h-0.9v-4.1H48V42h1.8v-1.6H50.7z M54.9,41.1h-1.3v3.4h-0.9v-3.4
	h-1.3v-0.8h3.5C54.9,40.3,54.9,41.1,54.9,41.1z M56.4,42.6h1.2l-0.4-1.4h-0.3L56.4,42.6z M57.8,43.4h-1.6l-0.3,1.1H55l1.3-4.1h1.3
	l1.3,4.1H58L57.8,43.4z M2.3,33.1h0.8v3.4h1.3v-3.4h0.8v4.1H0v-4.1h0.8v3.4h1.3v-3.4H2.3z M6.5,33.1h0.9v1.6h1l0.8-1.6h0.9l-0.9,2
	l1,2.1H9.3l-0.8-1.7h-1v1.7H6.6v-4.1H6.5z M15.3,36.4c0.5,0,0.7-0.1,0.7-1.5v-1.8h3.1v4.1h-0.9v-3.3h-1.4V35c0,1.9-0.5,2.3-1.5,2.3
	h-0.2v-0.8L15.3,36.4L15.3,36.4z M21.2,35.3h1.1l-0.4-1.4h-0.3L21.2,35.3z M22.6,36.1H21l-0.3,1.1h-0.9l1.3-4.1h1.3l1.3,4.1h-0.9
	L22.6,36.1z M13.7,35.2c0-0.8-0.4-1.4-1.1-1.4c-0.8,0-1.1,0.6-1.1,1.4c0,0.8,0.4,1.4,1.1,1.4C13.4,36.5,13.7,35.9,13.7,35.2
	 M14.6,35.2c0,1.2-0.7,2.1-2,2.1s-2-0.9-2-2.1c0-1.2,0.7-2.1,2-2.1C13.9,33,14.6,33.9,14.6,35.2"/>
</svg>
