<?xml version="1.0" encoding="utf-8"?>
<!-- Generator: Adobe Illustrator 24.0.1, SVG Export Plug-In . SVG Version: 6.00 Build 0)  -->
<svg version="1.1" id="Layer_1" xmlns="http://www.w3.org/2000/svg" xmlns:xlink="http://www.w3.org/1999/xlink" x="0px" y="0px"
	 viewBox="0 0 140.8 70" style="enable-background:new 0 0 140.8 70;" xml:space="preserve">
<style type="text/css">
	.st0{fill-rule:evenodd;clip-rule:evenodd;fill:#6D6E71;}
	.st1{fill-rule:evenodd;clip-rule:evenodd;fill:#BCBEC0;}
	.st2{fill:#BCBEC0;}
</style>
<g id="uuid-fa7df7e0-9162-4474-96ba-8be79dee7d6f_2_">
	<polygon class="st0" points="39.1,14.1 33.3,9 30.1,9.2 1.1,41.9 0.7,44.5 5.5,52.2 	"/>
	<path class="st1" d="M69.7,56.5c6,0,10.9-2.2,14.2-6.1l-5.1-4.7c-2.3,2.7-5.2,4.1-8.6,4.1c-6.4,0-11-4.5-11-11s4.6-11,11-11
		c3.4,0,6.3,1.4,8.6,4l5.1-4.7c-3.3-3.9-8.2-6.1-14.2-6.1C59,21,51,28.4,51,38.8S59.1,56.5,69.7,56.5L69.7,56.5z M89.3,56.5h8V20.9
		h-8V56.5z M122,56.5c10.8,0,18.8-7.5,18.8-17.8s-8-17.8-18.8-17.8s-18.8,7.6-18.8,17.8S111.2,56.5,122,56.5z M122,49.7
		c-6.1,0-10.8-4.5-10.8-11s4.6-11,10.8-11c6.1,0,10.8,4.5,10.8,11S128.2,49.7,122,49.7L122,49.7z"/>
	<path class="st1" d="M41.6,10l-2.5-2.5h-6.5l-1.9,0.9l-1.8,2.1c0.3-0.3,0.7-0.5,1.1-0.5c0.9,0,1.6,0.7,1.6,1.5V32l10,8.2V10
		L41.6,10z M31.5,65.9V70l10-8.3v-4L31.5,65.9z"/>
	<path class="st1" d="M0,44.3v6.6l2.4,2.4h36.3v-10H3.4c-0.9,0-1.5-0.7-1.5-1.5c0-0.4,0.1-0.8,0.4-1l-1.7,1.9L0,44.3L0,44.3z"/>
	<polygon class="st1" points="46.7,49.1 39.1,42.9 31.5,36.7 31.5,49.1 31.5,61.5 39.1,55.3 	"/>
	<circle class="st2" cx="2.4" cy="50.9" r="2.4"/>
	<circle class="st2" cx="39.1" cy="9.9" r="2.4"/>
	<path class="st1" d="M32.6,7.5c1.1,0,2,0.7,2.3,1.7h-4.6C30.6,8.2,31.6,7.5,32.6,7.5L32.6,7.5z"/>
	<path class="st1" d="M1.2,46.3C0.5,45.9,0,45.1,0,44.2c0-0.9,0.5-1.7,1.2-2.1V46.3L1.2,46.3z"/>
</g>
</svg>
