<?xml version="1.0" encoding="utf-8"?>
<!-- Generator: Adobe Illustrator 24.0.1, SVG Export Plug-In . SVG Version: 6.00 Build 0)  -->
<svg version="1.1" id="Layer_1" xmlns="http://www.w3.org/2000/svg" xmlns:xlink="http://www.w3.org/1999/xlink" x="0px" y="0px"
	 viewBox="0 0 81.4 60" style="enable-background:new 0 0 81.4 60;" xml:space="preserve">
<style type="text/css">
	.st0{fill:#FFFFFF;}
</style>
<path class="st0" d="M9.4,16.5c0,1.5,0,4.1,0,6.9H2c0-0.9,0-4.4,0-6.9L9.4,16.5 M2,24.8c0,2.2,0,4.5,0,7h7.4c0-2.6,0-5,0-7H2z
	 M28.3,23.3H21v-6.9h7.4V23.3z M35.7,8.3H13.6v6.9h22.2C35.7,15.2,35.7,8.3,35.7,8.3z M21,31.8h7.4v-7H21V31.8z M47.2,23.3h-7.4
	v-6.9h7.4V23.3z M39.8,15.2h7.4V8.3h-7.4C39.8,8.3,39.8,15.2,39.8,15.2z M66.5,0l-2.8,6.9h15.8V0H66.5z M72.1,23.3h7.4v-6.9h-7.4
	V23.3z M51.3,15.2h7.6l-2.8-6.9h-7.6L51.3,15.2z M70.8,8.3h-7.6l-2.8,6.9H68L70.8,8.3z M39.8,31.8h7.4v-7h-7.4
	C39.8,24.8,39.8,31.8,39.8,31.8z M72.1,31.8h7.4v-7h-7.4V31.8z M72.1,15.2h7.4V8.3h-7.4V15.2z M52,16.5l2.8,6.9h9.9l2.8-6.9
	C67.4,16.5,52,16.5,52,16.5z M39.8,0v6.9h15.8L52.9,0H39.8z"/>
<path class="st0" d="M79.5,39.6H2V36h77.5C79.5,36,79.5,39.6,79.5,39.6z M3.6,53.4H2.4v5.3h1.2V53.4z M8.8,54.2H7.1v4.5H5.9v-4.5
	H4.2v-1.1h4.6V54.2z M9.2,55.4h2.4v0.9H9.2V55.4z M12.8,53.3h1.7l0.9,2.2h0.3l0.9-2.2h1.7v5.4h-1.1v-4.1H17l-0.9,2.2h-1.2L14,54.6
	h-0.3v4.1h-1.1v-5.4H12.8z M24,57.6v1.1h-4.2v-5.4h4.1v1.1H21v1.2h2.2v1.1H21v1.3h3V57.6z M29.9,53.3v5.4h-1.2v-2.2h-2.4v2.2h-1.2
	v-5.4h1.2v2.1h2.4v-2.1H29.9z M35.6,57.6v1.1h-4.1v-5.4h4.1v1.1h-2.9v1.2h2.2v1.1h-2.2v1.3h2.9V57.6z M40.2,54.2h-1.7v0.5
	c0,1.5-0.3,2.4-0.5,2.9h2.2C40.2,57.6,40.2,54.2,40.2,54.2z M42.1,57.6V60H41v-1.3h-3.6V60h-1.1v-2.4h0.5c0.4-0.7,0.7-1.7,0.7-3.3
	v-1.2h3.8v4.5H42.1z M47.2,56.4v2.2h-1.1v-2.2H45L44,58.7h-1.2l1.2-2.8L43,53.3h1.2l0.9,2.1h1.2v-2.1h1.1v2.1h1.2l0.9-2.1h1.2
	l-1.1,2.6l1.2,2.8h-1.2l-0.9-2.2H47.2z M51.7,53.3h1.7l0.9,2.2h0.3l0.9-2.2h1.7v5.4h-1.1v-4.1h-0.3L55,56.8h-1.2l-0.9-2.2h-0.1v4.1
	h-1.1V53.3z M62.8,57.6v1.1h-4.1v-5.4h4.1v1.1h-2.9v1.2h2.2v1.1h-2.2v1.3h2.9V57.6z M68.7,53.3v5.4h-1.2v-2.2h-2.4v2.2H64v-5.4h1.2
	v2.1h2.4v-2.1H68.7z M74.2,54.2h-1.7v4.5h-1.2v-4.5h-1.7v-1.1h4.6V54.2z M76.2,56.2h1.6l-0.5-1.8h-0.4L76.2,56.2z M78.1,57.2H76
	l-0.4,1.5h-1.2l1.7-5.4h1.7l1.7,5.4h-1.2L78.1,57.2z M4.9,43.6h1.1v4.5h1.7v-4.5h1.1v5.4H1.8v-5.4h1.1v4.5h1.7v-4.5H4.9z M10.4,43.6
	h1.2v2.1h1.3l1.1-2.1h1.2L14,46.3l1.3,2.8h-1.2l-1.1-2.2h-1.3v2.2h-1.2v-5.4H10.4z M22,48c0.7,0,0.9-0.1,0.9-2v-2.4H27v5.4h-1.2
	v-4.4H24v1.5c0,2.5-0.7,3-2,3h-0.3v-1.1L22,48L22,48z M29.8,46.5h1.5l-0.5-1.8h-0.4L29.8,46.5z M31.6,47.6h-2.1l-0.4,1.5H28l1.7-5.4
	h1.7l1.7,5.4h-1.2L31.6,47.6z M19.9,46.4c0-1.1-0.5-1.8-1.5-1.8c-1.1,0-1.5,0.8-1.5,1.8c0,1.1,0.5,1.8,1.5,1.8
	C19.5,48.1,19.9,47.3,19.9,46.4 M21.1,46.4c0,1.6-0.9,2.8-2.6,2.8c-1.7,0-2.6-1.2-2.6-2.8c0-1.6,0.9-2.8,2.6-2.8
	C20.2,43.5,21.1,44.7,21.1,46.4"/>
</svg>
