<?xml version="1.0" encoding="utf-8"?>
<!-- Generator: Adobe Illustrator 24.0.1, SVG Export Plug-In . SVG Version: 6.00 Build 0)  -->
<svg version="1.1" id="Layer_1" xmlns="http://www.w3.org/2000/svg" xmlns:xlink="http://www.w3.org/1999/xlink" x="0px" y="0px"
	 viewBox="0 0 90 52.7" style="enable-background:new 0 0 90 52.7;" xml:space="preserve">
<style type="text/css">
	.st0{fill:#0E3179;}
</style>
<path class="st0" d="M25.8,18.5c0,1.1,0,3.1,0,5.2l-5.6,0c0-0.7,0-3.3,0-5.2H25.8 M20.2,24.7c0,1.6,0,3.4,0,5.2h5.6c0-2,0-3.7,0-5.2
	L20.2,24.7z M40,23.7h-5.5v-5.2H40V23.7z M45.6,12.3H28.9v5.1h16.6V12.3z M34.5,30H40v-5.3h-5.5V30z M54.2,23.7h-5.5v-5.2h5.5V23.7z
	 M48.7,17.5h5.5v-5.1h-5.5V17.5z M68.7,6.1l-2.1,5.1h11.9V6.1H68.7z M73,23.7h5.5v-5.2H73V23.7z M57.3,17.5h5.7L61,12.3h-5.7
	L57.3,17.5z M72,12.3h-5.7l-2.1,5.1h5.7L72,12.3z M48.7,30h5.5v-5.3h-5.5V30z M73,30h5.5v-5.3H73V30z M73,17.5h5.5v-5.1H73V17.5z
	 M57.8,18.5l2.1,5.2h7.5l2.1-5.2H57.8z M48.7,6.1v5.1h11.9l-2.1-5.1H48.7z"/>
<path class="st0" d="M78.5,35.8H20.2v-2.7h58.3V35.8z M21.4,46.3h-0.8v4h0.8V46.3z M25.3,46.9H24v3.4h-0.9v-3.4h-1.3v-0.8h3.4V46.9z
	 M25.7,47.8h1.8v0.7h-1.8V47.8z M28.3,46.1h1.3l0.7,1.7h0.2l0.7-1.7h1.3v4.1h-0.8v-3.1h-0.2l-0.7,1.7H30l-0.7-1.7h-0.2v3.1h-0.8
	V46.1z M36.7,49.5v0.8h-3.1v-4.1h3.1v0.8h-2.2v0.9h1.7v0.7h-1.7v1H36.7z M41.2,46.1v4.1h-0.9v-1.7h-1.8v1.7h-0.9v-4.1h0.9v1.6h1.8
	v-1.6H41.2z M45.4,49.5v0.8h-3.1v-4.1h3.1v0.8h-2.2v0.9h1.7v0.7h-1.7v1H45.4z M48.9,46.9h-1.2v0.4c0,1-0.2,1.8-0.4,2.2h1.7V46.9z
	 M50.4,49.5v1.8h-0.8v-1h-2.7v1H46v-1.8h0.4c0.3-0.5,0.5-1.2,0.5-2.4v-0.9h2.9v3.3H50.4z M54.2,48.5v1.7h-0.8v-1.7h-0.9l-0.7,1.7
	h-0.9l0.9-2.1l-0.8-2h0.9l0.6,1.6h0.9v-1.6h0.8v1.6h0.9l0.6-1.6h0.9l-0.8,2l0.9,2.1h-0.9l-0.7-1.7H54.2z M57.6,46.1h1.3l0.7,1.7h0.2
	l0.7-1.7h1.3v4.1h-0.8v-3.1h-0.2l-0.7,1.7h-0.9l-0.7-1.7h-0.2v3.1h-0.8V46.1z M66,49.5v0.8h-3.1v-4.1h3.1v0.8h-2.2v0.9h1.7v0.7h-1.7
	v1H66z M70.4,46.1v4.1h-0.9v-1.7h-1.8v1.7h-0.9v-4.1h0.9v1.6h1.8v-1.6H70.4z M74.6,46.9h-1.3v3.4h-0.9v-3.4h-1.3v-0.8h3.4V46.9z
	 M76.1,48.4h1.1L76.8,47h-0.3L76.1,48.4z M77.4,49.1h-1.6l-0.3,1.1h-0.9l1.3-4.1h1.3l1.3,4.1h-0.9L77.4,49.1z M22.4,38.9h0.8v3.3
	h1.3v-3.3h0.8V43h-5.1v-4.1h0.8v3.3h1.3V38.9z M26.5,38.9h0.9v1.6h1l0.8-1.6H30l-0.9,2l1,2.1h-0.9l-0.8-1.7h-1V43h-0.9V38.9z
	 M35.3,42.2c0.5,0,0.6-0.1,0.6-1.5v-1.8h3V43h-0.9v-3.3h-1.3v1.1c0,1.9-0.5,2.2-1.5,2.2h-0.2v-0.8H35.3z M41.1,41.2h1.1l-0.4-1.4
	h-0.3L41.1,41.2z M42.5,41.9h-1.6L40.6,43h-0.9l1.3-4.1h1.3l1.3,4.1h-0.9L42.5,41.9z M33.7,41c0-0.8-0.4-1.4-1.1-1.4
	c-0.8,0-1.1,0.6-1.1,1.4c0,0.8,0.4,1.4,1.1,1.4C33.3,42.3,33.7,41.7,33.7,41 M34.6,41c0,1.2-0.7,2.1-2,2.1c-1.3,0-2-0.9-2-2.1
	c0-1.2,0.7-2.1,2-2.1C33.9,38.8,34.6,39.8,34.6,41"/>
</svg>
