<?xml version="1.0" encoding="utf-8"?>
<!-- Generator: Adobe Illustrator 24.0.1, SVG Export Plug-In . SVG Version: 6.00 Build 0)  -->
<svg version="1.1" id="Layer_1" xmlns="http://www.w3.org/2000/svg" xmlns:xlink="http://www.w3.org/1999/xlink" x="0px" y="0px"
	 viewBox="0 0 34.7 34.7" style="enable-background:new 0 0 34.7 34.7;" xml:space="preserve">
<style type="text/css">
	.st0{fill:none;stroke:url(#SVGID_1_);stroke-width:0.9902;stroke-miterlimit:10;}
	.st1{fill:#00ECF9;}
</style>
<linearGradient id="SVGID_1_" gradientUnits="userSpaceOnUse" x1="-0.4951" y1="17.3277" x2="35.1504" y2="17.3277">
	<stop  offset="0" style="stop-color:#09307B"/>
	<stop  offset="1" style="stop-color:#00ECF9"/>
</linearGradient>
<circle class="st0" cx="17.3" cy="17.3" r="17.3"/>
<g>
	<path class="st1" d="M28.9,16.5c0,5.9-4.8,10.7-10.7,10.7c-1.8,0-3.6-0.5-5.2-1.3l-5.9,1.9L9,22.1c-1-1.7-1.5-3.6-1.5-5.5
		c0-5.9,4.8-10.7,10.7-10.7S28.9,10.6,28.9,16.5z M27.1,16.5c0-4.9-4-8.9-8.9-8.9s-8.9,4-8.9,8.9c0,1.9,0.6,3.7,1.7,5.2l-1.1,3.3
		l3.4-1.1c1.4,1,3.2,1.5,4.9,1.5C23.1,25.4,27.1,21.4,27.1,16.5z M23.7,19.3c0,0.1,0,0.2,0,0.2c0,0.4-0.1,0.8-0.2,1.1
		c-0.3,0.8-1.6,1.3-2.5,1.3c-0.7,0-2.1-0.6-2.7-0.9c-2-0.9-3.3-2.5-4.5-4.3c-0.5-0.8-1-1.8-1-2.8v-0.1c0-0.9,0.4-1.6,1.1-2.2
		c0.2-0.2,0.4-0.3,0.7-0.3c0.2,0,0.3,0,0.5,0c0.4,0,0.5,0.1,0.6,0.5c0.1,0.2,0.8,2.2,0.8,2.3c0,0.5-1,1.1-1,1.5c0,0.1,0,0.1,0.1,0.2
		c0.3,0.7,0.9,1.4,1.4,1.9c0.7,0.6,1.3,1,2.1,1.4c0.1,0.1,0.2,0.1,0.3,0.1c0.4,0,1.1-1.4,1.5-1.4C21.3,17.9,23.6,19.1,23.7,19.3z"/>
</g>
</svg>
