<?xml version="1.0" encoding="utf-8"?>
<!-- Generator: Adobe Illustrator 24.0.1, SVG Export Plug-In . SVG Version: 6.00 Build 0)  -->
<svg version="1.1" id="Layer_1" xmlns="http://www.w3.org/2000/svg" xmlns:xlink="http://www.w3.org/1999/xlink" x="0px" y="0px"
	 viewBox="0 0 801.9 1277.3" style="enable-background:new 0 0 801.9 1277.3;" xml:space="preserve">
<style type="text/css">
	.st0{opacity:0.15;clip-path:url(#SVGID_2_);}
	.st1{fill:#999999;}
	.st2{fill:#CCCCCC;}
	.st3{fill:#666666;}
</style>
<g>
	<defs>
		<rect id="SVGID_1_" width="801.9" height="1277.3"/>
	</defs>
	<clipPath id="SVGID_2_">
		<use xlink:href="#SVGID_1_"  style="overflow:visible;"/>
	</clipPath>
	<g class="st0">
		<path class="st1" d="M144.4,808.2c-314.9,0-472.6-227.7-483.6-387.9c-5.9-86.1,41.9-155.4,117.2-214.2c6.2-5.3,1.2-13.4-5-9.3
			C-350,261-422.3,378.2-425.5,529.6c-4.6,219.9,150.9,376,352.4,372.8c138.3-2.3,238.3-39.9,306.1-100.5
			C204.2,805.9,174.7,808.2,144.4,808.2z"/>
		<path class="st2" d="M-142.4,896.3C-265.5,874.6-363.6,791-404.7,670.1l-70.8,66.6c0,0,151,129.8,319.8,158.3
			C-150.9,895.8-146.8,895.8-142.4,896.3z"/>
		<path class="st3" d="M-142.4,896.3C-142.4,896.3-142.4,896.3-142.4,896.3c-4.4-0.4-8.4-0.4-13.2-1.2
			c-168.8-28.5-319.8-158.3-319.8-158.3c94.6,163.5,236.1,288.8,410.1,288.8c150.8,0,265.2-101.1,298.3-223.6
			c-67.8,60.6-167.7,98.2-306.1,100.5C-97,902.8-120,900.2-142.4,896.3z"/>
		<path class="st1" d="M332.8,657.5c0,314.9-227.7,472.6-387.9,483.6c-86.1,5.9-155.4-41.9-214.2-117.2c-5.3-6.2-13.4-1.2-9.3,5
			c64.2,122.9,181.3,195.2,332.8,198.4c219.9,4.6,376-150.9,372.8-352.4C424.7,736.7,387,636.8,326.5,569
			C330.4,597.7,332.8,627.2,332.8,657.5z"/>
		<path class="st2" d="M420.8,944.3c-21.6,123.1-105.3,221.2-226.1,262.3l66.6,70.8c0,0,129.8-151,158.3-319.8
			C420.4,952.8,420.4,948.7,420.8,944.3z"/>
		<path class="st3" d="M420.8,944.3C420.8,944.3,420.8,944.3,420.8,944.3c-0.4,4.4-0.4,8.4-1.2,13.2
			c-28.5,168.8-158.3,319.8-158.3,319.8c163.5-94.6,288.8-236.1,288.8-410.1C550.1,716.4,449,602,326.5,569
			C387,636.8,424.7,736.7,427,875C427.3,898.9,424.8,921.9,420.8,944.3z"/>
		<path class="st1" d="M182.1,469.1c314.9,0,472.6,227.7,483.6,387.9c5.9,86.1-41.9,155.4-117.2,214.2c-6.2,5.3-1.2,13.4,5,9.3
			c122.9-64.2,195.2-181.3,198.4-332.8c4.6-219.9-150.9-376-352.4-372.8c-138.3,2.3-238.3,39.9-306.1,100.5
			C122.2,471.5,151.8,469.1,182.1,469.1z"/>
		<path class="st2" d="M468.9,381.1C592,402.7,690.1,486.4,731.1,607.2l70.8-66.6c0,0-151-129.8-319.8-158.3
			C477.3,381.5,473.3,381.5,468.9,381.1z"/>
		<path class="st3" d="M468.9,381.1C468.9,381.1,468.9,381.1,468.9,381.1c4.4,0.4,8.4,0.4,13.2,1.2
			c168.8,28.5,319.8,158.3,319.8,158.3C707.3,377,565.8,251.8,391.8,251.8c-150.8,0-265.2,101.1-298.3,223.6
			c67.8-60.6,167.7-98.2,306.1-100.5C423.5,374.6,446.5,377.1,468.9,381.1z"/>
		<path class="st1" d="M-6.3,619.8c0-314.9,227.7-472.6,387.9-483.6c86.1-5.9,155.4,41.9,214.2,117.2c5.3,6.2,13.4,1.2,9.3-5
			C540.9,125.5,423.7,53.1,272.3,49.9c-219.9-4.6-376,150.9-372.8,352.4C-98.2,540.6-60.6,640.6,0,708.4
			C-4,679.7-6.3,650.1-6.3,619.8z"/>
		<path class="st2" d="M-94.4,333C-72.7,209.9,10.9,111.8,131.8,70.8L65.1,0c0,0-129.8,151-158.3,319.8
			C-93.9,324.6-93.9,328.6-94.4,333z"/>
		<path class="st3" d="M-94.4,333C-94.4,333-94.4,333-94.4,333c0.4-4.4,0.4-8.4,1.2-13.2C-64.6,151,65.1,0,65.1,0
			C-98.4,94.6-223.6,236.1-223.6,410.1c0,150.8,101.1,265.2,223.6,298.3c-60.6-67.8-98.2-167.7-100.5-306.1
			C-100.9,378.4-98.3,355.4-94.4,333z"/>
	</g>
</g>
</svg>
