<?xml version="1.0" encoding="utf-8"?>
<!-- Generator: Adobe Illustrator 24.0.1, SVG Export Plug-In . SVG Version: 6.00 Build 0)  -->
<svg version="1.1" id="Layer_1" xmlns="http://www.w3.org/2000/svg" xmlns:xlink="http://www.w3.org/1999/xlink" x="0px" y="0px"
	 viewBox="0 0 801.9 1277.3" style="enable-background:new 0 0 801.9 1277.3;" xml:space="preserve">
<style type="text/css">
	.st0{opacity:0.15;clip-path:url(#SVGID_2_);}
	.st1{fill:#999999;}
	.st2{fill:#CCCCCC;}
	.st3{fill:#666666;}
</style>
<g>
	<defs>
		<rect id="SVGID_1_" width="801.9" height="1277.3"/>
	</defs>
	<clipPath id="SVGID_2_">
		<use xlink:href="#SVGID_1_"  style="overflow:visible;"/>
	</clipPath>
	<g class="st0">
		<path class="st1" d="M619.8,808.2c-314.9,0-472.6-227.7-483.6-387.9C130.2,334.2,178,265,253.4,206.1c6.2-5.3,1.2-13.4-5-9.3
			C125.5,261,53.1,378.2,49.9,529.6c-4.6,219.9,150.9,376,352.4,372.8c138.3-2.3,238.3-39.9,306.1-100.5
			C679.7,805.9,650.1,808.2,619.8,808.2z"/>
		<path class="st2" d="M333,896.3C209.9,874.6,111.8,791,70.8,670.1L0,736.8c0,0,151,129.8,319.8,158.3
			C324.6,895.8,328.6,895.8,333,896.3z"/>
		<path class="st3" d="M333,896.3C333,896.3,333,896.3,333,896.3c-4.4-0.4-8.4-0.4-13.2-1.2C151,866.5,0,736.8,0,736.8
			c94.6,163.5,236.1,288.8,410.1,288.8c150.8,0,265.2-101.1,298.3-223.6c-67.8,60.6-167.7,98.2-306.1,100.5
			C378.4,902.8,355.4,900.2,333,896.3z"/>
		<path class="st1" d="M808.2,657.5c0,314.9-227.7,472.6-387.9,483.6c-86.1,5.9-155.4-41.9-214.2-117.2c-5.3-6.2-13.4-1.2-9.3,5
			c64.2,122.9,181.3,195.2,332.8,198.4c219.9,4.6,376-150.9,372.8-352.4c-2.3-138.3-39.9-238.3-100.5-306.1
			C805.9,597.7,808.2,627.2,808.2,657.5z"/>
		<path class="st2" d="M896.3,944.3c-21.6,123.1-105.3,221.2-226.1,262.3l66.6,70.8c0,0,129.8-151,158.3-319.8
			C895.8,952.8,895.8,948.7,896.3,944.3z"/>
		<path class="st3" d="M896.3,944.3C896.3,944.3,896.3,944.3,896.3,944.3c-0.4,4.4-0.4,8.4-1.2,13.2
			c-28.5,168.8-158.3,319.8-158.3,319.8c163.5-94.6,288.8-236.1,288.8-410.1c0-150.8-101.1-265.2-223.6-298.3
			c60.6,67.8,98.2,167.7,100.5,306.1C902.8,898.9,900.2,921.9,896.3,944.3z"/>
		<path class="st1" d="M657.5,469.1c314.9,0,472.6,227.7,483.6,387.9c5.9,86.1-41.9,155.4-117.2,214.2c-6.2,5.3-1.2,13.4,5,9.3
			c122.9-64.2,195.2-181.3,198.4-332.8c4.6-219.9-150.9-376-352.4-372.8c-138.3,2.3-238.3,39.9-306.1,100.5
			C597.7,471.5,627.2,469.1,657.5,469.1z"/>
		<path class="st2" d="M944.3,381.1c123.1,21.6,221.2,105.3,262.3,226.1l70.8-66.6c0,0-151-129.8-319.8-158.3
			C952.8,381.5,948.7,381.5,944.3,381.1z"/>
		<path class="st3" d="M944.3,381.1C944.3,381.1,944.3,381.1,944.3,381.1c4.4,0.4,8.4,0.4,13.2,1.2
			c168.8,28.5,319.8,158.3,319.8,158.3c-94.6-163.5-236.1-288.8-410.1-288.8C716.4,251.8,602,352.9,569,475.4
			c67.8-60.6,167.7-98.2,306.1-100.5C898.9,374.6,921.9,377.1,944.3,381.1z"/>
		<path class="st1" d="M469.1,619.8c0-314.9,227.7-472.6,387.9-483.6c86.1-5.9,155.4,41.9,214.2,117.2c5.3,6.2,13.4,1.2,9.3-5
			C1016.3,125.5,899.2,53.1,747.7,49.9c-219.9-4.6-376,150.9-372.8,352.4c2.3,138.3,39.9,238.3,100.5,306.1
			C471.5,679.7,469.1,650.1,469.1,619.8z"/>
		<path class="st2" d="M381.1,333c21.6-123.1,105.3-221.2,226.1-262.3L540.6,0c0,0-129.8,151-158.3,319.8
			C381.5,324.6,381.5,328.6,381.1,333z"/>
		<path class="st3" d="M381.1,333C381.1,333,381.1,333,381.1,333c0.4-4.4,0.4-8.4,1.2-13.2C410.8,151,540.6,0,540.6,0
			C377,94.6,251.8,236.1,251.8,410.1c0,150.8,101.1,265.2,223.6,298.3c-60.6-67.8-98.2-167.7-100.5-306.1
			C374.6,378.4,377.1,355.4,381.1,333z"/>
	</g>
</g>
</svg>
