<?xml version="1.0" encoding="utf-8"?>
<!-- Generator: Adobe Illustrator 24.0.1, SVG Export Plug-In . SVG Version: 6.00 Build 0)  -->
<svg version="1.1" id="Layer_1" xmlns="http://www.w3.org/2000/svg" xmlns:xlink="http://www.w3.org/1999/xlink" x="0px" y="0px"
	 viewBox="0 0 300 300" style="enable-background:new 0 0 300 300;" xml:space="preserve">
<style type="text/css">
	.st0{opacity:0.3;}
	.st1{fill:none;stroke:#000000;stroke-width:7.2;stroke-miterlimit:10;}
	.st2{fill:url(#SVGID_1_);}
	.st3{fill:none;stroke:url(#SVGID_2_);stroke-width:7.2;stroke-miterlimit:10;}
	.st4{fill:url(#SVGID_3_);}
	.st5{fill:#001866;}
	.st6{fill:url(#SVGID_4_);}
	.st7{fill:#55C8FF;}
	.st8{fill:#001359;}
	.st9{fill:url(#SVGID_5_);}
	.st10{fill:url(#SVGID_6_);}
	.st11{opacity:0.75;fill:url(#SVGID_7_);enable-background:new    ;}
	.st12{fill:#FFFFFF;}
	.st13{opacity:0.75;fill:url(#SVGID_8_);enable-background:new    ;}
	.st14{opacity:0.15;enable-background:new    ;}
	.st15{fill:url(#SVGID_9_);}
	.st16{fill:url(#SVGID_10_);}
	.st17{fill:url(#SVGID_11_);}
	.st18{fill:url(#SVGID_12_);}
	.st19{fill:url(#SVGID_13_);}
	.st20{fill:#E6E6E6;}
	.st21{opacity:0.1;enable-background:new    ;}
	.st22{fill:url(#SVGID_14_);}
	.st23{fill:#0081D4;}
	.st24{fill:#00A1FD;}
	.st25{fill:#56DCFE;}
	.st26{fill:#0068AB;}
	.st27{fill:url(#SVGID_15_);}
	.st28{opacity:0.2;enable-background:new    ;}
	.st29{fill:#B3B3B3;}
	.st30{fill:#C53535;}
	.st31{opacity:0.8;}
	.st32{fill:#497EE0;}
	.st33{fill:#FF0000;}
	.st34{fill:#36D7B7;}
	.st35{fill:#19B5FE;}
	.st36{fill:#F7CA18;}
	.st37{fill:#6C7A89;}
	.st38{fill:#1BBC9B;}
	.st39{fill:#3A539B;}
	.st40{fill:#9A12B3;}
	.st41{fill:#D2527F;}
	.st42{fill:#3CAF99;}
	.st43{fill:#336E7B;}
	.st44{fill:#F2784B;}
	.st45{fill:#CF000F;}
	.st46{fill:#9B59B6;}
	.st47{fill:#03A678;}
	.st48{fill:#F9BF3B;}
	.st49{fill:#95A5A6;}
	.st50{fill:#2574A9;}
	.st51{fill:#6BB9F0;}
	.st52{fill:#E74C3C;}
	.st53{opacity:0.75;fill:url(#SVGID_16_);enable-background:new    ;}
	.st54{fill:#808080;}
	.st55{opacity:0.75;fill:url(#SVGID_17_);enable-background:new    ;}
	.st56{fill:url(#SVGID_18_);}
	.st57{fill:url(#SVGID_19_);}
	.st58{fill:url(#SVGID_20_);}
	.st59{fill:url(#SVGID_21_);}
	.st60{fill:url(#SVGID_22_);}
	.st61{fill:#F1F2F2;}
	.st62{fill:#E6E7E8;}
	.st63{fill:#BCBEC0;}
	.st64{fill:#231F20;}
	.st65{fill:#22313F;}
	.st66{fill:url(#SVGID_23_);}
	.st67{fill:url(#SVGID_24_);}
	.st68{fill:url(#SVGID_25_);}
	.st69{fill:url(#SVGID_26_);}
	.st70{fill:url(#SVGID_27_);}
	.st71{fill:url(#SVGID_28_);}
	.st72{fill:url(#SVGID_29_);}
	.st73{fill:url(#SVGID_30_);}
	.st74{fill:url(#SVGID_31_);}
	.st75{fill:url(#SVGID_32_);}
	.st76{fill:url(#SVGID_33_);}
	.st77{fill:url(#SVGID_34_);}
	.st78{fill:url(#SVGID_35_);}
	.st79{fill:#000405;}
	.st80{fill:url(#SVGID_36_);}
	.st81{fill:url(#SVGID_37_);}
	.st82{fill:url(#SVGID_38_);}
</style>
<g>
	<g class="st0">
		<circle cx="154.9" cy="155.5" r="111.7"/>
		<circle class="st1" cx="154.9" cy="155.5" r="111.7"/>
	</g>
	<g>
		
			<linearGradient id="SVGID_1_" gradientUnits="userSpaceOnUse" x1="38.2" y1="452.5311" x2="261.6" y2="452.5311" gradientTransform="matrix(1 0 0 1 0 -301.9999)">
			<stop  offset="0" style="stop-color:#FFFFFF"/>
			<stop  offset="1" style="stop-color:#FFFFFF"/>
		</linearGradient>
		<circle class="st2" cx="149.9" cy="150.5" r="111.7"/>
		
			<linearGradient id="SVGID_2_" gradientUnits="userSpaceOnUse" x1="34.6" y1="452.5311" x2="265.2" y2="452.5311" gradientTransform="matrix(1 0 0 1 0 -301.9999)">
			<stop  offset="0" style="stop-color:#00ECF9"/>
			<stop  offset="1" style="stop-color:#FFFFFF"/>
		</linearGradient>
		<circle class="st3" cx="149.9" cy="150.5" r="111.7"/>
	</g>
</g>
<g>
	<g>
		<g>
			<g>
				
					<linearGradient id="SVGID_3_" gradientUnits="userSpaceOnUse" x1="2788.4648" y1="437.9973" x2="3060.9863" y2="437.9973" gradientTransform="matrix(-1 0 0 1 3021.7007 -301.9999)">
					<stop  offset="0" style="stop-color:#01064A"/>
					<stop  offset="0.1594" style="stop-color:#030A4D"/>
					<stop  offset="0.304" style="stop-color:#071558"/>
					<stop  offset="0.443" style="stop-color:#0F2769"/>
					<stop  offset="0.5785" style="stop-color:#1B4181"/>
					<stop  offset="0.7115" style="stop-color:#2963A0"/>
					<stop  offset="0.8426" style="stop-color:#3B8CC7"/>
					<stop  offset="0.9699" style="stop-color:#50BCF3"/>
					<stop  offset="1" style="stop-color:#55C8FF"/>
				</linearGradient>
				<path class="st4" d="M228.8,80.2L114.1,14.5c-2.1-1.2-4.7-1.7-7-1.2c-3.2,0.7-6.3,1.8-6.3,4.6l-0.2,106.5l10.1,6
					C107.4,132,6.8,181,6.6,181.1l-0.2,4.1c0,1.8,0.9,3.4,2.5,4.3c17.1,9.9,117.5,67.9,117.5,67.9c3.3,1.9,7.4,1.9,10.7,0l95.3-55.1
					c1-0.6,1.6-1.6,1.6-2.8l0.2-110.1C234.1,85.6,232.1,82,228.8,80.2z"/>
				<g>
					<polygon class="st5" points="105.6,21.3 105.6,121.2 225.1,189.8 224.8,89.7 					"/>
					
						<linearGradient id="SVGID_4_" gradientUnits="userSpaceOnUse" x1="194.5477" y1="367.0422" x2="136.7365" y2="447.3089" gradientTransform="matrix(1 0 0 1 0 -301.9999)">
						<stop  offset="0" style="stop-color:#429CD6"/>
						<stop  offset="0.3042" style="stop-color:#2D6BA8"/>
						<stop  offset="0.7791" style="stop-color:#0D2265"/>
						<stop  offset="1" style="stop-color:#01064A"/>
					</linearGradient>
					<polygon class="st6" points="105.6,21.3 105.6,121.2 225.1,189.8 224.8,89.7 					"/>
				</g>
				<g>
					<path class="st7" d="M230.7,199.1l-130.2-75l-92,53.2c-2.7,1.5-2.7,5.4,0,6.9l119.8,69.2c2.6,1.5,5.8,1.5,8.4,0L230.7,199.1z"
						/>
				</g>
				<g>
					<g>
						<path class="st8" d="M194.7,201.5c2.6,1.5,3.9,2.2,6.5,3.7c2.6-1.5,3.9-2.2,6.6-3.7c-2.6-1.5-3.9-2.2-6.5-3.7
							C198.6,199.2,197.3,200,194.7,201.5z"/>
						<path class="st8" d="M185.1,196c2.6,1.5,3.9,2.2,6.5,3.7c2.6-1.5,3.9-2.2,6.6-3.7c-2.6-1.5-3.9-2.2-6.5-3.7
							C189,193.7,187.7,194.5,185.1,196z"/>
						<path class="st8" d="M175.5,190.5c2.6,1.5,3.9,2.2,6.5,3.7c2.6-1.5,3.9-2.2,6.6-3.7c-2.6-1.5-3.9-2.2-6.5-3.7
							C179.5,188.3,178.1,189,175.5,190.5z"/>
						<path class="st8" d="M166,185c2.6,1.5,3.9,2.2,6.5,3.7c2.6-1.5,3.9-2.2,6.6-3.7c-2.6-1.5-3.9-2.2-6.5-3.7
							C169.9,182.8,168.6,183.5,166,185z"/>
						<path class="st8" d="M156.4,179.5c2.6,1.5,3.9,2.2,6.5,3.7c2.6-1.5,3.9-2.2,6.6-3.7c-2.6-1.5-3.9-2.2-6.5-3.7
							C160.3,177.3,159,178,156.4,179.5z"/>
						<path class="st8" d="M146.8,174c2.6,1.5,3.9,2.2,6.5,3.7c2.6-1.5,3.9-2.2,6.6-3.7c-2.6-1.5-3.9-2.2-6.5-3.7
							C150.8,171.8,149.5,172.5,146.8,174z"/>
						<path class="st8" d="M137.3,168.5c2.6,1.5,3.9,2.2,6.5,3.7c2.6-1.5,3.9-2.2,6.6-3.7c-2.6-1.5-3.9-2.2-6.5-3.7
							C141.2,166.3,139.9,167,137.3,168.5z"/>
						<path class="st8" d="M127.7,163c2.6,1.5,3.9,2.2,6.5,3.7c2.6-1.5,3.9-2.2,6.6-3.7c-2.6-1.5-3.9-2.2-6.5-3.7
							C131.6,160.8,130.3,161.5,127.7,163z"/>
						<path class="st8" d="M118.1,157.5c2.6,1.5,3.9,2.2,6.5,3.7c2.6-1.5,3.9-2.2,6.6-3.7c-2.6-1.5-3.9-2.2-6.5-3.7
							C122.1,155.3,120.8,156,118.1,157.5z"/>
						<path class="st8" d="M108.6,152c2.6,1.5,3.9,2.2,6.5,3.7c2.6-1.5,3.9-2.2,6.6-3.7c-2.6-1.5-3.9-2.2-6.5-3.7
							C112.5,149.8,111.2,150.5,108.6,152z"/>
						<path class="st8" d="M99,146.5c2.6,1.5,3.9,2.2,6.5,3.7c2.6-1.5,3.9-2.2,6.6-3.7c-2.6-1.5-3.9-2.2-6.5-3.7
							C102.9,144.3,101.6,145.1,99,146.5z"/>
						<path class="st8" d="M89.4,141c2.6,1.5,3.9,2.2,6.5,3.7c2.6-1.5,3.9-2.2,6.6-3.7c-2.6-1.5-3.9-2.2-6.5-3.7
							C93.4,138.8,92.1,139.6,89.4,141z"/>
						<path class="st8" d="M185.5,206.7c2.6,1.5,3.9,2.2,6.5,3.7c2.6-1.5,3.9-2.2,6.6-3.7c-2.6-1.5-3.9-2.2-6.5-3.7
							C189.4,204.4,188.1,205.2,185.5,206.7z"/>
						<path class="st8" d="M175.9,201.2c2.6,1.5,3.9,2.2,6.5,3.7c2.6-1.5,3.9-2.2,6.6-3.7c-2.6-1.5-3.9-2.2-6.5-3.7
							C179.8,198.9,178.5,199.7,175.9,201.2z"/>
						<path class="st8" d="M166.3,195.7c2.6,1.5,3.9,2.2,6.5,3.7c2.6-1.5,3.9-2.2,6.6-3.7c-2.6-1.5-3.9-2.2-6.5-3.7
							C170.3,193.4,169,194.2,166.3,195.7z"/>
						<path class="st8" d="M156.8,190.2c2.6,1.5,3.9,2.2,6.5,3.7c2.6-1.5,3.9-2.2,6.6-3.7c-2.6-1.5-3.9-2.2-6.5-3.7
							C160.7,188,159.4,188.7,156.8,190.2z"/>
						<path class="st8" d="M147.2,184.7c2.6,1.5,3.9,2.2,6.5,3.7c2.6-1.5,3.9-2.2,6.6-3.7c-2.6-1.5-3.9-2.2-6.5-3.7
							C151.1,182.5,149.8,183.2,147.2,184.7z"/>
						<path class="st8" d="M137.6,179.2c2.6,1.5,3.9,2.2,6.5,3.7c2.6-1.5,3.9-2.2,6.6-3.7c-2.6-1.5-3.9-2.2-6.5-3.7
							C141.6,177,140.3,177.7,137.6,179.2z"/>
						<path class="st8" d="M128.1,173.7c2.6,1.5,3.9,2.2,6.5,3.7c2.6-1.5,3.9-2.2,6.6-3.7c-2.6-1.5-3.9-2.2-6.5-3.7
							C132,171.5,130.7,172.2,128.1,173.7z"/>
						<path class="st8" d="M118.5,168.2c2.6,1.5,3.9,2.2,6.5,3.7c2.6-1.5,3.9-2.2,6.6-3.7c-2.6-1.5-3.9-2.2-6.5-3.7
							C122.4,166,121.1,166.7,118.5,168.2z"/>
						<path class="st8" d="M108.9,162.7c2.6,1.5,3.9,2.2,6.5,3.7c2.6-1.5,3.9-2.2,6.6-3.7c-2.6-1.5-3.9-2.2-6.5-3.7
							C112.9,160.5,111.6,161.2,108.9,162.7z"/>
						<path class="st8" d="M99.4,157.2c2.6,1.5,3.9,2.2,6.5,3.7c2.6-1.5,3.9-2.2,6.6-3.7c-2.6-1.5-3.9-2.2-6.5-3.7
							C103.3,155,102,155.7,99.4,157.2z"/>
						<path class="st8" d="M89.8,151.7c2.6,1.5,3.9,2.2,6.5,3.7c2.6-1.5,3.9-2.2,6.6-3.7c-2.6-1.5-3.9-2.2-6.5-3.7
							C93.7,149.5,92.4,150.2,89.8,151.7z"/>
						<path class="st8" d="M80.2,146.2c4.3,2.5,6.5,3.7,10.9,6.2c2.6-1.5,3.9-2.2,6.6-3.7c-4.3-2.5-6.5-3.7-10.9-6.2
							C84.2,144,82.9,144.8,80.2,146.2z"/>
						<path class="st8" d="M172,209.4c4.3,2.5,6.5,3.7,10.8,6.2c2.6-1.5,3.9-2.2,6.6-3.7c-4.3-2.5-6.5-3.7-10.8-6.2
							C175.9,207.2,174.6,207.9,172,209.4z"/>
						<path class="st8" d="M166.7,206.4c2.6,1.5,3.9,2.2,6.5,3.7c2.6-1.5,3.9-2.2,6.6-3.7c-2.6-1.5-3.9-2.2-6.5-3.7
							C170.6,204.1,169.3,204.9,166.7,206.4z"/>
						<path class="st8" d="M157.1,200.9c2.6,1.5,3.9,2.2,6.5,3.7c2.6-1.5,3.9-2.2,6.6-3.7c-2.6-1.5-3.9-2.2-6.5-3.7
							C161.1,198.6,159.8,199.4,157.1,200.9z"/>
						<path class="st8" d="M147.6,195.4c2.6,1.5,3.9,2.2,6.5,3.7c2.6-1.5,3.9-2.2,6.6-3.7c-2.6-1.5-3.9-2.2-6.5-3.7
							C151.5,193.2,150.2,193.9,147.6,195.4z"/>
						<path class="st8" d="M138,189.9c2.6,1.5,3.9,2.2,6.5,3.7c2.6-1.5,3.9-2.2,6.6-3.7c-2.6-1.5-3.9-2.2-6.5-3.7
							C141.9,187.7,140.6,188.4,138,189.9z"/>
						<path class="st8" d="M128.4,184.4c2.6,1.5,3.9,2.2,6.5,3.7c2.6-1.5,3.9-2.2,6.6-3.7c-2.6-1.5-3.9-2.2-6.5-3.7
							C132.4,182.2,131.1,182.9,128.4,184.4z"/>
						<path class="st8" d="M118.9,178.9c2.6,1.5,3.9,2.2,6.5,3.7c2.6-1.5,3.9-2.2,6.6-3.7c-2.6-1.5-3.9-2.2-6.5-3.7
							C122.8,176.7,121.5,177.4,118.9,178.9z"/>
						<path class="st8" d="M109.3,173.4c2.6,1.5,3.9,2.2,6.5,3.7c2.6-1.5,3.9-2.2,6.6-3.7c-2.6-1.5-3.9-2.2-6.5-3.7
							C113.2,171.2,111.9,171.9,109.3,173.4z"/>
						<path class="st8" d="M99.7,167.9c2.6,1.5,3.9,2.2,6.5,3.7c2.6-1.5,3.9-2.2,6.6-3.7c-2.6-1.5-3.9-2.2-6.5-3.7
							C103.7,165.7,102.4,166.4,99.7,167.9z"/>
						<path class="st8" d="M90.2,162.4c2.6,1.5,3.9,2.2,6.5,3.7c2.6-1.5,3.9-2.2,6.6-3.7c-2.6-1.5-3.9-2.2-6.5-3.7
							C94.1,160.2,92.8,160.9,90.2,162.4z"/>
						<path class="st8" d="M80.6,156.9c2.6,1.5,3.9,2.2,6.5,3.7c2.6-1.5,3.9-2.2,6.6-3.7c-2.6-1.5-3.9-2.2-6.5-3.7
							C84.5,154.7,83.2,155.4,80.6,156.9z"/>
						<path class="st8" d="M71.1,151.4c2.6,1.5,3.9,2.2,6.5,3.7c2.6-1.5,3.9-2.2,6.6-3.7c-2.6-1.5-3.9-2.2-6.5-3.7
							C75,149.2,73.7,150,71.1,151.4z"/>
						<path class="st8" d="M167.1,217.1c2.6,1.5,3.9,2.2,6.5,3.7c2.6-1.5,3.9-2.2,6.6-3.7c-2.6-1.5-3.9-2.2-6.5-3.7
							C171,214.8,169.7,215.6,167.1,217.1z"/>
						<path class="st8" d="M157.5,211.6c2.6,1.5,3.9,2.2,6.5,3.7c2.6-1.5,3.9-2.2,6.6-3.7c-2.6-1.5-3.9-2.2-6.5-3.7
							C161.4,209.3,160.1,210.1,157.5,211.6z"/>
						<path class="st8" d="M147.9,206.1c2.6,1.5,3.9,2.2,6.5,3.7c2.6-1.5,3.9-2.2,6.6-3.7c-2.6-1.5-3.9-2.2-6.5-3.7
							C151.9,203.8,150.6,204.6,147.9,206.1z"/>
						<path class="st8" d="M138.4,200.6c2.6,1.5,3.9,2.2,6.5,3.7c2.6-1.5,3.9-2.2,6.6-3.7c-2.6-1.5-3.9-2.2-6.5-3.7
							C142.3,198.4,141,199.1,138.4,200.6z"/>
						<path class="st8" d="M128.8,195.1c2.6,1.5,3.9,2.2,6.5,3.7c2.6-1.5,3.9-2.2,6.6-3.7c-2.6-1.5-3.9-2.2-6.5-3.7
							C132.7,192.9,131.4,193.6,128.8,195.1z"/>
						<path class="st8" d="M119.2,189.6c2.6,1.5,3.9,2.2,6.5,3.7c2.6-1.5,3.9-2.2,6.6-3.7c-2.6-1.5-3.9-2.2-6.5-3.7
							C123.2,187.4,121.9,188.1,119.2,189.6z"/>
						<path class="st8" d="M109.7,184.1c2.6,1.5,3.9,2.2,6.5,3.7c2.6-1.5,3.9-2.2,6.6-3.7c-2.6-1.5-3.9-2.2-6.5-3.7
							C113.6,181.9,112.3,182.6,109.7,184.1z"/>
						<path class="st8" d="M100.1,178.6c2.6,1.5,3.9,2.2,6.5,3.7c2.6-1.5,3.9-2.2,6.6-3.7c-2.6-1.5-3.9-2.2-6.5-3.7
							C104,176.4,102.7,177.1,100.1,178.6z"/>
						<path class="st8" d="M90.6,173.1c2.6,1.5,3.9,2.2,6.5,3.7c2.6-1.5,3.9-2.2,6.6-3.7c-2.6-1.5-3.9-2.2-6.5-3.7
							C94.5,170.9,93.2,171.6,90.6,173.1z"/>
						<path class="st8" d="M81,167.6c2.6,1.5,3.9,2.2,6.5,3.7c2.6-1.5,3.9-2.2,6.6-3.7c-2.6-1.5-3.9-2.2-6.5-3.7
							C84.9,165.4,83.6,166.1,81,167.6z"/>
						<path class="st8" d="M67.3,159.8c4.2,2.4,6.4,3.7,10.6,6.1c2.6-1.5,3.9-2.2,6.6-3.7c-4.2-2.4-6.4-3.7-10.6-6.1
							C71.2,157.5,69.9,158.3,67.3,159.8z"/>
						<path class="st8" d="M61.9,156.6c2.6,1.5,3.9,2.2,6.5,3.7c2.6-1.5,3.9-2.2,6.6-3.7c-2.6-1.5-3.9-2.2-6.5-3.7
							C65.8,154.4,64.5,155.2,61.9,156.6z"/>
						<path class="st8" d="M156.6,223c2.6,1.5,3.9,2.2,6.5,3.7c2.6-1.5,3.9-2.2,6.6-3.7c-2.6-1.5-3.9-2.2-6.5-3.7
							C160.5,220.7,159.2,221.5,156.6,223z"/>
						<path class="st8" d="M147,217.5c2.6,1.5,3.9,2.2,6.5,3.7c2.6-1.5,3.9-2.2,6.6-3.7c-2.6-1.5-3.9-2.2-6.5-3.7
							C151,215.3,149.7,216,147,217.5z"/>
						<path class="st8" d="M137.5,212c2.6,1.5,3.9,2.2,6.5,3.7c2.6-1.5,3.9-2.2,6.6-3.7c-2.6-1.5-3.9-2.2-6.5-3.7
							C141.4,209.8,140.1,210.5,137.5,212z"/>
						<path class="st8" d="M80.1,179c18.1,10.4,36.2,20.8,54.3,31.2c2.6-1.5,3.9-2.2,6.6-3.7c-18.1-10.4-36.2-20.8-54.3-31.2
							C84,176.8,82.7,177.5,80.1,179z"/>
						<path class="st8" d="M70.5,173.5c2.6,1.5,3.9,2.2,6.5,3.7c2.6-1.5,3.9-2.2,6.6-3.7c-2.6-1.5-3.9-2.2-6.5-3.7
							C74.5,171.3,73.1,172.1,70.5,173.5z"/>
						<path class="st8" d="M61,168c2.6,1.5,3.9,2.2,6.5,3.7c2.6-1.5,3.9-2.2,6.6-3.7c-2.6-1.5-3.9-2.2-6.5-3.7
							C64.9,165.8,63.6,166.6,61,168z"/>
						<path class="st8" d="M51.4,162.6c2.6,1.5,3.9,2.2,6.5,3.7c2.6-1.5,3.9-2.2,6.6-3.7c-2.6-1.5-3.9-2.2-6.5-3.7
							C55.3,160.3,54,161.1,51.4,162.6z"/>
					</g>
				</g>
				
					<linearGradient id="SVGID_5_" gradientUnits="userSpaceOnUse" x1="2922.4099" y1="495.5234" x2="2944.2913" y2="527.2867" gradientTransform="matrix(-1 0 0 1 3021.7007 -301.9999)">
					<stop  offset="0" style="stop-color:#55C8FF"/>
					<stop  offset="7.374626e-02" style="stop-color:#4CB4EC"/>
					<stop  offset="0.3176" style="stop-color:#3277B3"/>
					<stop  offset="0.5409" style="stop-color:#1D4686"/>
					<stop  offset="0.7361" style="stop-color:#0E2365"/>
					<stop  offset="0.8958" style="stop-color:#040E51"/>
					<stop  offset="1" style="stop-color:#01064A"/>
				</linearGradient>
				<polygon class="st9" points="124.5,212.9 79.8,187.1 54.3,202.8 98.9,228.6 				"/>
				
					<linearGradient id="SVGID_6_" gradientUnits="userSpaceOnUse" x1="183.7896" y1="362.064" x2="148.9117" y2="454.2755" gradientTransform="matrix(1 0 0 1 0 -301.9999)">
					<stop  offset="0" style="stop-color:#55C8FF"/>
					<stop  offset="0.4452" style="stop-color:#2D6BA9"/>
					<stop  offset="0.825" style="stop-color:#0D2265"/>
					<stop  offset="1" style="stop-color:#01064A"/>
				</linearGradient>
				<path class="st10" d="M230.6,91.2c0-3-1.6-5.8-4.2-7.3L106.2,15.1c-2.7-1.5-6,0.4-6,3.5l0.3,106.3l130.2,74.3L230.6,91.2z
					 M105.6,121.2V21.3l119.2,68.4l0.2,100.1L105.6,121.2z"/>
			</g>
		</g>
	</g>
	<g>
		
			<linearGradient id="SVGID_7_" gradientUnits="userSpaceOnUse" x1="221.4886" y1="443.3786" x2="253.0102" y2="484.7507" gradientTransform="matrix(1 0 0 1 0 -301.9999)">
			<stop  offset="0" style="stop-color:#0074E8"/>
			<stop  offset="1" style="stop-color:#00FFEA"/>
		</linearGradient>
		<path class="st11" d="M220.3,161.3c0,2,1.4,4.4,3,5.3l28,16.2c1.7,1,3,0.2,3-1.8v-18.1c0-2-1.4-4.4-3-5.3l-28-16.2
			c-1.7-1-3-0.2-3,1.8V161.3z"/>
		<g>
			<polygon class="st12" points="241.8,171.8 239.6,170.5 233.2,152.7 235.4,153.9 			"/>
			<polygon class="st12" points="226,156 226.1,156 229.5,152.3 231.9,153.6 228.4,157.4 231.9,164.8 229.5,163.5 226.1,156 
				226,156 226.1,156 			"/>
			<polygon class="st12" points="248.6,169 248.5,169 245.1,161.3 243,160 246.4,167.8 243,171.2 245.1,172.5 248.5,169 248.6,169 
				248.5,169 			"/>
		</g>
	</g>
	<g>
		
			<linearGradient id="SVGID_8_" gradientUnits="userSpaceOnUse" x1="216.0934" y1="408.0714" x2="256.5466" y2="450.7029" gradientTransform="matrix(1 0 0 1 0 -301.9999)">
			<stop  offset="0" style="stop-color:#0074E8"/>
			<stop  offset="1" style="stop-color:#00FFEA"/>
		</linearGradient>
		<path class="st13" d="M217.7,125.8c0,2.1,1.4,4.6,3.2,5.6l29.5,17.1c1.8,1,3.2,0.2,3.2-1.9v-19.1c0-2.1-1.4-4.6-3.2-5.6
			l-29.5-17.1c-1.8-1-3.2-0.2-3.2,1.9V125.8z"/>
		<g>
			<path class="st12" d="M243.7,129.7v-3.3c0-0.5-0.1-0.9-0.3-1.2c-0.2-0.3-0.6-0.7-1.1-1v-1.3l0.5,0.3c0.8,0.5,1.4,1,1.7,1.5
				s0.5,1.2,0.5,2v3.8c0,0.4,0.1,0.7,0.2,0.9c0.1,0.2,0.3,0.4,0.5,0.5l0.4,0.3v1.4l-0.4-0.3c-0.2-0.1-0.4-0.2-0.5-0.1
				c-0.1,0.1-0.2,0.3-0.2,0.7v3.8c0,0.8-0.2,1.2-0.5,1.4c-0.3,0.1-0.9,0-1.7-0.5l-0.5-0.3V137c0.5,0.3,0.9,0.4,1.1,0.4
				c0.2-0.1,0.3-0.3,0.3-0.8v-3.3c0-0.3,0-0.5,0.1-0.7c0.1-0.1,0.1-0.2,0.2-0.3c0.1,0,0.3-0.1,0.5-0.1c0.1,0,0.2,0,0.3-0.1l-0.3-0.5
				c-0.3-0.4-0.5-0.7-0.6-1C243.8,130.5,243.7,130.1,243.7,129.7z"/>
			<path class="st12" d="M225.7,120.4c0.2,0.1,0.4,0.2,0.5,0.1s0.2-0.3,0.2-0.7V116c0-0.8,0.2-1.2,0.5-1.4c0.3-0.1,0.9,0,1.7,0.5
				l0.5,0.3v1.3c-0.5-0.3-0.9-0.4-1.1-0.4c-0.2,0.1-0.3,0.3-0.3,0.8v3.3c0,0.4-0.1,0.7-0.2,0.8c-0.1,0.1-0.3,0.2-0.6,0.2l-0.3,0.1
				c0.1,0.2,0.2,0.3,0.3,0.5c0.2,0.3,0.4,0.5,0.5,0.7s0.2,0.4,0.2,0.6c0.1,0.2,0.1,0.5,0.1,0.8v3.2c0,0.5,0.1,0.9,0.3,1.2
				c0.2,0.3,0.6,0.7,1.1,1v1.3l-0.5-0.3c-0.8-0.5-1.4-1-1.7-1.5s-0.5-1.2-0.5-2v-3.8c0-0.4-0.1-0.7-0.2-0.9
				c-0.1-0.2-0.3-0.4-0.5-0.5l-0.4-0.3v-1.4L225.7,120.4z"/>
		</g>
	</g>
	<path class="st14" d="M252.1,270.6c1.4,0.8,2,2.2,0.3,3.2l-32.6,18.8c-1.6,0.9-4.1,1-5.5,0.2l-53.5-30.5c-1.4-0.8-1.2-2.2,0.4-3.2
		l32.6-18.8c1.6-0.9,4.1-1,5.5-0.2L252.1,270.6"/>
	<g>
		<g>
			
				<linearGradient id="SVGID_9_" gradientUnits="userSpaceOnUse" x1="159.2" y1="558.2811" x2="254" y2="558.2811" gradientTransform="matrix(1 0 0 1 0 -301.9999)">
				<stop  offset="0" style="stop-color:#429CD6"/>
				<stop  offset="0.3042" style="stop-color:#2D6BA8"/>
				<stop  offset="0.7791" style="stop-color:#0D2265"/>
				<stop  offset="1" style="stop-color:#01064A"/>
			</linearGradient>
			<path class="st15" d="M254,255.1l-56.9-32.9l-31.7,18c-3.8,2.2-6.2,6.2-6.2,10.6l0,0c0,4.5,2.4,8.6,6.3,10.9l49.1,28.3l1.6,0.3
				l0.9-13.3l-0.2-0.1L254,255.1z"/>
			
				<linearGradient id="SVGID_10_" gradientUnits="userSpaceOnUse" x1="184.8518" y1="538.4811" x2="204.7224" y2="538.4811" gradientTransform="matrix(1 0 0 1 0 -301.9999)">
				<stop  offset="0" style="stop-color:#429CD6"/>
				<stop  offset="0.3042" style="stop-color:#2D6BA8"/>
				<stop  offset="0.7791" style="stop-color:#0D2265"/>
				<stop  offset="1" style="stop-color:#01064A"/>
			</linearGradient>
			<polygon class="st16" points="204.7,232.5 188,242.2 184.9,240.4 201.6,230.7 			"/>
			
				<linearGradient id="SVGID_11_" gradientUnits="userSpaceOnUse" x1="189.5216" y1="540.7311" x2="207.8216" y2="540.7311" gradientTransform="matrix(1 0 0 1 0 -301.9999)">
				<stop  offset="0" style="stop-color:#429CD6"/>
				<stop  offset="0.3042" style="stop-color:#2D6BA8"/>
				<stop  offset="0.7791" style="stop-color:#0D2265"/>
				<stop  offset="1" style="stop-color:#01064A"/>
			</linearGradient>
			<polygon class="st17" points="207.8,234.3 191.1,244 189.5,243.1 206.3,233.4 			"/>
		</g>
		
			<linearGradient id="SVGID_12_" gradientUnits="userSpaceOnUse" x1="165.4" y1="558.5311" x2="224.6" y2="558.5311" gradientTransform="matrix(1 0 0 1 0 -301.9999)">
			<stop  offset="0" style="stop-color:#429CD6"/>
			<stop  offset="0.3042" style="stop-color:#2D6BA8"/>
			<stop  offset="0.7791" style="stop-color:#0D2265"/>
			<stop  offset="1" style="stop-color:#01064A"/>
		</linearGradient>
		<polygon class="st18" points="224.6,272.8 166.7,239.4 165.4,240.1 223.3,273.6 		"/>
		
			<linearGradient id="SVGID_13_" gradientUnits="userSpaceOnUse" x1="159.2" y1="569.4311" x2="217.0083" y2="569.4311" gradientTransform="matrix(1 0 0 1 0 -301.9999)">
			<stop  offset="0" style="stop-color:#429CD6"/>
			<stop  offset="0.3042" style="stop-color:#2D6BA8"/>
			<stop  offset="0.7791" style="stop-color:#0D2265"/>
			<stop  offset="1" style="stop-color:#01064A"/>
		</linearGradient>
		<path class="st19" d="M161,244.5c-1.1,1.9-1.8,4.1-1.8,6.3l0,0c0,4.5,2.4,8.6,6.3,10.9l49.1,28.3l1.6,0.3l0.9-13.3l-0.2-0.1l0,0
			L161,244.5z"/>
	</g>
	<g>
		<g>
			<path class="st12" d="M176.2,261.4L176.2,261.4c0.6,0.4,1.1,1.2,1.1,1.8v3.8c0,0.6-0.5,0.8-1.1,0.5l0,0c-0.6-0.4-1.1-1.2-1.1-1.8
				v-3.8C175,261.3,175.5,261.1,176.2,261.4z"/>
		</g>
	</g>
	<g>
		<g>
			<path class="st12" d="M253.4,269.1l-36.4,21l-3.4-1.9v-5.4l3.7-5.8l36-20.8C250.2,258,250.2,271,253.4,269.1z"/>
			<path class="st20" d="M251.1,261.9l-37.5,21.7v0.4l37.5-21.6C251.1,262.1,251.1,262,251.1,261.9z M251,263.3l-37.4,21.6v0.4
				l37.4-21.6C251,263.5,251,263.4,251,263.3z M251.7,258.8l-36.1,20.8l-0.3,0.5v0.1l36.2-20.9C251.6,259.1,251.7,259,251.7,258.8z
				 M251.3,260.4l-37,21.4l-0.4,0.5l0,0l37.3-21.5C251.3,260.7,251.3,260.5,251.3,260.4z M251.1,265.9l-37.5,21.6v0.4l37.5-21.7
				C251.1,266.1,251.1,266,251.1,265.9z M251.6,268.2l-36.3,21l0.3,0.2l36.1-20.9C251.7,268.4,251.7,268.3,251.6,268.2z
				 M251.3,267.1l-37.1,21.4l0.3,0.2l36.9-21.3C251.3,267.3,251.3,267.2,251.3,267.1z M251,264.6l-37.4,21.6v0.4L251,265
				C251,264.8,251,264.7,251,264.6z"/>
		</g>
		<path class="st21" d="M215.3,284.6L215.3,284.6c0-3.4,2.3-7.4,5.2-9.1l-1.5,0.9c-2.9,1.7-5.2,5.7-5.2,9.1l0,0
			c0,3.4,2.3,4.8,5.2,3.1l1.5-0.9C217.7,289.4,215.3,288,215.3,284.6z"/>
		
			<linearGradient id="SVGID_14_" gradientUnits="userSpaceOnUse" x1="212.9" y1="574.8297" x2="254.1" y2="574.8297" gradientTransform="matrix(1 0 0 1 0 -301.9999)">
			<stop  offset="0" style="stop-color:#01064A"/>
			<stop  offset="0.1594" style="stop-color:#030A4D"/>
			<stop  offset="0.304" style="stop-color:#071558"/>
			<stop  offset="0.443" style="stop-color:#0F2769"/>
			<stop  offset="0.5785" style="stop-color:#1B4181"/>
			<stop  offset="0.7115" style="stop-color:#2963A0"/>
			<stop  offset="0.8426" style="stop-color:#3B8CC7"/>
			<stop  offset="0.9699" style="stop-color:#50BCF3"/>
			<stop  offset="1" style="stop-color:#55C8FF"/>
		</linearGradient>
		<path class="st22" d="M254,268.2l-35.1,20.2c-2.8,1.6-5.1,0.3-5.1-3s2.3-7.3,5.1-8.9l35.1-20.2v-1.2l-35,20.2
			c-3.4,1.9-6.1,6.7-6.1,10.7l0,0c0,4,2.7,5.6,6.1,3.7l35.1-20.2v-1.3L254,268.2L254,268.2z"/>
	</g>
	<g>
		<g>
			<polygon class="st23" points="219,267.8 166.7,237.6 166.7,224.4 219,254.6 			"/>
			<polygon class="st24" points="172.9,241.2 170.6,239.8 170.6,226.6 172.9,228 			"/>
			<polygon class="st25" points="175.3,242.6 172.9,241.2 172.9,228 175.3,229.3 			"/>
			<path class="st25" d="M209.7,259L209.7,259c-1.5-0.9-2.7-2.8-2.7-4.3v-1c0-1.5,1.2-2,2.7-1.1l0,0c1.5,0.9,2.7,2.8,2.7,4.3v1
				C212.4,259.3,211.1,259.8,209.7,259z"/>
		</g>
		<g>
			<g>
				<polygon class="st12" points="256.3,245.5 219.7,266.7 219.7,254.8 256.3,233.6 				"/>
				<polygon class="st20" points="256.3,235.5 219.7,256.7 219.7,256.3 256.3,235.2 				"/>
				<polygon class="st20" points="256.3,236.8 219.7,257.9 219.7,257.5 256.3,236.4 				"/>
				<polygon class="st20" points="256.3,238 219.7,259.1 219.7,258.8 256.3,237.6 				"/>
				<polygon class="st20" points="256.3,239.2 219.7,260.3 219.7,260 256.3,238.9 				"/>
				<polygon class="st20" points="256.3,240.4 219.7,261.6 219.7,261.2 256.3,240.1 				"/>
				<polygon class="st20" points="256.3,241.7 219.7,262.8 219.7,262.5 256.3,241.3 				"/>
				<polygon class="st20" points="256.3,242.9 219.7,264 219.7,263.7 256.3,242.6 				"/>
				<polygon class="st20" points="256.3,244.1 219.7,265.3 219.7,264.9 256.3,243.8 				"/>
			</g>
			<polygon class="st21" points="221.2,265.8 219.5,266.8 219.5,254.9 221.2,253.9 			"/>
			<polygon class="st26" points="256.9,244.8 220,266.1 220,255.2 256.9,233.9 256.9,232.7 219,254.6 219,267.8 256.9,246 			"/>
		</g>
		<g>
			
				<linearGradient id="SVGID_15_" gradientUnits="userSpaceOnUse" x1="166.7" y1="530.5811" x2="256.9" y2="530.5811" gradientTransform="matrix(1 0 0 1 0 -301.9999)">
				<stop  offset="0" style="stop-color:#429CD6"/>
				<stop  offset="0.3042" style="stop-color:#2D6BA8"/>
				<stop  offset="0.7791" style="stop-color:#0D2265"/>
				<stop  offset="1" style="stop-color:#01064A"/>
			</linearGradient>
			<polygon class="st27" points="219,254.6 166.7,224.4 204.5,202.5 256.9,232.7 			"/>
			<polygon class="st25" points="209.9,212.7 189.4,224.6 185.6,222.4 206.1,210.5 			"/>
			<polygon class="st24" points="213.8,214.9 193.2,226.8 191.3,225.7 211.8,213.8 			"/>
			
				<ellipse transform="matrix(0.9999 -1.616441e-02 1.616441e-02 0.9999 -3.7376 3.6611)" class="st25" cx="224.6" cy="233" rx="12.8" ry="7.4"/>
		</g>
	</g>
	<polygon class="st28" points="216.5,231.3 218.3,232.1 195.7,241.3 195.7,245.9 192.2,248.8 190.2,245.9 190.2,237.7 	"/>
	<g>
		<path class="st12" d="M191,241.3l-2.6-6.5l25.5-10c2.1-0.8,4.6,5.7,2.6,6.5L191,241.3z"/>
		<path class="st29" d="M188.4,242.3l-2.6-6.5l25.5-10c2.1-0.8,4.6,5.7,2.6,6.5L188.4,242.3z"/>
		<path class="st20" d="M187.9,242.5l-2.6-6.5l25.5-10c2.1-0.8,4.6,5.7,2.6,6.5L187.9,242.5z"/>
		<path class="st29" d="M187,242.9l-2.6-6.5l25.5-10c2.1-0.8,4.6,5.7,2.6,6.5L187,242.9z"/>
		<path class="st30" d="M186.5,243.1l-2.6-6.5l25.5-10c2.1-0.8,4.6,5.7,2.6,6.5L186.5,243.1z"/>
		<path class="st12" d="M183.9,236.6c1.2-0.5,3.8,6,2.6,6.5l-6.4-1.4L183.9,236.6z"/>
		<path d="M180,241.7l3.2,0.7c0.6-0.2-0.7-3.5-1.3-3.3L180,241.7L180,241.7z"/>
	</g>
	<path class="st14" d="M259.7,278.7"/>
	<g class="st31">
		<polygon class="st32" points="210.2,195.1 59.1,107.9 59.1,13.7 210.2,100.9 		"/>
		<polygon class="st33" points="89.3,54.7 59.1,37.2 59.1,13.7 89.3,31.1 		"/>
		<polygon class="st34" points="119.6,72.1 89.3,54.7 89.3,31.1 119.6,48.6 		"/>
		<polygon class="st35" points="149.8,89.6 119.6,72.1 119.6,48.6 149.8,66 		"/>
		<polygon class="st36" points="180,107 149.8,89.6 149.8,66 180,83.5 		"/>
		<polygon class="st37" points="210.2,124.5 180,107 180,83.5 210.2,100.9 		"/>
		<polygon class="st38" points="89.3,78.2 59.1,60.8 59.1,37.2 89.3,54.7 		"/>
		<polygon class="st39" points="119.6,95.7 89.3,78.2 89.3,54.7 119.6,72.1 		"/>
		<polygon class="st40" points="149.8,113.1 119.6,95.7 119.6,72.1 149.8,89.6 		"/>
		<polygon class="st41" points="180,130.6 149.8,113.1 149.8,89.6 180,107 		"/>
		<polygon class="st42" points="210.2,148 180,130.6 180,107 210.2,124.5 		"/>
		<polygon class="st43" points="89.3,101.8 59.1,84.3 59.1,60.8 89.3,78.2 		"/>
		<polygon class="st44" points="119.6,119.2 89.3,101.8 89.3,78.2 119.6,95.7 		"/>
		<polygon class="st45" points="149.8,136.7 119.6,119.2 119.6,95.7 149.8,113.1 		"/>
		<polygon class="st46" points="180,154.1 149.8,136.7 149.8,113.1 180,130.6 		"/>
		<polygon class="st47" points="210.2,171.6 180,154.1 180,130.6 210.2,148 		"/>
		<polygon class="st48" points="89.3,125.3 59.1,107.9 59.1,84.3 89.3,101.8 		"/>
		<polygon class="st49" points="119.6,142.8 89.3,125.3 89.3,101.8 119.6,119.2 		"/>
		<polygon class="st50" points="149.8,160.2 119.6,142.8 119.6,119.2 149.8,136.7 		"/>
		<polygon class="st51" points="180,177.7 149.8,160.2 149.8,136.7 180,154.1 		"/>
		<polygon class="st52" points="210.2,195.1 180,177.7 180,154.1 210.2,171.6 		"/>
		<g>
			<polygon class="st12" points="66.5,37.1 61.7,34.4 61.7,33.2 66.5,36 			"/>
			<polygon class="st12" points="68.2,40 61.7,36.3 61.7,35.2 68.2,38.9 			"/>
		</g>
		<g>
			<polygon class="st12" points="96.5,54.4 91.7,51.7 91.7,50.6 96.5,53.3 			"/>
			<polygon class="st12" points="98.2,57.3 91.7,53.6 91.7,52.5 98.2,56.2 			"/>
		</g>
		<g>
			<polygon class="st12" points="126.5,71.8 121.7,69 121.7,67.9 126.5,70.6 			"/>
			<polygon class="st12" points="128.2,74.6 121.7,70.9 121.7,69.8 128.2,73.5 			"/>
		</g>
		<g>
			<polygon class="st12" points="156.4,89.1 151.7,86.3 151.7,85.2 156.4,87.9 			"/>
			<polygon class="st12" points="158.1,92 151.7,88.2 151.7,87.1 158.1,90.8 			"/>
		</g>
		<g>
			<polygon class="st12" points="186.4,106.4 181.7,103.6 181.7,102.5 186.4,105.3 			"/>
			<polygon class="st12" points="188.1,109.3 181.7,105.5 181.7,104.4 188.1,108.1 			"/>
		</g>
		<g>
			<polygon class="st12" points="66.5,60.2 61.7,57.5 61.7,56.3 66.5,59.1 			"/>
			<polygon class="st12" points="68.2,63.1 61.7,59.4 61.7,58.3 68.2,62 			"/>
		</g>
		<g>
			<polygon class="st12" points="96.5,77.5 91.7,74.8 91.7,73.7 96.5,76.4 			"/>
			<polygon class="st12" points="98.2,80.4 91.7,76.7 91.7,75.6 98.2,79.3 			"/>
		</g>
		<g>
			<polygon class="st12" points="126.5,94.9 121.7,92.1 121.7,91 126.5,93.7 			"/>
			<polygon class="st12" points="128.2,97.7 121.7,94 121.7,92.9 128.2,96.6 			"/>
		</g>
		<g>
			<polygon class="st12" points="156.4,112.2 151.7,109.4 151.7,108.3 156.4,111 			"/>
			<polygon class="st12" points="158.1,115.1 151.7,111.3 151.7,110.2 158.1,113.9 			"/>
		</g>
		<g>
			<polygon class="st12" points="186.4,129.5 181.7,126.7 181.7,125.6 186.4,128.4 			"/>
			<polygon class="st12" points="188.1,132.4 181.7,128.6 181.7,127.5 188.1,131.2 			"/>
		</g>
		<g>
			<polygon class="st12" points="66.5,83.8 61.7,81.1 61.7,80 66.5,82.7 			"/>
			<polygon class="st12" points="68.2,86.7 61.7,83 61.7,81.9 68.2,85.6 			"/>
		</g>
		<g>
			<polygon class="st12" points="96.5,101.1 91.7,98.4 91.7,97.3 96.5,100 			"/>
			<polygon class="st12" points="98.2,104 91.7,100.3 91.7,99.2 98.2,102.9 			"/>
		</g>
		<g>
			<polygon class="st12" points="126.5,118.5 121.7,115.7 121.7,114.6 126.5,117.3 			"/>
			<polygon class="st12" points="128.2,121.4 121.7,117.6 121.7,116.5 128.2,120.2 			"/>
		</g>
		<g>
			<polygon class="st12" points="156.4,135.8 151.7,133 151.7,131.9 156.4,134.6 			"/>
			<polygon class="st12" points="158.1,138.7 151.7,134.9 151.7,133.8 158.1,137.5 			"/>
		</g>
		<g>
			<polygon class="st12" points="186.4,153.1 181.7,150.3 181.7,149.2 186.4,152 			"/>
			<polygon class="st12" points="188.1,156 181.7,152.3 181.7,151.1 188.1,154.9 			"/>
		</g>
		<g>
			<polygon class="st12" points="66.5,107.7 61.7,104.9 61.7,103.8 66.5,106.6 			"/>
			<polygon class="st12" points="68.2,110.6 61.7,106.9 61.7,105.7 68.2,109.5 			"/>
		</g>
		<g>
			<polygon class="st12" points="96.5,125 91.7,122.2 91.7,121.1 96.5,123.9 			"/>
			<polygon class="st12" points="98.2,127.9 91.7,124.2 91.7,123 98.2,126.8 			"/>
		</g>
		<g>
			<polygon class="st12" points="126.5,142.3 121.7,139.6 121.7,138.4 126.5,141.2 			"/>
			<polygon class="st12" points="128.2,145.2 121.7,141.5 121.7,140.4 128.2,144.1 			"/>
		</g>
		<g>
			<polygon class="st12" points="156.4,159.6 151.7,156.9 151.7,155.8 156.4,158.5 			"/>
			<polygon class="st12" points="158.1,162.5 151.7,158.8 151.7,157.7 158.1,161.4 			"/>
		</g>
		<g>
			<polygon class="st12" points="186.4,176.9 181.7,174.2 181.7,173.1 186.4,175.8 			"/>
			<polygon class="st12" points="188.1,179.8 181.7,176.1 181.7,175 188.1,178.7 			"/>
		</g>
	</g>
	<g>
		<polygon class="st12" points="211.3,170.9 128.2,123 128.2,53 211.3,100.9 		"/>
		
			<linearGradient id="SVGID_16_" gradientUnits="userSpaceOnUse" x1="169.75" y1="372.2669" x2="169.75" y2="411.1655" gradientTransform="matrix(1 0 0 1 0 -301.9999)">
			<stop  offset="0" style="stop-color:#0074E8"/>
			<stop  offset="1" style="stop-color:#00FFEA"/>
		</linearGradient>
		<polygon class="st53" points="211.3,113.5 128.2,65.5 128.2,53 211.3,100.9 		"/>
		<g>
			<g>
				<path class="st54" d="M211.2,136.3l0.2-0.3l-17.7-10.2V114l17.5,10.1l0.2-0.3l-17.7-10.2v-10.3h-0.3v10.1l-15.7-9.1V93.9h-0.4
					V104l-15.7-9.1V84.6h-0.4v10.1l-15.8-9V75.3H145v10.1l-16.7-9.6l-0.2,0.3l16.9,9.7v11.8L128.3,88l-0.2,0.3L145,98v11.8
					l-16.7-9.6l-0.2,0.3l16.9,9.7V122l-16.7-9.6l-0.2,0.3l16.9,9.7v10.4h0.4v-10.1l15.7,9.1v10.4h0.4v-10.1l15.7,9.1v10.4h0.4v-10.1
					l15.8,8.8v10.4h0.4v-10.1l17.5,10.1l0.2-0.3l-17.7-10.2v-11.9l17.5,10.1l0.2-0.3l-17.7-10.2v-11.8L211.2,136.3z M161.1,131.3
					l-15.7-9.1v-11.8l15.7,9.1V131.3z M161.1,119.1l-15.7-9.1V98.3l15.7,9.1V119.1z M161.1,106.9l-15.7-9V86.1l15.7,9.1V106.9z
					 M177.2,140.6l-15.7-9.1v-11.8l15.7,9.1V140.6z M177.2,128.4l-15.7-9.1v-11.8l15.7,9.1V128.4z M177.2,116.2l-15.7-9.1V95.4
					l15.7,9.1V116.2z M193.4,149.9l-15.7-9.1V129l15.7,9.1V149.9z M193.4,137.7l-15.7-9.1v-11.8l15.7,9.1V137.7z M193.4,125.5
					l-15.7-9.1v-11.8l15.7,9.1V125.5z"/>
			</g>
		</g>
		<g>
			<path class="st12" d="M197.9,99.1c0,1-0.7,1.5-1.6,1c-0.9-0.5-1.6-1.8-1.6-2.8s0.7-1.5,1.6-1C197.1,96.8,197.9,98.1,197.9,99.1z"
				/>
			<path class="st12" d="M202.8,102c0,1-0.7,1.5-1.6,1c-0.9-0.5-1.6-1.8-1.6-2.8s0.7-1.5,1.6-1S202.8,100.9,202.8,102z"/>
			<path class="st12" d="M208.1,105c0,1-0.7,1.5-1.6,1c-0.9-0.5-1.6-1.8-1.6-2.8s0.7-1.5,1.6-1C207.3,102.7,208.1,104,208.1,105z"/>
		</g>
	</g>
	<g>
		
			<linearGradient id="SVGID_17_" gradientUnits="userSpaceOnUse" x1="82.7799" y1="354.9595" x2="126.9104" y2="428.632" gradientTransform="matrix(1 0 0 1 0 -301.9999)">
			<stop  offset="0" style="stop-color:#0074E8"/>
			<stop  offset="1" style="stop-color:#00FFEA"/>
		</linearGradient>
		<path class="st55" d="M81.9,90.8c0,3.6,2.5,8.1,5.6,9.8l30.3,17.5c3.1,1.8,5.6,0.3,5.6-3.4V81.4c0-3.6-2.5-8.1-5.6-9.8L87.5,54
			c-3.1-1.8-5.6-0.3-5.6,3.4V90.8z"/>
		<g>
			<path class="st12" d="M101,72.8l3.2,1.9v2.5v0.9l0.7,0.7c0.4,0.4,0.9,0.9,1.3,1.3l0.7,0.8l0.5-0.3l1.5-0.9l2.3,4l-1.5,0.9
				l-0.5,0.3l0.3,1c0.2,0.6,0.4,1.2,0.5,1.8l0.2,1l0.8,0.4l2.1,1.2v3.8l-2.1-1.2l-0.8-0.4l-0.2,0.7c-0.1,0.4-0.3,0.8-0.5,1.2
				l-0.3,0.6l0.5,0.9l1.5,2.6l-2.3,1.4l-1.5-2.6l-0.5-0.9h-0.7c-0.4,0-0.8,0-1.3-0.1l-0.7-0.1v0.9v2.5l-3.2-1.9v-2.5v-0.9l-0.7-0.7
				c-0.4-0.4-0.9-0.9-1.3-1.3l-0.6-1l-0.5,0.3l-1.5,0.9l-2.3-4l1.5-0.9l0.5-0.3l-0.3-1c-0.2-0.6-0.4-1.2-0.5-1.8l-0.2-1l-0.8-0.4
				l-2.1-1.2v-3.8l2.1,1.2l0.8,0.4l0.2-0.7c0.1-0.4,0.3-0.8,0.5-1.2l0.3-0.6l-0.5-0.9l-1.5-2.6l2.3-1.4l1.5,2.6l0.5,0.9h0.7
				c0.4,0,0.8,0,1.3,0.1l0.7,0.1v-0.7L101,72.8 M100,71v3.7c-0.5-0.1-1-0.1-1.4-0.1l-2.2-3.9l-3.7,2.2l2.2,3.9
				c-0.2,0.4-0.4,0.8-0.6,1.3l-3.1-1.8v6.2l3.1,1.8c0.2,0.7,0.4,1.4,0.6,2l-2.2,1.3l3.7,6.5l2.2-1.3c0.5,0.5,0.9,1.1,1.4,1.5V98
				l5.3,3v-3.7c0.5,0.1,1,0.1,1.4,0.1l2.2,3.9l3.7-2.2l-2.2-3.9c0.2-0.4,0.4-0.8,0.6-1.3l3.1,1.8v-6.2l-3.1-1.8
				c-0.2-0.7-0.4-1.4-0.6-2l2.2-1.3l-3.7-6.5l-2.2,1.3c-0.5-0.5-0.9-1.1-1.4-1.5V74L100,71L100,71z"/>
			<path class="st12" d="M102.7,80.8c2.5,1.4,4.5,5,4.5,7.9s-2,4.1-4.5,2.7s-4.5-5-4.5-7.9C98.1,80.6,100.2,79.3,102.7,80.8
				 M102.7,79.6c-3.1-1.8-5.5-0.3-5.5,3.3c0,3.6,2.5,7.9,5.5,9.7c3.1,1.8,5.5,0.3,5.5-3.3C108.2,85.7,105.7,81.3,102.7,79.6
				L102.7,79.6z"/>
		</g>
	</g>
	<g>
		
			<linearGradient id="SVGID_18_" gradientUnits="userSpaceOnUse" x1="63.1153" y1="421.2311" x2="74.7383" y2="421.2311" gradientTransform="matrix(1 0 0 1 0 -301.9999)">
			<stop  offset="0" style="stop-color:#94F1FF"/>
			<stop  offset="0.4558" style="stop-color:#4D80A8"/>
			<stop  offset="0.831" style="stop-color:#162864"/>
			<stop  offset="1" style="stop-color:#01064A"/>
		</linearGradient>
		<path class="st56" d="M64.6,113.3l-1.5,4.8l11.6,7c-1.1-3.8-1.5-7.5-0.9-11L64.6,113.3z"/>
		
			<linearGradient id="SVGID_19_" gradientUnits="userSpaceOnUse" x1="78.5618" y1="406.0756" x2="57.3652" y2="406.4561" gradientTransform="matrix(1 0 0 1 0 -301.9999)">
			<stop  offset="0" style="stop-color:#94F1FF"/>
			<stop  offset="0.4558" style="stop-color:#4D80A8"/>
			<stop  offset="0.831" style="stop-color:#162864"/>
			<stop  offset="1" style="stop-color:#01064A"/>
		</linearGradient>
		<circle class="st57" cx="69.9" cy="104.2" r="10.6"/>
		
			<linearGradient id="SVGID_20_" gradientUnits="userSpaceOnUse" x1="75.4923" y1="409.4835" x2="78.3776" y2="409.4835" gradientTransform="matrix(1 0 0 1 0 -301.9999)">
			<stop  offset="0" style="stop-color:#01064A"/>
			<stop  offset="0.11" style="stop-color:#040B4E"/>
			<stop  offset="0.2396" style="stop-color:#0D1959"/>
			<stop  offset="0.379" style="stop-color:#1C316B"/>
			<stop  offset="0.5253" style="stop-color:#315285"/>
			<stop  offset="0.6772" style="stop-color:#4B7DA5"/>
			<stop  offset="0.8336" style="stop-color:#6CB1CE"/>
			<stop  offset="0.991" style="stop-color:#92EDFC"/>
			<stop  offset="1" style="stop-color:#94F1FF"/>
		</linearGradient>
		<path class="st58" d="M76.6,106.5c0,0,0.2,1.7,1.8,1.3c0,0-1.5,1.7-2.9-0.6L76.6,106.5z"/>
		
			<linearGradient id="SVGID_21_" gradientUnits="userSpaceOnUse" x1="57.7321" y1="404.2811" x2="83.6837" y2="404.2811" gradientTransform="matrix(1 0 0 1 0 -301.9999)">
			<stop  offset="0" style="stop-color:#55C8FF"/>
			<stop  offset="4.363745e-02" style="stop-color:#44A1DB"/>
			<stop  offset="9.348923e-02" style="stop-color:#357DB9"/>
			<stop  offset="0.1496" style="stop-color:#265D9B"/>
			<stop  offset="0.2116" style="stop-color:#1B4181"/>
			<stop  offset="0.2816" style="stop-color:#112B6D"/>
			<stop  offset="0.3634" style="stop-color:#0A1A5D"/>
			<stop  offset="0.4645" style="stop-color:#050F52"/>
			<stop  offset="0.6063" style="stop-color:#02084C"/>
			<stop  offset="1" style="stop-color:#01064A"/>
		</linearGradient>
		<path class="st59" d="M76.6,106.5c0,0-0.5-4.8,1.4-5.4v-2.9h1.8c0,0,5.6-0.6,3.4-7.5H68c-6.1,0-10.9,5.3-10.2,11.3
			c0,0.2,0,0.3,0.1,0.5c0.5,3.1,1.3,5.3,2.2,7c1.5,2.7,4.3,4.3,7.3,4.3l0,0c2.9,0,5.5-1.5,7.1-3.9L76.6,106.5z"/>
		<g>
			
				<linearGradient id="SVGID_22_" gradientUnits="userSpaceOnUse" x1="78.0931" y1="396.4811" x2="83.6772" y2="396.4811" gradientTransform="matrix(1 0 0 1 0 -301.9999)">
				<stop  offset="0" style="stop-color:#01064A"/>
				<stop  offset="0.11" style="stop-color:#040B4E"/>
				<stop  offset="0.2396" style="stop-color:#0D1959"/>
				<stop  offset="0.379" style="stop-color:#1C316B"/>
				<stop  offset="0.5253" style="stop-color:#315285"/>
				<stop  offset="0.6772" style="stop-color:#4B7DA5"/>
				<stop  offset="0.8336" style="stop-color:#6CB1CE"/>
				<stop  offset="0.991" style="stop-color:#92EDFC"/>
				<stop  offset="1" style="stop-color:#94F1FF"/>
			</linearGradient>
			<path class="st60" d="M83.1,90.7h-1.7c2.3,6.9-3.4,7.5-3.4,7.5h1.7C79.8,98.2,85.4,97.6,83.1,90.7z"/>
		</g>
		<g>
			<path class="st61" d="M99.1,191.7l-9.6,2.1c-0.4,0.1-0.9-0.2-1-0.6l-1.4-6.3c-0.1-0.4,0.2-0.9,0.6-1l9.6-2.1
				c0.4-0.1,0.9,0.2,1,0.6l1.4,6.3C99.8,191.1,99.5,191.6,99.1,191.7z"/>
			<path class="st62" d="M87.7,186.3l9.9-2.2c0.4-0.1,0.7,0.1,0.8,0.5l-0.1-0.4c-0.1-0.4-0.4-0.6-0.8-0.5l-9.9,2.2
				c-0.4,0.1-0.6,0.4-0.5,0.8l0.1,0.4C87.1,186.7,87.3,186.4,87.7,186.3z"/>
			<g>
				<path class="st63" d="M97.3,185.8L97.3,185.8c-0.2,0-0.3-0.1-0.3-0.2l-0.1-0.7c0-0.2,0.1-0.3,0.2-0.3l0,0c0.2,0,0.3,0.1,0.3,0.2
					l0.1,0.7C97.6,185.6,97.5,185.7,97.3,185.8z"/>
				<path class="st64" d="M97.3,184.8c0,0.1,0,0.2-0.1,0.2s-0.2,0-0.2-0.1s0-0.2,0.1-0.2C97.2,184.6,97.3,184.7,97.3,184.8z"/>
				<path class="st65" d="M97.2,184.8c0,0,0,0.1-0.1,0.1s-0.1,0-0.1-0.1c0,0,0-0.1,0.1-0.1C97.1,184.7,97.2,184.8,97.2,184.8z"/>
			</g>
		</g>
		<g>
			
				<linearGradient id="SVGID_23_" gradientUnits="userSpaceOnUse" x1="87.1439" y1="479.4311" x2="93.75" y2="479.4311" gradientTransform="matrix(1 0 0 1 0 -301.9999)">
				<stop  offset="0" style="stop-color:#94F1FF"/>
				<stop  offset="0.4558" style="stop-color:#4D80A8"/>
				<stop  offset="0.831" style="stop-color:#162864"/>
				<stop  offset="1" style="stop-color:#01064A"/>
			</linearGradient>
			<polygon class="st66" points="87.1,177.5 88,179.8 93.8,178.1 93.3,175 			"/>
			<g>
				
					<linearGradient id="SVGID_24_" gradientUnits="userSpaceOnUse" x1="87.9697" y1="484.6811" x2="96.6873" y2="484.6811" gradientTransform="matrix(1 0 0 1 0 -301.9999)">
					<stop  offset="0" style="stop-color:#94F1FF"/>
					<stop  offset="0.4558" style="stop-color:#4D80A8"/>
					<stop  offset="0.831" style="stop-color:#162864"/>
					<stop  offset="1" style="stop-color:#01064A"/>
				</linearGradient>
				<polygon class="st67" points="88,179.8 93.8,178.1 96.7,184.6 88.4,187.2 				"/>
				
					<linearGradient id="SVGID_25_" gradientUnits="userSpaceOnUse" x1="88.4" y1="491.1938" x2="91.1952" y2="491.1938" gradientTransform="matrix(1 0 0 1 0 -301.9999)">
					<stop  offset="0" style="stop-color:#94F1FF"/>
					<stop  offset="0.4558" style="stop-color:#4D80A8"/>
					<stop  offset="0.831" style="stop-color:#162864"/>
					<stop  offset="1" style="stop-color:#01064A"/>
				</linearGradient>
				<path class="st68" d="M88.4,187.2l1.3,4.1c0.1,0.4,0.5,0.6,0.9,0.5l0,0c0.4-0.1,0.6-0.5,0.6-0.9l-0.7-4.4L88.4,187.2z"/>
				
					<linearGradient id="SVGID_26_" gradientUnits="userSpaceOnUse" x1="90.447" y1="490.7938" x2="93.3939" y2="490.7938" gradientTransform="matrix(1 0 0 1 0 -301.9999)">
					<stop  offset="0" style="stop-color:#94F1FF"/>
					<stop  offset="0.4558" style="stop-color:#4D80A8"/>
					<stop  offset="0.831" style="stop-color:#162864"/>
					<stop  offset="1" style="stop-color:#01064A"/>
				</linearGradient>
				<path class="st69" d="M90.4,186.5l1.4,4.7c0.1,0.4,0.5,0.6,0.9,0.5l0,0c0.4-0.1,0.6-0.5,0.6-0.9l-0.9-5L90.4,186.5z"/>
				
					<linearGradient id="SVGID_27_" gradientUnits="userSpaceOnUse" x1="92.4922" y1="490.7938" x2="95.7299" y2="490.7938" gradientTransform="matrix(1 0 0 1 0 -301.9999)">
					<stop  offset="0" style="stop-color:#94F1FF"/>
					<stop  offset="0.4558" style="stop-color:#4D80A8"/>
					<stop  offset="0.831" style="stop-color:#162864"/>
					<stop  offset="1" style="stop-color:#01064A"/>
				</linearGradient>
				<path class="st70" d="M92.5,185.9l1.7,5.8c0.1,0.4,0.5,0.6,0.9,0.5l0,0c0.4-0.1,0.6-0.5,0.6-0.9l-1.2-6L92.5,185.9z"/>
				
					<linearGradient id="SVGID_28_" gradientUnits="userSpaceOnUse" x1="94.5373" y1="489.7438" x2="97.5616" y2="489.7438" gradientTransform="matrix(1 0 0 1 0 -301.9999)">
					<stop  offset="0" style="stop-color:#94F1FF"/>
					<stop  offset="0.4558" style="stop-color:#4D80A8"/>
					<stop  offset="0.831" style="stop-color:#162864"/>
					<stop  offset="1" style="stop-color:#01064A"/>
				</linearGradient>
				<path class="st71" d="M94.5,185.3l1.5,5c0.1,0.4,0.5,0.6,0.9,0.5l0,0c0.4-0.1,0.6-0.5,0.6-0.9l-0.9-5.3L94.5,185.3z"/>
			</g>
		</g>
		
			<linearGradient id="SVGID_29_" gradientUnits="userSpaceOnUse" x1="295.6569" y1="127.706" x2="311.235" y2="127.706" gradientTransform="matrix(0.9401 -0.3408 0.3408 0.9401 -274.437 118.8798)">
			<stop  offset="0" style="stop-color:#55C8FF"/>
			<stop  offset="4.275293e-02" style="stop-color:#45A4DD"/>
			<stop  offset="9.565330e-02" style="stop-color:#357FBB"/>
			<stop  offset="0.1549" style="stop-color:#275E9C"/>
			<stop  offset="0.2201" style="stop-color:#1B4382"/>
			<stop  offset="0.2934" style="stop-color:#122C6E"/>
			<stop  offset="0.3783" style="stop-color:#0A1B5E"/>
			<stop  offset="0.4824" style="stop-color:#050F52"/>
			<stop  offset="0.626" style="stop-color:#02084C"/>
			<stop  offset="1" style="stop-color:#01064A"/>
		</linearGradient>
		<path class="st72" d="M58.4,150.5l-0.3,0.4c-1.5,2-4.8,2.2-6,0.1c-5.6-10.1-4.6-22.3-2.9-26.9c1.7-4.6,6.3-8.4,7.7-4.6
			C58.3,123.4,58.4,150.5,58.4,150.5z"/>
		
			<linearGradient id="SVGID_30_" gradientUnits="userSpaceOnUse" x1="266.7305" y1="550.2133" x2="266.7305" y2="555.9491" gradientTransform="matrix(-1 0 0 1 348.2357 -301.9999)">
			<stop  offset="0" style="stop-color:#55C8FF"/>
			<stop  offset="5.066156e-02" style="stop-color:#4BB2EB"/>
			<stop  offset="0.1684" style="stop-color:#3885C0"/>
			<stop  offset="0.2909" style="stop-color:#275E9C"/>
			<stop  offset="0.4166" style="stop-color:#193E7E"/>
			<stop  offset="0.5464" style="stop-color:#0F2567"/>
			<stop  offset="0.6822" style="stop-color:#071457"/>
			<stop  offset="0.8276" style="stop-color:#02094D"/>
			<stop  offset="1" style="stop-color:#01064A"/>
		</linearGradient>
		<path class="st73" d="M69.9,254.7L69.9,254.7c0.2,0.6,0.4,1,0.7,1.3c3.1,1.6,7.5-0.6,7.5-0.6s0,0,0-0.7c1.3-0.8,7.1-0.7,8.3-0.9
			c1.2-0.2,2.5-0.6,5.8-2.4c0.9-0.5,1.2-1,1.1-1.4c-0.1-1.1-3.1-1.8-5.5-1.6c-3.2,0.3-7.1,0-7.1,0c-1.8-2.7-10.9-1.1-10.9-1.1
			s0.1,0.7,0,2.1C69.8,250.4,69.5,253.1,69.9,254.7z"/>
		
			<linearGradient id="SVGID_31_" gradientUnits="userSpaceOnUse" x1="254.9578" y1="555.3226" x2="278.3232" y2="555.3226" gradientTransform="matrix(-1 0 0 1 348.2357 -301.9999)">
			<stop  offset="0" style="stop-color:#55C8FF"/>
			<stop  offset="2.726507e-02" style="stop-color:#4DB6EE"/>
			<stop  offset="9.883374e-02" style="stop-color:#3B8DC8"/>
			<stop  offset="0.1769" style="stop-color:#2C69A6"/>
			<stop  offset="0.2606" style="stop-color:#1E4A89"/>
			<stop  offset="0.3519" style="stop-color:#143172"/>
			<stop  offset="0.4535" style="stop-color:#0B1E60"/>
			<stop  offset="0.5713" style="stop-color:#051054"/>
			<stop  offset="0.72" style="stop-color:#02084C"/>
			<stop  offset="1" style="stop-color:#01064A"/>
		</linearGradient>
		<path class="st74" d="M69.9,254.7c0.1,0.6,0.4,1,0.7,1.3c3.1,1.6,7.5-0.6,7.5-0.6s0,0,0-0.7c1.3-0.8,7.1-0.7,8.3-0.9
			c1.2-0.2,2.5-0.6,5.8-2.4c0.9-0.5,1.2-1,1.1-1.4c-0.2,0.2-4.2,2.9-5.9,3.1c-1.8,0.2-7.4,0.1-9,0.5C76.9,254.1,72,255.7,69.9,254.7
			z"/>
		
			<linearGradient id="SVGID_32_" gradientUnits="userSpaceOnUse" x1="281.9523" y1="541.291" x2="281.9523" y2="547.665" gradientTransform="matrix(-1 0 0 1 348.2357 -301.9999)">
			<stop  offset="0" style="stop-color:#55C8FF"/>
			<stop  offset="5.066156e-02" style="stop-color:#4BB2EB"/>
			<stop  offset="0.1684" style="stop-color:#3885C0"/>
			<stop  offset="0.2909" style="stop-color:#275E9C"/>
			<stop  offset="0.4166" style="stop-color:#193E7E"/>
			<stop  offset="0.5464" style="stop-color:#0F2567"/>
			<stop  offset="0.6822" style="stop-color:#071457"/>
			<stop  offset="0.8276" style="stop-color:#02094D"/>
			<stop  offset="1" style="stop-color:#01064A"/>
		</linearGradient>
		<path class="st75" d="M54.7,246.9L54.7,246.9c0.2,0.6,0.4,1,0.7,1.3c3.1,1.6,7.5-0.6,7.5-0.6s0,0,0-0.7c1.3-0.8,7.1-0.7,8.3-0.9
			c1.2-0.2,2.5-0.6,5.8-2.4c0.9-0.5,1.2-1,1.1-1.4c-0.1-1.1-3.1-1.8-5.5-1.6c-3.2,0.3-7.1,0-7.1,0c-1.8-2.7-10.9-1.1-10.9-1.1
			s0.1,0.7,0,2.1C54.6,242.6,54.2,245.2,54.7,246.9z"/>
		
			<linearGradient id="SVGID_33_" gradientUnits="userSpaceOnUse" x1="270.1804" y1="547.5226" x2="293.5457" y2="547.5226" gradientTransform="matrix(-1 0 0 1 348.2357 -301.9999)">
			<stop  offset="0" style="stop-color:#55C8FF"/>
			<stop  offset="2.726507e-02" style="stop-color:#4DB6EE"/>
			<stop  offset="9.883374e-02" style="stop-color:#3B8DC8"/>
			<stop  offset="0.1769" style="stop-color:#2C69A6"/>
			<stop  offset="0.2606" style="stop-color:#1E4A89"/>
			<stop  offset="0.3519" style="stop-color:#143172"/>
			<stop  offset="0.4535" style="stop-color:#0B1E60"/>
			<stop  offset="0.5713" style="stop-color:#051054"/>
			<stop  offset="0.72" style="stop-color:#02084C"/>
			<stop  offset="1" style="stop-color:#01064A"/>
		</linearGradient>
		<path class="st76" d="M54.7,246.9c0.1,0.6,0.4,1,0.7,1.3c3.1,1.6,7.5-0.6,7.5-0.6s0,0,0-0.7c1.3-0.8,7.1-0.7,8.3-0.9
			c1.2-0.2,2.5-0.6,5.8-2.4c0.9-0.5,1.2-1,1.1-1.4c-0.2,0.2-4.2,2.9-5.9,3.1c-1.8,0.2-7.4,0.1-9,0.5
			C61.7,246.2,56.8,247.9,54.7,246.9z"/>
		<g>
			
				<linearGradient id="SVGID_34_" gradientUnits="userSpaceOnUse" x1="280.4186" y1="508.5302" x2="293.802" y2="508.1054" gradientTransform="matrix(-1 0 0 1 348.2357 -301.9999)">
				<stop  offset="0" style="stop-color:#55C8FF"/>
				<stop  offset="4.275293e-02" style="stop-color:#45A4DD"/>
				<stop  offset="9.565330e-02" style="stop-color:#357FBB"/>
				<stop  offset="0.1549" style="stop-color:#275E9C"/>
				<stop  offset="0.2201" style="stop-color:#1B4382"/>
				<stop  offset="0.2934" style="stop-color:#122C6E"/>
				<stop  offset="0.3783" style="stop-color:#0A1B5E"/>
				<stop  offset="0.4824" style="stop-color:#050F52"/>
				<stop  offset="0.626" style="stop-color:#02084C"/>
				<stop  offset="1" style="stop-color:#01064A"/>
			</linearGradient>
			<path class="st77" d="M54.2,240.1c2.3,1.5,4.7,1.7,6.7,1.3c2.8-0.5,4.9-2,4.9-2c0.2-7.6,1.3-21,2.1-28.2
				c0.8-7.1,3.5-30.8,1.9-35.1c-0.7-2-2.2-3.2-3.9-4c-2.1-1-4.4-1.2-5.8-1.2c-2.6,0-3.6,2.9-3.6,5.8c0,2.9,0.2,29.5-0.8,35.3
				C54.8,217.7,54.2,236.7,54.2,240.1z"/>
		</g>
		<g>
			
				<linearGradient id="SVGID_35_" gradientUnits="userSpaceOnUse" x1="265.0333" y1="516.9836" x2="282.3882" y2="516.9836" gradientTransform="matrix(-1 0 0 1 348.2357 -301.9999)">
				<stop  offset="0" style="stop-color:#55C8FF"/>
				<stop  offset="2.726507e-02" style="stop-color:#4DB6EE"/>
				<stop  offset="9.883374e-02" style="stop-color:#3B8DC8"/>
				<stop  offset="0.1769" style="stop-color:#2C69A6"/>
				<stop  offset="0.2606" style="stop-color:#1E4A89"/>
				<stop  offset="0.3519" style="stop-color:#143172"/>
				<stop  offset="0.4535" style="stop-color:#0B1E60"/>
				<stop  offset="0.5713" style="stop-color:#051054"/>
				<stop  offset="0.72" style="stop-color:#02084C"/>
				<stop  offset="1" style="stop-color:#01064A"/>
			</linearGradient>
			<path class="st78" d="M68.1,197.7c0.8,5.4,2.2,14.1,1.7,21.4c-0.6,7.3,0,24.1,0,28c1.6,2.1,4.1,2.7,6.5,2.6
				c2.6-0.1,4.9-1,5.3-1.6c0.8-1.2,0-33.4,0-33.4l1.6-31.2c0.1-2.5-2.9-3.2-6.6-3.3c-4.9-0.1-10.8,1.2-10.8,1.2
				C65.8,184.3,67.3,192.3,68.1,197.7z"/>
		</g>
		<path class="st79" d="M83.1,184.5c0,0-3.9,1.9-8.2,1.4c-4.3-0.6-9.5-1.2-11.6-2s-5.4-2.8-6.8-3.7l-0.3-3.5l0.3-3.8
			c0,0,4.6-1,4.9-1c0.2,0,8.3,0.8,8.3,0.8l7.6,2.2l4.2,2.3c0,0,1.9,2,1.7,2.3C82.9,179.8,83.1,184.5,83.1,184.5z"/>
		<path class="st12" d="M77.1,122.6c0,0-2.3-3-2.9-3.4s-5.8,0.7-9.2-3.4c-1.6-1.9-3.6-2.4-3.7,0.4C61.2,119,71.5,124.3,77.1,122.6z"
			/>
		<g>
			
				<linearGradient id="SVGID_36_" gradientUnits="userSpaceOnUse" x1="262.6704" y1="452.6646" x2="295.8928" y2="452.6646" gradientTransform="matrix(-1 0 0 1 348.2357 -301.9999)">
				<stop  offset="0" style="stop-color:#55C8FF"/>
				<stop  offset="4.275293e-02" style="stop-color:#45A4DD"/>
				<stop  offset="9.565330e-02" style="stop-color:#357FBB"/>
				<stop  offset="0.1549" style="stop-color:#275E9C"/>
				<stop  offset="0.2201" style="stop-color:#1B4382"/>
				<stop  offset="0.2934" style="stop-color:#122C6E"/>
				<stop  offset="0.3783" style="stop-color:#0A1B5E"/>
				<stop  offset="0.4824" style="stop-color:#050F52"/>
				<stop  offset="0.626" style="stop-color:#02084C"/>
				<stop  offset="1" style="stop-color:#01064A"/>
			</linearGradient>
			<path class="st80" d="M55.4,160c-1.4,11.4-1.1,14.5-0.8,16.3s3.4,3.8,7,5.3l2-6.6l0.3,8.1c0,0,7.4,2.5,14,1.9
				c3-0.3,5.8-1.2,7.6-3.4c0,0,0.2-24.6-0.1-40c-0.1-6.7-0.3-11.7-0.7-12.3c-1.1-2-3.5-4.2-7.7-6.7c-3.7,0-12.1-1.3-15.7-6.4
				c-3.9,0-8.7-1-9,9.4C52.1,136,56.8,148.5,55.4,160z"/>
		</g>
		
			<linearGradient id="SVGID_37_" gradientUnits="userSpaceOnUse" x1="342.6778" y1="690.9409" x2="378.7923" y2="690.9409" gradientTransform="matrix(-0.974 -0.2264 -0.2264 0.974 595.875 -445.4195)">
			<stop  offset="0" style="stop-color:#55C8FF"/>
			<stop  offset="4.275293e-02" style="stop-color:#45A4DD"/>
			<stop  offset="9.565330e-02" style="stop-color:#357FBB"/>
			<stop  offset="0.1549" style="stop-color:#275E9C"/>
			<stop  offset="0.2201" style="stop-color:#1B4382"/>
			<stop  offset="0.2934" style="stop-color:#122C6E"/>
			<stop  offset="0.3783" style="stop-color:#0A1B5E"/>
			<stop  offset="0.4824" style="stop-color:#050F52"/>
			<stop  offset="0.626" style="stop-color:#02084C"/>
			<stop  offset="1" style="stop-color:#01064A"/>
		</linearGradient>
		<path class="st81" d="M80,157.5l-2.8-24.3c-0.3-2.7,1.6-5.2,4.4-5.5l0,0c2.7-0.3,5.2,1.6,5.5,4.4l2.8,24.3
			c0.3,2.7-1.6,5.2-4.4,5.5l0,0C82.8,162.2,80.3,160.3,80,157.5z"/>
		
			<linearGradient id="SVGID_38_" gradientUnits="userSpaceOnUse" x1="-788.5075" y1="2154.376" x2="-752.3933" y2="2154.376" gradientTransform="matrix(0.4846 -0.8747 -0.8747 -0.4846 2349.0793 530.2027)">
			<stop  offset="0" style="stop-color:#55C8FF"/>
			<stop  offset="4.275293e-02" style="stop-color:#45A4DD"/>
			<stop  offset="9.565330e-02" style="stop-color:#357FBB"/>
			<stop  offset="0.1549" style="stop-color:#275E9C"/>
			<stop  offset="0.2201" style="stop-color:#1B4382"/>
			<stop  offset="0.2934" style="stop-color:#122C6E"/>
			<stop  offset="0.3783" style="stop-color:#0A1B5E"/>
			<stop  offset="0.4824" style="stop-color:#050F52"/>
			<stop  offset="0.626" style="stop-color:#02084C"/>
			<stop  offset="1" style="stop-color:#01064A"/>
		</linearGradient>
		<path class="st82" d="M86.5,179.4c-0.2-0.3-0.4-0.7-0.5-1.1l-5.6-20.2c-0.7-2.4,0.7-4.8,3.1-5.5l0.8-0.2c2.4-0.7,4.9,0.7,5.5,3.1
			l5.6,20.1c0.1,0.3,0.1,0.7,0.2,1L86.5,179.4z"/>
	</g>
</g>
</svg>
