<?xml version="1.0" encoding="utf-8"?>
<!-- Generator: Adobe Illustrator 24.0.1, SVG Export Plug-In . SVG Version: 6.00 Build 0)  -->
<svg version="1.1" id="Layer_1" xmlns="http://www.w3.org/2000/svg" xmlns:xlink="http://www.w3.org/1999/xlink" x="0px" y="0px"
	 viewBox="0 0 300 300" style="enable-background:new 0 0 300 300;" xml:space="preserve">
<style type="text/css">
	.st0{opacity:0.3;}
	.st1{fill:none;stroke:#000000;stroke-width:7.2;stroke-miterlimit:10;}
	.st2{fill:url(#SVGID_1_);}
	.st3{fill:none;stroke:url(#SVGID_2_);stroke-width:7.2;stroke-miterlimit:10;}
	.st4{fill:url(#SVGID_3_);}
	.st5{fill:#001866;}
	.st6{fill:url(#SVGID_4_);}
	.st7{fill:#55C8FF;}
	.st8{fill:#001359;}
	.st9{fill:url(#SVGID_5_);}
	.st10{fill:url(#SVGID_6_);}
	.st11{enable-background:new    ;}
	.st12{fill:#005893;}
	.st13{fill:#1784C1;}
	.st14{fill:#00587F;}
	.st15{fill:url(#SVGID_7_);}
	.st16{fill:#245B84;}
	.st17{fill:url(#SVGID_8_);}
	.st18{fill:url(#SVGID_9_);}
	.st19{fill:url(#SVGID_10_);}
	.st20{fill:url(#SVGID_11_);}
	.st21{fill:url(#SVGID_12_);}
	.st22{fill:url(#SVGID_13_);}
	.st23{fill:#FF3131;}
	.st24{fill:url(#SVGID_14_);}
	.st25{fill:url(#SVGID_15_);}
	.st26{fill:url(#SVGID_16_);}
	.st27{fill:url(#SVGID_17_);}
	.st28{fill:url(#SVGID_18_);}
	.st29{fill:url(#SVGID_19_);}
	.st30{fill:#195975;}
	.st31{fill:#55ACD8;}
	.st32{fill:#005289;}
	.st33{fill:url(#SVGID_20_);}
	.st34{fill:#00416D;}
	.st35{fill:#2C6D91;}
	.st36{fill:url(#SVGID_21_);}
	.st37{fill:url(#SVGID_22_);}
	.st38{fill:url(#SVGID_23_);}
	.st39{display:none;fill:#232323;}
	.st40{fill:url(#SVGID_24_);}
	.st41{fill:url(#SVGID_25_);}
	.st42{fill:url(#SVGID_26_);}
	.st43{fill:url(#SVGID_27_);}
	.st44{fill:#C0F0FF;}
	.st45{fill:#00AFF4;}
	.st46{fill:#0089CE;}
	.st47{fill:#0063A0;}
	.st48{fill:#00477C;}
	.st49{fill:#FFFFFF;}
	.st50{fill:#F7BF74;}
</style>
<g>
	<g class="st0">
		<circle cx="154.8" cy="155" r="111.7"/>
		<circle class="st1" cx="154.8" cy="155" r="111.7"/>
	</g>
	<g>
		
			<linearGradient id="SVGID_1_" gradientUnits="userSpaceOnUse" x1="38.1198" y1="121.4153" x2="261.5197" y2="121.4153" gradientTransform="matrix(1 0 0 -1 0 271.2813)">
			<stop  offset="0" style="stop-color:#FFFFFF"/>
			<stop  offset="1" style="stop-color:#FFFFFF"/>
		</linearGradient>
		<circle class="st2" cx="149.8" cy="149.9" r="111.7"/>
		
			<linearGradient id="SVGID_2_" gradientUnits="userSpaceOnUse" x1="34.5198" y1="121.4153" x2="265.1198" y2="121.4153" gradientTransform="matrix(1 0 0 -1 0 271.2813)">
			<stop  offset="0" style="stop-color:#00ECF9"/>
			<stop  offset="1" style="stop-color:#FFFFFF"/>
		</linearGradient>
		<circle class="st3" cx="149.8" cy="149.9" r="111.7"/>
	</g>
</g>
<g>
	<g>
		<g>
			<g>
				<g>
					
						<linearGradient id="SVGID_3_" gradientUnits="userSpaceOnUse" x1="3304.7449" y1="124.0475" x2="3577.2664" y2="124.0475" gradientTransform="matrix(-1 0 0 -1 3549.7007 271.2813)">
						<stop  offset="0" style="stop-color:#01064A"/>
						<stop  offset="0.1594" style="stop-color:#030A4D"/>
						<stop  offset="0.304" style="stop-color:#071558"/>
						<stop  offset="0.443" style="stop-color:#0F2769"/>
						<stop  offset="0.5785" style="stop-color:#1B4181"/>
						<stop  offset="0.7115" style="stop-color:#2963A0"/>
						<stop  offset="0.8426" style="stop-color:#3B8CC7"/>
						<stop  offset="0.9699" style="stop-color:#50BCF3"/>
						<stop  offset="1" style="stop-color:#55C8FF"/>
					</linearGradient>
					<path class="st4" d="M240.5,91.5L125.8,25.8c-2.1-1.2-4.7-1.7-7-1.2c-3.2,0.7-6.3,1.8-6.3,4.6l-0.2,106.5l10.1,6
						c-3.3,1.6-103.9,50.6-104.1,50.7l-0.2,4.1c0,1.8,0.9,3.4,2.5,4.3c17.1,9.9,117.4,67.9,117.4,67.9c3.3,1.9,7.4,1.9,10.7,0
						l95.4-55.1c1-0.6,1.6-1.6,1.6-2.8l0.1-110.1C245.8,96.9,243.8,93.4,240.5,91.5z"/>
					<g>
						<polygon class="st5" points="117.3,32.6 117.3,132.5 236.8,201.1 236.5,101 						"/>
						
							<linearGradient id="SVGID_4_" gradientUnits="userSpaceOnUse" x1="206.279" y1="195.0187" x2="148.4678" y2="114.752" gradientTransform="matrix(1 0 0 -1 0 271.2813)">
							<stop  offset="0" style="stop-color:#429CD6"/>
							<stop  offset="0.3042" style="stop-color:#2D6BA8"/>
							<stop  offset="0.7791" style="stop-color:#0D2265"/>
							<stop  offset="1" style="stop-color:#01064A"/>
						</linearGradient>
						<polygon class="st6" points="117.3,32.6 117.3,132.5 236.8,201.1 236.5,101 						"/>
					</g>
					<g>
						<path class="st7" d="M242.4,210.5l-130.2-75.1l-92,53.2c-2.7,1.5-2.7,5.4,0,6.9L140,264.7c2.6,1.5,5.8,1.5,8.4,0L242.4,210.5z
							"/>
					</g>
					<g>
						<g>
							<path class="st8" d="M206.4,212.8c2.6,1.5,3.9,2.2,6.5,3.7c2.6-1.5,3.9-2.2,6.6-3.7c-2.6-1.5-3.9-2.2-6.5-3.7
								C210.3,210.6,209,211.3,206.4,212.8z"/>
							<path class="st8" d="M196.8,207.3c2.6,1.5,3.9,2.2,6.5,3.7c2.6-1.5,3.9-2.2,6.6-3.7c-2.6-1.5-3.9-2.2-6.5-3.7
								C200.7,205.1,199.4,205.8,196.8,207.3z"/>
							<path class="st8" d="M187.2,201.8c2.6,1.5,3.9,2.2,6.5,3.7c2.6-1.5,3.9-2.2,6.6-3.7c-2.6-1.5-3.9-2.2-6.5-3.7
								C191.2,199.6,189.8,200.3,187.2,201.8z"/>
							<path class="st8" d="M177.7,196.3c2.6,1.5,3.9,2.2,6.5,3.7c2.6-1.5,3.9-2.2,6.6-3.7c-2.6-1.5-3.9-2.2-6.5-3.7
								C181.6,194.1,180.3,194.8,177.7,196.3z"/>
							<path class="st8" d="M168.1,190.8c2.6,1.5,3.9,2.2,6.5,3.7c2.6-1.5,3.9-2.2,6.6-3.7c-2.6-1.5-3.9-2.2-6.5-3.7
								C172,188.6,170.7,189.3,168.1,190.8z"/>
							<path class="st8" d="M158.5,185.3c2.6,1.5,3.9,2.2,6.5,3.7c2.6-1.5,3.9-2.2,6.6-3.7c-2.6-1.5-3.9-2.2-6.5-3.7
								C162.5,183.1,161.2,183.8,158.5,185.3z"/>
							<path class="st8" d="M149,179.8c2.6,1.5,3.9,2.2,6.5,3.7c2.6-1.5,3.9-2.2,6.6-3.7c-2.6-1.5-3.9-2.2-6.5-3.7
								C152.9,177.6,151.6,178.3,149,179.8z"/>
							<path class="st8" d="M139.4,174.3c2.6,1.5,3.9,2.2,6.5,3.7c2.6-1.5,3.9-2.2,6.6-3.7c-2.6-1.5-3.9-2.2-6.5-3.7
								C143.3,172.1,142,172.8,139.4,174.3z"/>
							<path class="st8" d="M129.8,168.8c2.6,1.5,3.9,2.2,6.5,3.7c2.6-1.5,3.9-2.2,6.6-3.7c-2.6-1.5-3.9-2.2-6.5-3.7
								C133.8,166.6,132.5,167.4,129.8,168.8z"/>
							<path class="st8" d="M120.3,163.3c2.6,1.5,3.9,2.2,6.5,3.7c2.6-1.5,3.9-2.2,6.6-3.7c-2.6-1.5-3.9-2.2-6.5-3.7
								C124.2,161.1,122.9,161.9,120.3,163.3z"/>
							<path class="st8" d="M110.7,157.9c2.6,1.5,3.9,2.2,6.5,3.7c2.6-1.5,3.9-2.2,6.6-3.7c-2.6-1.5-3.9-2.2-6.5-3.7
								C114.6,155.6,113.3,156.4,110.7,157.9z"/>
							<path class="st8" d="M101.1,152.4c2.6,1.5,3.9,2.2,6.5,3.7c2.6-1.5,3.9-2.2,6.6-3.7c-2.6-1.5-3.9-2.2-6.5-3.7
								C105.1,150.1,103.8,150.9,101.1,152.4z"/>
							<path class="st8" d="M197.2,218c2.6,1.5,3.9,2.2,6.5,3.7c2.6-1.5,3.9-2.2,6.6-3.7c-2.6-1.5-3.9-2.2-6.5-3.7
								C201.1,215.8,199.8,216.5,197.2,218z"/>
							<path class="st8" d="M187.6,212.5c2.6,1.5,3.9,2.2,6.5,3.7c2.6-1.5,3.9-2.2,6.6-3.7c-2.6-1.5-3.9-2.2-6.5-3.7
								C191.5,210.3,190.2,211,187.6,212.5z"/>
							<path class="st8" d="M178,207c2.6,1.5,3.9,2.2,6.5,3.7c2.6-1.5,3.9-2.2,6.6-3.7c-2.6-1.5-3.9-2.2-6.5-3.7
								C182,204.8,180.7,205.5,178,207z"/>
							<path class="st8" d="M168.5,201.5c2.6,1.5,3.9,2.2,6.5,3.7c2.6-1.5,3.9-2.2,6.6-3.7c-2.6-1.5-3.9-2.2-6.5-3.7
								C172.4,199.3,171.1,200,168.5,201.5z"/>
							<path class="st8" d="M158.9,196c2.6,1.5,3.9,2.2,6.5,3.7c2.6-1.5,3.9-2.2,6.6-3.7c-2.6-1.5-3.9-2.2-6.5-3.7
								C162.8,193.8,161.5,194.5,158.9,196z"/>
							<path class="st8" d="M149.3,190.5c2.6,1.5,3.9,2.2,6.5,3.7c2.6-1.5,3.9-2.2,6.6-3.7c-2.6-1.5-3.9-2.2-6.5-3.7
								C153.3,188.3,152,189,149.3,190.5z"/>
							<path class="st8" d="M139.8,185c2.6,1.5,3.9,2.2,6.5,3.7c2.6-1.5,3.9-2.2,6.6-3.7c-2.6-1.5-3.9-2.2-6.5-3.7
								C143.7,182.8,142.4,183.5,139.8,185z"/>
							<path class="st8" d="M130.2,179.5c2.6,1.5,3.9,2.2,6.5,3.7c2.6-1.5,3.9-2.2,6.6-3.7c-2.6-1.5-3.9-2.2-6.5-3.7
								C134.1,177.3,132.8,178,130.2,179.5z"/>
							<path class="st8" d="M120.6,174c2.6,1.5,3.9,2.2,6.5,3.7c2.6-1.5,3.9-2.2,6.6-3.7c-2.6-1.5-3.9-2.2-6.5-3.7
								C124.6,171.8,123.3,172.6,120.6,174z"/>
							<path class="st8" d="M111.1,168.5c2.6,1.5,3.9,2.2,6.5,3.7c2.6-1.5,3.9-2.2,6.6-3.7c-2.6-1.5-3.9-2.2-6.5-3.7
								C115,166.3,113.7,167.1,111.1,168.5z"/>
							<path class="st8" d="M101.5,163c2.6,1.5,3.9,2.2,6.5,3.7c2.6-1.5,3.9-2.2,6.6-3.7c-2.6-1.5-3.9-2.2-6.5-3.7
								C105.4,160.8,104.1,161.6,101.5,163z"/>
							<path class="st8" d="M91.9,157.6c4.3,2.5,6.5,3.7,10.9,6.2c2.6-1.5,3.9-2.2,6.6-3.7c-4.3-2.5-6.5-3.7-10.9-6.2
								C95.9,155.3,94.6,156.1,91.9,157.6z"/>
							<path class="st8" d="M183.7,220.7c4.3,2.5,6.5,3.7,10.8,6.2c2.6-1.5,3.9-2.2,6.6-3.7c-4.3-2.5-6.5-3.7-10.8-6.2
								C187.6,218.5,186.3,219.2,183.7,220.7z"/>
							<path class="st8" d="M178.4,217.7c2.6,1.5,3.9,2.2,6.5,3.7c2.6-1.5,3.9-2.2,6.6-3.7c-2.6-1.5-3.9-2.2-6.5-3.7
								C182.3,215.5,181,216.2,178.4,217.7z"/>
							<path class="st8" d="M168.8,212.2c2.6,1.5,3.9,2.2,6.5,3.7c2.6-1.5,3.9-2.2,6.6-3.7c-2.6-1.5-3.9-2.2-6.5-3.7
								C172.8,210,171.5,210.7,168.8,212.2z"/>
							<path class="st8" d="M159.3,206.7c2.6,1.5,3.9,2.2,6.5,3.7c2.6-1.5,3.9-2.2,6.6-3.7c-2.6-1.5-3.9-2.2-6.5-3.7
								C163.2,204.5,161.9,205.2,159.3,206.7z"/>
							<path class="st8" d="M149.7,201.2c2.6,1.5,3.9,2.2,6.5,3.7c2.6-1.5,3.9-2.2,6.6-3.7c-2.6-1.5-3.9-2.2-6.5-3.7
								C153.6,199,152.3,199.7,149.7,201.2z"/>
							<path class="st8" d="M140.1,195.7c2.6,1.5,3.9,2.2,6.5,3.7c2.6-1.5,3.9-2.2,6.6-3.7c-2.6-1.5-3.9-2.2-6.5-3.7
								C144.1,193.5,142.8,194.2,140.1,195.7z"/>
							<path class="st8" d="M130.6,190.2c2.6,1.5,3.9,2.2,6.5,3.7c2.6-1.5,3.9-2.2,6.6-3.7c-2.6-1.5-3.9-2.2-6.5-3.7
								C134.5,188,133.2,188.7,130.6,190.2z"/>
							<path class="st8" d="M121,184.7c2.6,1.5,3.9,2.2,6.5,3.7c2.6-1.5,3.9-2.2,6.6-3.7c-2.6-1.5-3.9-2.2-6.5-3.7
								C124.9,182.5,123.6,183.2,121,184.7z"/>
							<path class="st8" d="M111.4,179.2c2.6,1.5,3.9,2.2,6.5,3.7c2.6-1.5,3.9-2.2,6.6-3.7c-2.6-1.5-3.9-2.2-6.5-3.7
								C115.4,177,114.1,177.8,111.4,179.2z"/>
							<path class="st8" d="M101.9,173.7c2.6,1.5,3.9,2.2,6.5,3.7c2.6-1.5,3.9-2.2,6.6-3.7c-2.6-1.5-3.9-2.2-6.5-3.7
								C105.8,171.5,104.5,172.3,101.9,173.7z"/>
							<path class="st8" d="M92.3,168.2c2.6,1.5,3.9,2.2,6.5,3.7c2.6-1.5,3.9-2.2,6.6-3.7c-2.6-1.5-3.9-2.2-6.5-3.7
								C96.2,166,94.9,166.8,92.3,168.2z"/>
							<path class="st8" d="M82.8,162.8c2.6,1.5,3.9,2.2,6.5,3.7c2.6-1.5,3.9-2.2,6.6-3.7c-2.6-1.5-3.9-2.2-6.5-3.7
								C86.7,160.5,85.4,161.3,82.8,162.8z"/>
							<path class="st8" d="M178.8,228.4c2.6,1.5,3.9,2.2,6.5,3.7c2.6-1.5,3.9-2.2,6.6-3.7c-2.6-1.5-3.9-2.2-6.5-3.7
								C182.7,226.1,181.4,226.9,178.8,228.4z"/>
							<path class="st8" d="M169.2,222.9c2.6,1.5,3.9,2.2,6.5,3.7c2.6-1.5,3.9-2.2,6.6-3.7c-2.6-1.5-3.9-2.2-6.5-3.7
								C173.1,220.7,171.8,221.4,169.2,222.9z"/>
							<path class="st8" d="M159.6,217.4c2.6,1.5,3.9,2.2,6.5,3.7c2.6-1.5,3.9-2.2,6.6-3.7c-2.6-1.5-3.9-2.2-6.5-3.7
								C163.6,215.2,162.3,215.9,159.6,217.4z"/>
							<path class="st8" d="M150.1,211.9c2.6,1.5,3.9,2.2,6.5,3.7c2.6-1.5,3.9-2.2,6.6-3.7c-2.6-1.5-3.9-2.2-6.5-3.7
								C154,209.7,152.7,210.4,150.1,211.9z"/>
							<path class="st8" d="M140.5,206.4c2.6,1.5,3.9,2.2,6.5,3.7c2.6-1.5,3.9-2.2,6.6-3.7c-2.6-1.5-3.9-2.2-6.5-3.7
								C144.4,204.2,143.1,204.9,140.5,206.4z"/>
							<path class="st8" d="M130.9,200.9c2.6,1.5,3.9,2.2,6.5,3.7c2.6-1.5,3.9-2.2,6.6-3.7c-2.6-1.5-3.9-2.2-6.5-3.7
								C134.9,198.7,133.6,199.4,130.9,200.9z"/>
							<path class="st8" d="M121.4,195.4c2.6,1.5,3.9,2.2,6.5,3.7c2.6-1.5,3.9-2.2,6.6-3.7c-2.6-1.5-3.9-2.2-6.5-3.7
								C125.3,193.2,124,193.9,121.4,195.4z"/>
							<path class="st8" d="M111.8,189.9c2.6,1.5,3.9,2.2,6.5,3.7c2.6-1.5,3.9-2.2,6.6-3.7c-2.6-1.5-3.9-2.2-6.5-3.7
								C115.7,187.7,114.4,188.4,111.8,189.9z"/>
							<path class="st8" d="M102.3,184.4c2.6,1.5,3.9,2.2,6.5,3.7c2.6-1.5,3.9-2.2,6.6-3.7c-2.6-1.5-3.9-2.2-6.5-3.7
								C106.2,182.2,104.9,182.9,102.3,184.4z"/>
							<path class="st8" d="M92.7,178.9c2.6,1.5,3.9,2.2,6.5,3.7c2.6-1.5,3.9-2.2,6.6-3.7c-2.6-1.5-3.9-2.2-6.5-3.7
								C96.6,176.7,95.3,177.5,92.7,178.9z"/>
							<path class="st8" d="M79,171.1c4.2,2.4,6.4,3.7,10.6,6.1c2.6-1.5,3.9-2.2,6.6-3.7c-4.2-2.4-6.4-3.7-10.6-6.1
								C82.9,168.9,81.6,169.6,79,171.1z"/>
							<path class="st8" d="M73.6,168c2.6,1.5,3.9,2.2,6.5,3.7c2.6-1.5,3.9-2.2,6.6-3.7c-2.6-1.5-3.9-2.2-6.5-3.7
								C77.5,165.7,76.2,166.5,73.6,168z"/>
							<path class="st8" d="M168.3,234.3c2.6,1.5,3.9,2.2,6.5,3.7c2.6-1.5,3.9-2.2,6.6-3.7c-2.6-1.5-3.9-2.2-6.5-3.7
								C172.2,232.1,170.9,232.8,168.3,234.3z"/>
							<path class="st8" d="M158.7,228.8c2.6,1.5,3.9,2.2,6.5,3.7c2.6-1.5,3.9-2.2,6.6-3.7c-2.6-1.5-3.9-2.2-6.5-3.7
								C162.7,226.6,161.4,227.3,158.7,228.8z"/>
							<path class="st8" d="M149.2,223.3c2.6,1.5,3.9,2.2,6.5,3.7c2.6-1.5,3.9-2.2,6.6-3.7c-2.6-1.5-3.9-2.2-6.5-3.7
								C153.1,221.1,151.8,221.8,149.2,223.3z"/>
							<path class="st8" d="M91.8,190.3c18.1,10.4,36.2,20.8,54.3,31.2c2.6-1.5,3.9-2.2,6.6-3.7c-18.1-10.4-36.2-20.8-54.3-31.2
								C95.7,188.1,94.4,188.9,91.8,190.3z"/>
							<path class="st8" d="M82.2,184.9c2.6,1.5,3.9,2.2,6.5,3.7c2.6-1.5,3.9-2.2,6.6-3.7c-2.6-1.5-3.9-2.2-6.5-3.7
								C86.2,182.6,84.8,183.4,82.2,184.9z"/>
							<path class="st8" d="M72.7,179.4c2.6,1.5,3.9,2.2,6.5,3.7c2.6-1.5,3.9-2.2,6.6-3.7c-2.6-1.5-3.9-2.2-6.5-3.7
								C76.6,177.1,75.3,177.9,72.7,179.4z"/>
							<path class="st8" d="M63.1,173.9c2.6,1.5,3.9,2.2,6.5,3.7c2.6-1.5,3.9-2.2,6.6-3.7c-2.6-1.5-3.9-2.2-6.5-3.7
								C67,171.6,65.7,172.4,63.1,173.9z"/>
						</g>
					</g>
					
						<linearGradient id="SVGID_5_" gradientUnits="userSpaceOnUse" x1="3438.6787" y1="66.538" x2="3460.5601" y2="34.7746" gradientTransform="matrix(-1 0 0 -1 3549.7007 271.2813)">
						<stop  offset="0" style="stop-color:#55C8FF"/>
						<stop  offset="7.374626e-02" style="stop-color:#4CB4EC"/>
						<stop  offset="0.3176" style="stop-color:#3277B3"/>
						<stop  offset="0.5409" style="stop-color:#1D4686"/>
						<stop  offset="0.7361" style="stop-color:#0E2365"/>
						<stop  offset="0.8958" style="stop-color:#040E51"/>
						<stop  offset="1" style="stop-color:#01064A"/>
					</linearGradient>
					<polygon class="st9" points="136.2,224.2 91.5,198.4 66,214.1 110.6,239.9 					"/>
					
						<linearGradient id="SVGID_6_" gradientUnits="userSpaceOnUse" x1="195.5174" y1="200.0023" x2="160.6395" y2="107.7907" gradientTransform="matrix(1 0 0 -1 0 271.2813)">
						<stop  offset="0" style="stop-color:#55C8FF"/>
						<stop  offset="0.4452" style="stop-color:#2D6BA9"/>
						<stop  offset="0.825" style="stop-color:#0D2265"/>
						<stop  offset="1" style="stop-color:#01064A"/>
					</linearGradient>
					<path class="st10" d="M242.3,102.5c0-3-1.6-5.8-4.2-7.3L117.9,26.4c-2.7-1.5-6,0.4-6,3.5l0.3,106.3l130.2,74.3L242.3,102.5z
						 M117.3,132.5V32.6L236.5,101l0.2,100.1L117.3,132.5z"/>
				</g>
			</g>
		</g>
		<g>
			<g>
				<g class="st11">
					<polygon class="st12" points="219.7,137.5 219.6,152.4 223.7,150.4 223.7,135.5 					"/>
					<polygon class="st13" points="131.3,82.1 127.2,84.1 219.7,137.5 223.7,135.5 					"/>
					<polygon class="st7" points="127.2,84.1 127.2,99.1 219.6,152.4 219.7,137.5 					"/>
					<polygon class="st14" points="133.2,92.7 213.2,138.7 213.2,143.9 133.2,98 					"/>
				</g>
			</g>
			
				<linearGradient id="SVGID_7_" gradientUnits="userSpaceOnUse" x1="176.5536" y1="162.1649" x2="87.4139" y2="13.9117" gradientTransform="matrix(1 0 0 -1 0 271.2813)">
				<stop  offset="0" style="stop-color:#A4F5FF"/>
				<stop  offset="0.2484" style="stop-color:#6FA8C4"/>
				<stop  offset="0.3919" style="stop-color:#5480A6"/>
				<stop  offset="0.539" style="stop-color:#669BBA"/>
				<stop  offset="0.7596" style="stop-color:#7EBED5"/>
				<stop  offset="0.8784" style="stop-color:#87CBDF"/>
				<stop  offset="0.8968" style="stop-color:#82C3D9"/>
				<stop  offset="0.9256" style="stop-color:#73ADC8"/>
				<stop  offset="0.9612" style="stop-color:#5A88AD"/>
				<stop  offset="1" style="stop-color:#3A5989"/>
			</linearGradient>
			<path class="st15" d="M137.9,95.4l-1.9,1.2c-5.2,3.3-8.3,9-8.3,15.2v17.3c0,9.1-1.5,18.1-4.3,26.8l0,0c-1.2,3.6-3.6,6.6-6.9,8.5
				l-65,38.4c-7.4,4.4-13.7,10.4-18.3,17.7l0,0c-1.5,2.3-0.7,5.5,1.7,6.9l66.2,38.8c2.8,1.6,6.4,0.5,7.7-2.5l0,0
				c3-6.8,8.1-12.4,14.6-16.1l62.9-36.3c6.9-4,12.3-10.2,15.3-17.7l0,0c2-5.2,3.1-10.7,3.1-16.2v-27c0-4.7,2.2-9.2,6-12l0.8-0.6
				L137.9,95.4z"/>
			<g>
				<polygon class="st16" points="178.7,202 177.9,202.5 124.2,171 125.1,170.5 				"/>
				<polygon class="st16" points="175.8,203.7 174.9,204.2 121.3,172.7 122.2,172.2 				"/>
				<polygon class="st16" points="172.8,205.4 172,205.9 118.4,174.4 119.2,173.9 				"/>
				<polygon class="st16" points="169.9,207.1 169,207.6 115.4,176.1 116.3,175.6 				"/>
				<polygon class="st16" points="167,208.8 166.1,209.3 112.5,177.8 113.4,177.3 				"/>
				<polygon class="st16" points="164,210.5 163.2,211 109.6,179.5 110.4,179 				"/>
				<polygon class="st16" points="161.1,212.2 160.2,212.7 106.6,181.2 107.5,180.7 				"/>
				<polygon class="st16" points="158.2,213.9 157.3,214.4 103.7,182.9 104.5,182.4 				"/>
			</g>
			<g>
				<polygon class="st16" points="190.7,150.9 190.7,151.9 139.4,121.8 139.4,120.8 				"/>
				<polygon class="st16" points="190.7,154.1 190.7,155.1 139.4,125 139.4,124 				"/>
				<polygon class="st16" points="190.7,157.2 190.7,158.2 139.4,128.1 139.4,127.1 				"/>
				<polygon class="st16" points="190.7,160.3 190.7,161.3 139.4,131.2 139.4,130.2 				"/>
				<polygon class="st16" points="190.7,163.5 190.7,164.5 139.4,134.4 139.4,133.4 				"/>
				<polygon class="st16" points="190.7,166.6 190.7,167.6 139.4,137.5 139.4,136.5 				"/>
				<polygon class="st16" points="190.7,169.7 190.7,170.7 139.4,140.6 139.4,139.6 				"/>
				<polygon class="st16" points="190.7,172.9 190.7,173.9 139.4,143.8 139.4,142.8 				"/>
			</g>
			<g>
				<polygon class="st16" points="144.9,221.8 144,222.3 90.4,190.9 91.3,190.4 				"/>
				<polygon class="st16" points="141.9,223.5 141.1,224 87.5,192.5 88.3,192.1 				"/>
				<polygon class="st16" points="139,225.2 138.1,225.7 84.5,194.2 85.4,193.7 				"/>
				<polygon class="st16" points="136.1,226.9 135.2,227.4 81.6,195.9 82.4,195.4 				"/>
				<polygon class="st16" points="133.1,228.6 132.3,229.1 78.6,197.6 79.5,197.1 				"/>
				<polygon class="st16" points="130.2,230.3 129.3,230.8 75.7,199.3 76.6,198.8 				"/>
				<polygon class="st16" points="127.3,232 126.4,232.5 72.8,201 73.6,200.5 				"/>
				<polygon class="st16" points="124.3,233.7 123.5,234.2 69.8,202.7 70.7,202.2 				"/>
				<polygon class="st16" points="121.4,235.4 120.5,235.9 66.9,204.4 67.8,203.9 				"/>
			</g>
		</g>
	</g>
	<g>
		<g>
			<g>
				<g>
					
						<linearGradient id="SVGID_8_" gradientUnits="userSpaceOnUse" x1="-2585.135" y1="169.8638" x2="-2573.521" y2="169.8638" gradientTransform="matrix(1 0 0 -1 2752.626 271.2813)">
						<stop  offset="0" style="stop-color:#01064A"/>
						<stop  offset="0.1724" style="stop-color:#02094D"/>
						<stop  offset="0.3178" style="stop-color:#071457"/>
						<stop  offset="0.4536" style="stop-color:#0F2567"/>
						<stop  offset="0.5834" style="stop-color:#193E7E"/>
						<stop  offset="0.7091" style="stop-color:#275E9C"/>
						<stop  offset="0.8316" style="stop-color:#3885C0"/>
						<stop  offset="0.9493" style="stop-color:#4BB2EB"/>
						<stop  offset="1" style="stop-color:#55C8FF"/>
					</linearGradient>
					<path class="st17" d="M179,97.4l0.1,2c0,0-0.9,1.5-2.4,2.4c0-0.5,0-0.5,0-0.5s-2.6,4.1-5.4,4.2c-2.3,0-3.8,0-3.8-2.7
						C167.5,100.1,179,97.4,179,97.4z"/>
					
						<linearGradient id="SVGID_9_" gradientUnits="userSpaceOnUse" x1="-2585.1511" y1="173.5357" x2="-2575.0576" y2="168.995" gradientTransform="matrix(1 0 0 -1 2752.626 271.2813)">
						<stop  offset="0" style="stop-color:#55C8FF"/>
						<stop  offset="5.066156e-02" style="stop-color:#4BB2EB"/>
						<stop  offset="0.1684" style="stop-color:#3885C0"/>
						<stop  offset="0.2909" style="stop-color:#275E9C"/>
						<stop  offset="0.4166" style="stop-color:#193E7E"/>
						<stop  offset="0.5464" style="stop-color:#0F2567"/>
						<stop  offset="0.6822" style="stop-color:#071457"/>
						<stop  offset="0.8276" style="stop-color:#02094D"/>
						<stop  offset="1" style="stop-color:#01064A"/>
					</linearGradient>
					<path class="st18" d="M171.8,97c0,0-3.4,3.6-4.1,4.8c-0.7,1.2-0.3,4.5,4.6,3c2.2-0.9,3.1-2.8,3.6-3.6c0.4-0.6,2.2-2.4,3.2-3.5
						c0.4-0.4,0.7-0.7,0.7-0.7S178.2,94.6,171.8,97z"/>
				</g>
				
					<linearGradient id="SVGID_10_" gradientUnits="userSpaceOnUse" x1="-2588.4253" y1="197.1278" x2="-2554.9849" y2="193.3379" gradientTransform="matrix(1 0 0 -1 2752.626 271.2813)">
					<stop  offset="0" style="stop-color:#55C8FF"/>
					<stop  offset="2.726507e-02" style="stop-color:#4DB6EE"/>
					<stop  offset="9.883374e-02" style="stop-color:#3B8DC8"/>
					<stop  offset="0.1769" style="stop-color:#2C69A6"/>
					<stop  offset="0.2606" style="stop-color:#1E4A89"/>
					<stop  offset="0.3519" style="stop-color:#143172"/>
					<stop  offset="0.4535" style="stop-color:#0B1E60"/>
					<stop  offset="0.5713" style="stop-color:#051054"/>
					<stop  offset="0.72" style="stop-color:#02084C"/>
					<stop  offset="1" style="stop-color:#01064A"/>
				</linearGradient>
				<path class="st19" d="M200.3,55.4c0,0,1.9,9-7,13.3c-9.8,4.7-9.6,5.7-9.6,5.7s-1,7.2-1.9,13c-0.8,5.8-1.7,9.9-1.7,9.9
					s-4.6,2.2-8.8,0c0,0,2.2-7.1,2.7-10.7c0.5-3.7,0.8-11.9,0.8-11.9s-0.5-6.9,5.4-10.6c6-3.7,6.5-8.2,6.5-8.2L200.3,55.4z"/>
			</g>
			<g>
				<g>
					
						<linearGradient id="SVGID_11_" gradientUnits="userSpaceOnUse" x1="-2596.6794" y1="175.7067" x2="-2581.8748" y2="175.7067" gradientTransform="matrix(1 0 0 -1 2752.626 271.2813)">
						<stop  offset="0" style="stop-color:#01064A"/>
						<stop  offset="0.1724" style="stop-color:#02094D"/>
						<stop  offset="0.3178" style="stop-color:#071457"/>
						<stop  offset="0.4536" style="stop-color:#0F2567"/>
						<stop  offset="0.5834" style="stop-color:#193E7E"/>
						<stop  offset="0.7091" style="stop-color:#275E9C"/>
						<stop  offset="0.8316" style="stop-color:#3885C0"/>
						<stop  offset="0.9493" style="stop-color:#4BB2EB"/>
						<stop  offset="1" style="stop-color:#55C8FF"/>
					</linearGradient>
					<path class="st20" d="M170.6,93c0,0,0.4,1.8-0.1,2.2c-0.5,0.4-2.7,0.8-3.6,0.9c-0.3-0.7-0.2-0.8-0.2-0.8s-1.3,0.4-2.4,0.7
						c-1.2,0.4-6.2,2.4-7.2,2.2c-1-0.2-1.4-1.2-1-2C156.5,95.3,170.6,93,170.6,93z"/>
					
						<linearGradient id="SVGID_12_" gradientUnits="userSpaceOnUse" x1="-2595.7214" y1="179.455" x2="-2586.6548" y2="175.2933" gradientTransform="matrix(1 0 0 -1 2752.626 271.2813)">
						<stop  offset="0" style="stop-color:#55C8FF"/>
						<stop  offset="5.066156e-02" style="stop-color:#4BB2EB"/>
						<stop  offset="0.1684" style="stop-color:#3885C0"/>
						<stop  offset="0.2909" style="stop-color:#275E9C"/>
						<stop  offset="0.4166" style="stop-color:#193E7E"/>
						<stop  offset="0.5464" style="stop-color:#0F2567"/>
						<stop  offset="0.6822" style="stop-color:#071457"/>
						<stop  offset="0.8276" style="stop-color:#02094D"/>
						<stop  offset="1" style="stop-color:#01064A"/>
					</linearGradient>
					<path class="st21" d="M163,90.9c0,0-2,1.6-4.5,2.6c-2.6,1-2.4,3-2.3,3.1s0.9,1.1,2.9,0.5s3.3-1.1,4.8-1.7
						c1-0.3,1.4-0.3,2.8-0.8c1.3-0.5,4.2-1.1,4.1-1.5C170.7,92.7,164.4,90.6,163,90.9z"/>
				</g>
				
					<linearGradient id="SVGID_13_" gradientUnits="userSpaceOnUse" x1="-2593.897" y1="202.6592" x2="-2567.5483" y2="197.4995" gradientTransform="matrix(1 0 0 -1 2752.626 271.2813)">
					<stop  offset="0" style="stop-color:#55C8FF"/>
					<stop  offset="2.726507e-02" style="stop-color:#4DB6EE"/>
					<stop  offset="9.883374e-02" style="stop-color:#3B8DC8"/>
					<stop  offset="0.1769" style="stop-color:#2C69A6"/>
					<stop  offset="0.2606" style="stop-color:#1E4A89"/>
					<stop  offset="0.3519" style="stop-color:#143172"/>
					<stop  offset="0.4535" style="stop-color:#0B1E60"/>
					<stop  offset="0.5713" style="stop-color:#051054"/>
					<stop  offset="0.72" style="stop-color:#02084C"/>
					<stop  offset="1" style="stop-color:#01064A"/>
				</linearGradient>
				<path class="st22" d="M183.1,50.8c0,0-12.1,6.4-18.3,10.7c-2.3,2-3.1,5.4-2.5,9.2s1.4,18.1,0.1,20.5c0,0,4.8,2.4,8.4,2.1
					c0,0-0.1-6.6,0-13.5s-0.7-11.5-0.7-11.5s7.6-2.3,15.8-8l3-4.5L183.1,50.8z"/>
			</g>
		</g>
		<g>
			<path class="st7" d="M197.3,21.4h-12.6l-2.3,30.2c0,0,2.5,3.8,7.2,4.2l4.6-11.2L197.3,21.4z"/>
			<polygon class="st23" points="187.5,25.4 188.6,26.9 190.2,25.8 189.5,22.9 			"/>
			<path class="st23" d="M188.4,26.4c0,0-3.8,8.7-3.8,17.6l1.1,2.3l1.4-1.9c0,0-0.7-8.7,1.8-18H188.4z"/>
			
				<linearGradient id="SVGID_14_" gradientUnits="userSpaceOnUse" x1="-2562.6833" y1="246.8638" x2="-2556.752" y2="246.8638" gradientTransform="matrix(1 0 0 -1 2752.626 271.2813)">
				<stop  offset="0" style="stop-color:#55C8FF"/>
				<stop  offset="8.900958e-02" style="stop-color:#48AAE3"/>
				<stop  offset="0.2542" style="stop-color:#3379B5"/>
				<stop  offset="0.4179" style="stop-color:#214F8E"/>
				<stop  offset="0.5768" style="stop-color:#132F71"/>
				<stop  offset="0.7296" style="stop-color:#09185B"/>
				<stop  offset="0.8737" style="stop-color:#030B4E"/>
				<stop  offset="1" style="stop-color:#01064A"/>
			</linearGradient>
			<polygon class="st24" points="189.9,23.6 190.4,27.3 195.9,23.1 195,21.6 			"/>
			
				<linearGradient id="SVGID_15_" gradientUnits="userSpaceOnUse" x1="-2565.8975" y1="246.6638" x2="-2563.0618" y2="246.6638" gradientTransform="matrix(1 0 0 -1 2752.626 271.2813)">
				<stop  offset="0" style="stop-color:#55C8FF"/>
				<stop  offset="8.900958e-02" style="stop-color:#48AAE3"/>
				<stop  offset="0.2542" style="stop-color:#3379B5"/>
				<stop  offset="0.4179" style="stop-color:#214F8E"/>
				<stop  offset="0.5768" style="stop-color:#132F71"/>
				<stop  offset="0.7296" style="stop-color:#09185B"/>
				<stop  offset="0.8737" style="stop-color:#030B4E"/>
				<stop  offset="1" style="stop-color:#01064A"/>
			</linearGradient>
			<polygon class="st25" points="189.5,22.9 187.3,26.4 186.7,24.1 			"/>
			<g>
				<polygon class="st7" points="189.5,23.1 189.9,26.9 195.9,22.8 196.1,18.5 193.6,16.6 				"/>
				<polygon class="st7" points="189.5,23.1 186.9,26 185.6,21.5 185.1,19.1 187.8,18.4 				"/>
			</g>
		</g>
		<g>
			
				<linearGradient id="SVGID_16_" gradientUnits="userSpaceOnUse" x1="-2574.1282" y1="234.9354" x2="-2566.3809" y2="234.2472" gradientTransform="matrix(1 0 0 -1 2752.626 271.2813)">
				<stop  offset="0" style="stop-color:#01064A"/>
				<stop  offset="0.2032" style="stop-color:#02094D"/>
				<stop  offset="0.3505" style="stop-color:#061255"/>
				<stop  offset="0.4802" style="stop-color:#0D2264"/>
				<stop  offset="0.5997" style="stop-color:#173879"/>
				<stop  offset="0.7123" style="stop-color:#235594"/>
				<stop  offset="0.8197" style="stop-color:#3379B5"/>
				<stop  offset="0.9209" style="stop-color:#45A2DC"/>
				<stop  offset="1" style="stop-color:#55C8FF"/>
			</linearGradient>
			<path class="st26" d="M186.2,17.6c-0.1,0.4-0.3,1.6-0.5,3c-0.4,3-0.8,7.4-0.8,9.1c0,2.5-1,8.5-1.2,12c0,0.6-0.1,1.4-0.2,2.4l0,0
				c-0.3,4.6-1,12.1-1,12.1c-2.1-0.5-4.1-3.9-4.1-3.9s3.2-6.6,3.3-14.3C181.2,22.2,186.2,17.6,186.2,17.6z"/>
			
				<linearGradient id="SVGID_17_" gradientUnits="userSpaceOnUse" x1="-2569.7168" y1="239.7398" x2="-2567.2463" y2="239.4856" gradientTransform="matrix(1 0 0 -1 2752.626 271.2813)">
				<stop  offset="0" style="stop-color:#01064A"/>
				<stop  offset="0.2493" style="stop-color:#02094C"/>
				<stop  offset="0.398" style="stop-color:#061154"/>
				<stop  offset="0.5204" style="stop-color:#0C1F61"/>
				<stop  offset="0.6285" style="stop-color:#153374"/>
				<stop  offset="0.727" style="stop-color:#204E8D"/>
				<stop  offset="0.8188" style="stop-color:#2E6EAB"/>
				<stop  offset="0.9052" style="stop-color:#3F94CF"/>
				<stop  offset="0.9853" style="stop-color:#51BFF7"/>
				<stop  offset="1" style="stop-color:#55C8FF"/>
			</linearGradient>
			<path class="st27" d="M185.7,19.3v1.4c-0.4,3-0.8,7.4-0.8,9.1c0,2.5-1,8.5-1.2,12c0,0.6-0.1,1.4-0.2,2.4l0,0l0,0
				c0,0-0.4-4.2-0.3-8.2c0.1-4,0-7.7,0-7.7l1.3-0.7l-0.7-1.1L185.7,19.3z"/>
		</g>
		<g>
			
				<linearGradient id="SVGID_18_" gradientUnits="userSpaceOnUse" x1="-2565.5061" y1="232.4626" x2="-2549.3796" y2="232.4626" gradientTransform="matrix(1 0 0 -1 2752.626 271.2813)">
				<stop  offset="0" style="stop-color:#55C8FF"/>
				<stop  offset="1.465881e-02" style="stop-color:#51BFF7"/>
				<stop  offset="9.478771e-02" style="stop-color:#3F94CF"/>
				<stop  offset="0.1812" style="stop-color:#2E6EAB"/>
				<stop  offset="0.273" style="stop-color:#204E8D"/>
				<stop  offset="0.3715" style="stop-color:#153374"/>
				<stop  offset="0.4796" style="stop-color:#0C1F61"/>
				<stop  offset="0.602" style="stop-color:#061154"/>
				<stop  offset="0.7507" style="stop-color:#02094C"/>
				<stop  offset="1" style="stop-color:#01064A"/>
			</linearGradient>
			<path class="st28" d="M199.2,42.5c0.8,8.2,2.1,14.7,2.1,14.7s-5.1,4.2-14.2,1c0,0,0.4-6.9,0.8-12.7c0.2-3.1,0.4-5.9,0.6-7.1
				c0.5-3.4,4.3-11.4,6-14.3s1.4-5.4,1.4-5.8l0,0l0,0l0,0c0.4,0.3,5.2,3.6,7.3,9C203.2,30,198.4,34.3,199.2,42.5z"/>
			
				<linearGradient id="SVGID_19_" gradientUnits="userSpaceOnUse" x1="-2562.7246" y1="240.1664" x2="-2558.4773" y2="238.5001" gradientTransform="matrix(1 0 0 -1 2752.626 271.2813)">
				<stop  offset="0" style="stop-color:#55C8FF"/>
				<stop  offset="1.465881e-02" style="stop-color:#51BFF7"/>
				<stop  offset="9.478771e-02" style="stop-color:#3F94CF"/>
				<stop  offset="0.1812" style="stop-color:#2E6EAB"/>
				<stop  offset="0.273" style="stop-color:#204E8D"/>
				<stop  offset="0.3715" style="stop-color:#153374"/>
				<stop  offset="0.4796" style="stop-color:#0C1F61"/>
				<stop  offset="0.602" style="stop-color:#061154"/>
				<stop  offset="0.7507" style="stop-color:#02094C"/>
				<stop  offset="1" style="stop-color:#01064A"/>
			</linearGradient>
			<path class="st29" d="M193.7,29.9l-1.4,0.3l0.9,2l-5.4,13.3c0.2-3.1,0.4-5.9,0.6-7.1c0.5-3.4,4.3-11.4,6-14.3s1.4-5.4,1.4-5.8
				l0,0l0,0l0,0C195.9,18.7,196.3,22.9,193.7,29.9z"/>
		</g>
		<g>
			<path class="st30" d="M163.5,55.3l10.9-6.4c0.5-0.3,1-0.3,1.5,0l16.7,9.4l0.1-0.4h0.6v1.2l0,0l0,0l0,0c0,0.3-0.1,0.5-0.4,0.7
				L182,66c-0.6,0.3-1.3,0.3-1.9,0l-16.4-9.5C163,56.2,163,55.6,163.5,55.3z"/>
			<path class="st31" d="M192.7,57.3l-16.9-9.6c-0.5-0.3-1-0.3-1.5,0l-10.9,6.4c-0.5,0.3-0.5,0.9,0,1.2l16.4,9.5
				c0.6,0.3,1.3,0.3,1.9,0l10.9-6.2C193.3,58.4,193.3,57.6,192.7,57.3z"/>
			<g>
				<polygon class="st32" points="184.8,58.7 184,59.2 185.1,59.8 185.9,59.4 				"/>
				<polygon class="st32" points="183.5,58 182.7,58.4 183.8,59 184.5,58.6 				"/>
				<polygon class="st32" points="182.3,57.3 181.5,57.7 182.5,58.3 183.3,57.9 				"/>
				<polygon class="st32" points="176.6,54 175.8,54.4 181.3,57.6 181.3,57.6 182,57.1 				"/>
				<polygon class="st32" points="175.3,53.2 174.5,53.7 175.6,54.3 176.3,53.8 				"/>
				<polygon class="st32" points="174.1,52.5 173.3,53 174.3,53.6 174.3,53.6 175.1,53.1 				"/>
				<polygon class="st32" points="171.7,52.1 173,52.9 173.8,52.4 172.5,51.6 				"/>
				<polygon class="st32" points="183,59 182.2,59.5 184,60.5 184.8,60 				"/>
				<polygon class="st32" points="181.8,58.3 181,58.7 182,59.3 182.8,58.9 				"/>
				<polygon class="st32" points="180.6,57.6 179.8,58 180.8,58.6 181.6,58.2 				"/>
				<polygon class="st32" points="179.4,56.9 178.6,57.3 179.6,57.9 180.3,57.5 				"/>
				<polygon class="st32" points="178.2,56.2 177.4,56.7 178.4,57.2 179.2,56.8 				"/>
				<polygon class="st32" points="176.9,55.5 176.2,55.9 177.2,56.5 177.2,56.5 177.9,56.1 				"/>
				<polygon class="st32" points="175.7,54.8 175,55.3 175.9,55.8 176.7,55.4 				"/>
				<polygon class="st32" points="174.6,54.1 173.8,54.6 174.7,55.1 174.7,55.1 175.5,54.7 				"/>
				<polygon class="st32" points="173.4,53.4 172.6,53.9 173.5,54.4 174.3,54 				"/>
				<polygon class="st32" points="170.6,52.7 172.3,53.7 173.1,53.3 171.4,52.3 				"/>
				<polygon class="st32" points="182.3,60.1 181.7,60.5 182.9,61.2 183.7,60.7 182.5,60 				"/>
				<polygon class="st32" points="181.1,59.4 180.5,59.7 181.5,60.3 182.1,60 182.3,59.9 181.2,59.3 				"/>
				<polygon class="st32" points="179.9,58.7 179.2,59.1 180.2,59.6 180.9,59.3 181,59.2 180,58.6 				"/>
				<polygon class="st32" points="178.7,58 178,58.4 179,58.9 179,58.9 179.7,58.6 179.8,58.5 178.8,57.9 				"/>
				<polygon class="st32" points="177.5,57.3 176.8,57.7 177.8,58.2 178.5,57.9 178.6,57.8 177.6,57.2 				"/>
				<polygon class="st32" points="176.2,56.6 175.6,57 176.6,57.5 177.2,57.2 177.2,57.2 177.4,57.1 176.4,56.5 				"/>
				<polygon class="st32" points="175,55.9 174.4,56.3 175.4,56.8 176,56.5 176.2,56.4 175.2,55.8 				"/>
				<polygon class="st32" points="173.9,55.2 173.2,55.6 174.2,56.1 174.8,55.8 174.8,55.8 175,55.7 174,55.1 				"/>
				<polygon class="st32" points="172.7,54.5 172,54.9 173,55.5 173.6,55.1 173.8,55 172.8,54.4 				"/>
				<polygon class="st32" points="169.5,53.4 171.8,54.8 172.4,54.4 172.6,54.3 170.2,52.9 				"/>
				<polygon class="st32" points="181.4,61 180.9,61.3 181.8,61.8 182.6,61.3 181.7,60.8 181.6,60.9 				"/>
				<polygon class="st32" points="180.2,60.2 179.7,60.6 180.7,61.1 181.2,60.8 181.4,60.7 181.5,60.7 180.4,60.1 180.4,60.2 				
					"/>
				<polygon class="st32" points="179,59.6 178.5,59.9 179.4,60.4 180,60.1 180.1,60 180.2,60 179.2,59.4 179.2,59.5 				"/>
				<polygon class="st32" points="177.8,58.9 177.3,59.2 178.2,59.7 178.8,59.4 178.9,59.3 178.9,59.3 179,59.3 178,58.7 178,58.7 
					178,58.8 				"/>
				<polygon class="st32" points="176.6,58.2 176,58.5 177,59 177.6,58.7 177.7,58.6 177.8,58.6 176.8,58 176.7,58.1 				"/>
				<polygon class="st32" points="175.4,57.5 174.8,57.8 175.8,58.3 176.4,58 176.4,58 176.5,57.9 176.6,57.9 175.6,57.3 
					175.5,57.4 				"/>
				<polygon class="st32" points="174.2,56.8 173.6,57.1 174.6,57.6 175.1,57.3 175.3,57.2 175.4,57.2 174.4,56.6 174.4,56.6 
					174.3,56.7 				"/>
				<polygon class="st32" points="173,56.1 172.4,56.4 173.4,56.9 173.9,56.6 173.9,56.6 174.1,56.5 174.2,56.5 173.2,55.9 
					173.1,56 				"/>
				<polygon class="st32" points="171.8,55.4 171.2,55.7 172.2,56.3 172.8,56 172.9,55.9 173,55.8 172,55.2 171.9,55.3 				"/>
				<polygon class="st32" points="168.4,54 171,55.6 171.6,55.3 171.7,55.2 171.8,55.1 169.2,53.6 				"/>
				<polygon class="st32" points="179.9,61.3 179.3,61.6 180.7,62.5 181.5,62 180,61.2 180,61.2 				"/>
				<polygon class="st32" points="178.7,60.5 178,60.9 179,61.5 179.7,61.1 179.8,61.1 179.8,61.1 178.8,60.5 178.8,60.5 				"/>
				<polygon class="st32" points="177.5,59.8 176.8,60.2 177.8,60.8 178.5,60.4 178.5,60.4 178.6,60.3 177.6,59.8 177.6,59.8 				
					"/>
				<polygon class="st32" points="176.3,59.2 175.6,59.5 176.6,60.1 177.3,59.7 177.3,59.7 177.3,59.7 177.4,59.6 176.4,59.1 
					176.4,59.1 176.4,59.1 				"/>
				<polygon class="st32" points="175.1,58.5 174.4,58.8 175.4,59.4 176.1,59 176.1,59 176.2,59 175.2,58.4 175.2,58.4 				"/>
				<polygon class="st32" points="173.8,57.8 173.2,58.1 174.2,58.7 174.8,58.3 174.9,58.3 175,58.3 174,57.7 173.9,57.7 				"/>
				<polygon class="st32" points="172.6,57.1 172,57.4 173,58 173.6,57.6 173.7,57.6 173.8,57.5 172.8,57 172.7,57 				"/>
				<polygon class="st32" points="171.5,56.4 170.8,56.8 171.8,57.3 172.4,56.9 172.5,56.9 172.6,56.9 171.6,56.3 171.5,56.3 				
					"/>
				<polygon class="st32" points="170.3,55.7 169.6,56.1 170.6,56.6 171.2,56.3 171.3,56.2 171.4,56.2 170.4,55.6 170.4,55.6 
					170.3,55.6 				"/>
				<polygon class="st32" points="167.2,54.7 169.4,55.9 170,55.6 170.1,55.5 170.2,55.5 168,54.2 				"/>
			</g>
			
				<linearGradient id="SVGID_20_" gradientUnits="userSpaceOnUse" x1="-2578.1582" y1="230.2738" x2="-2580.1648" y2="219.498" gradientTransform="matrix(1 0 0 -1 2752.626 271.2813)">
				<stop  offset="0" style="stop-color:#01064A"/>
				<stop  offset="0.169" style="stop-color:#162864"/>
				<stop  offset="0.5442" style="stop-color:#4D80A8"/>
				<stop  offset="1" style="stop-color:#94F1FF"/>
			</linearGradient>
			<path class="st33" d="M176.4,45.2c0,0-0.6,1.3-0.4,1.9c0.2,0.6,0.3,1.6,0.3,2.4c0,0.6-0.6,1.9-0.6,1.9s-0.5,0.4-0.8,0.1
				c-0.3-0.3-0.2-0.7,0-0.9s0.3-0.5,0.2-1s-0.2-0.5-0.2-0.5s-0.3,0.3-0.5,1.1c-0.3,1.2-0.4,1.9-0.4,2.8c0,0.7-0.7,0.7-0.9,0.5
				c-0.1-0.2-0.3-0.6-0.1-1.2c0.2-0.6,0.3-1.6,0.2-1.9c0-0.3,0.1-0.8-0.1-0.6c-0.1,0.1-0.4,1-0.4,1.3c0,0.2-0.4,1.7-0.6,1.8
				c-0.3,0.1-0.8-0.4-0.7-1.1c0.2-0.7,0.6-2,0.6-2s-0.1-0.3-0.4,0c-0.3,0.3-0.5,1.2-0.7,1.4c-0.3,0.4-0.9,0.1-0.7-0.7
				c0.1-0.7,0.8-1.5,0.8-1.7c0.1-0.2-0.4,0.2-0.5,0.3c0,0.1-0.5,0.6-0.6,0.6c-0.6,0.2-0.6-0.2-0.2-0.8c0.4-0.6,0.9-0.9,1.4-1.6
				c0.5-0.6,2.2-3,2.3-3.3C173.7,44,175.2,43.9,176.4,45.2z"/>
			<path class="st34" d="M155.6,42.6l0.3-0.2l0,0l0,0l0,0c0.1-0.1,0.3-0.1,0.4,0l16.3,9.7c0.3,0.2,0.5,0.4,0.7,0.7l7.6,12.5
				l-0.3,0.3l-1-0.8h0.2l-16.7-9.6l-7.3-12.1c0-0.1-0.1-0.2-0.1-0.2L155.6,42.6z"/>
			<path class="st35" d="M180.6,65.5L173,53c-0.2-0.3-0.4-0.5-0.7-0.7L156,42.6c-0.3-0.2-0.7,0.2-0.5,0.5l7.3,12.1L180.6,65.5z"/>
			<polygon class="st32" points="185.7,54.8 182.5,56.7 177.4,53.7 180.6,51.8 			"/>
		</g>
		<g>
			<path class="st7" d="M173.4,43.1l-1,1.6c0,0,2.5,0.1,3.9,1.9l1-1.5C177.4,45.1,176,43.6,173.4,43.1z"/>
			
				<linearGradient id="SVGID_21_" gradientUnits="userSpaceOnUse" x1="-2583.168" y1="234.667" x2="-2567.7102" y2="240.9095" gradientTransform="matrix(1 0 0 -1 2752.626 271.2813)">
				<stop  offset="0" style="stop-color:#55C8FF"/>
				<stop  offset="8.900958e-02" style="stop-color:#48AAE3"/>
				<stop  offset="0.2542" style="stop-color:#3379B5"/>
				<stop  offset="0.4179" style="stop-color:#214F8E"/>
				<stop  offset="0.5768" style="stop-color:#132F71"/>
				<stop  offset="0.7296" style="stop-color:#09185B"/>
				<stop  offset="0.8737" style="stop-color:#030B4E"/>
				<stop  offset="1" style="stop-color:#01064A"/>
			</linearGradient>
			<path class="st36" d="M186,17.8c-0.9,1-4.7,6.1-4.3,19.8c-1.7,3.7-4.3,8-4.3,8c-0.8-2-4.5-2.4-4.5-2.4s6.2-11.6,6.8-13.1
				c0.6-1.4,0.5-3.9,1.1-5.8C182.2,18.9,186,17.8,186,17.8L186,17.8z"/>
		</g>
		<g>
			
				<linearGradient id="SVGID_22_" gradientUnits="userSpaceOnUse" x1="-2564.1201" y1="251.6607" x2="-2557.887" y2="251.6607" gradientTransform="matrix(1 0 0 -1 2752.626 271.2813)">
				<stop  offset="0" style="stop-color:#94F1FF"/>
				<stop  offset="0.4558" style="stop-color:#4D80A8"/>
				<stop  offset="0.831" style="stop-color:#162864"/>
				<stop  offset="1" style="stop-color:#01064A"/>
			</linearGradient>
			<path class="st37" d="M194,16.1c0,0,0.3,2.1,0.6,2.7c0.3,0.7-1.1,4-4,4.4c-0.8,0-2.1,0.2-2.2-1.7L194,16.1z"/>
			
				<linearGradient id="SVGID_23_" gradientUnits="userSpaceOnUse" x1="-2569.4309" y1="251.926" x2="-2556.9458" y2="260.0513" gradientTransform="matrix(1 0 0 -1 2752.626 271.2813)">
				<stop  offset="0" style="stop-color:#94F1FF"/>
				<stop  offset="0.4558" style="stop-color:#4D80A8"/>
				<stop  offset="0.831" style="stop-color:#162864"/>
				<stop  offset="1" style="stop-color:#01064A"/>
			</linearGradient>
			<path class="st38" d="M183.2,12.5c0,0,0.3,3.8,0.6,5.2s1.6,4.4,3.7,4.8c1.8,0.4,2.9-0.6,3.8-1.7c0.9-1.1,2.1-3.3,2.1-4
				c0,0,0.8,0.2,1.6-0.7s1.2-2,0.4-2.6C194.6,13,189.1,6.8,183.2,12.5z"/>
			<path class="st39" d="M194.1,14.6c-0.7,1.4-0.7,1.4-0.7,1.4h-0.8l0.3-2c0,0-0.1-1-0.9-0.8l0,0c-0.1,0-0.2,0-0.2,0.1
				c-1,0.5-7.6,3.9-9.3-1.2c-0.1-0.5-0.1-1.1,0-1.7l0,0c0.3-1.3,1.2-2.8,3.2-4.2c2.8-2,7.1-2.8,9.2-1.4
				C197.2,6.3,198.5,11.1,194.1,14.6z"/>
			
				<linearGradient id="SVGID_24_" gradientUnits="userSpaceOnUse" x1="-2556.3564" y1="266.4723" x2="-2568.5442" y2="255.4735" gradientTransform="matrix(1 0 0 -1 2752.626 271.2813)">
				<stop  offset="0" style="stop-color:#01064A"/>
				<stop  offset="0.2115" style="stop-color:#02094D"/>
				<stop  offset="0.3592" style="stop-color:#061255"/>
				<stop  offset="0.4875" style="stop-color:#0D2164"/>
				<stop  offset="0.6048" style="stop-color:#163778"/>
				<stop  offset="0.7144" style="stop-color:#235492"/>
				<stop  offset="0.8185" style="stop-color:#3276B3"/>
				<stop  offset="0.9163" style="stop-color:#439FD9"/>
				<stop  offset="1" style="stop-color:#55C8FF"/>
			</linearGradient>
			<path class="st40" d="M183.2,8.6c0,0,5.1-8,11.1-3.6c0,0,2.7,1,2.7,3.6c0,2.4-0.3,3.2-2.9,6l-0.7,1.4h-0.8l0.3-1.7
				c0,0,0.4-1.7-2.4-1.4c-2.8,0.3-7.4-0.1-7.4-0.1l-0.6-1.6C182.5,11.2,182.5,9.7,183.2,8.6z"/>
			
				<linearGradient id="SVGID_25_" gradientUnits="userSpaceOnUse" x1="-2567.0645" y1="255.3944" x2="-2564.3662" y2="261.2209" gradientTransform="matrix(1 0 0 -1 2752.626 271.2813)">
				<stop  offset="0" style="stop-color:#01064A"/>
				<stop  offset="0.1082" style="stop-color:#040C50"/>
				<stop  offset="0.2591" style="stop-color:#0C1F61"/>
				<stop  offset="0.4352" style="stop-color:#193C7D"/>
				<stop  offset="0.6304" style="stop-color:#2A66A3"/>
				<stop  offset="0.8387" style="stop-color:#419AD4"/>
				<stop  offset="1" style="stop-color:#55C8FF"/>
			</linearGradient>
			<path class="st41" d="M193.1,11.4c0,0-0.6,1.6-1,1.8l0,0c-0.1,0-0.2,0-0.2,0.1c-1,0.5-7.6,3.9-9.3-1.2c-0.1-0.5-0.1-1.1,0-1.7
				c0,0.1,1.5,1.7,4,0.3c0,0-0.1,1.1-0.6,1.4c0,0,2.3,0.4,3.5-1.2c0,0,0,0.7-0.5,1.5C189.1,12.4,192,12.4,193.1,11.4z"/>
		</g>
		<g>
			
				<linearGradient id="SVGID_26_" gradientUnits="userSpaceOnUse" x1="-2570.7117" y1="213.7163" x2="-2556.6042" y2="216.1511" gradientTransform="matrix(1 0 0 -1 2752.626 271.2813)">
				<stop  offset="0" style="stop-color:#94F1FF"/>
				<stop  offset="0.4558" style="stop-color:#4D80A8"/>
				<stop  offset="0.831" style="stop-color:#162864"/>
				<stop  offset="1" style="stop-color:#01064A"/>
			</linearGradient>
			<path class="st42" d="M191.4,56.5c0,0-1.5,1.4-2.9,1.9c-1.5,0.6-1.5,1.1-2.1,1.3s-1.4-0.2-0.8-0.8c0.7-0.6,0.8-0.8,0.8-0.8
				s0.2-0.9-0.5-0.3c-0.7,0.6-1.3,1.1-1.8,0.8s0.2-1,0.5-1.3s1-0.7,1-0.7s0-0.2-0.6-0.3c-0.4,0-1.1,0.5-1.3,0.9
				c-0.3,0.4-0.6,0.8-0.9,0.6c-0.3-0.2-0.3-0.4-0.2-0.9s0.6-0.9,0.8-1.1c0.2-0.2,0.1-0.4-0.5-0.1c-0.6,0.3-1.6,0.6-1.6,0.6
				s-1.3,0.6-0.8-0.3c0.4-0.7,1.8-1.3,2.3-1.3c0.5-0.1,2-0.7,3.7-0.6c1.7,0,3.7,0,3.7,0L191.4,56.5z"/>
			<path class="st7" d="M190.8,53l-1.3,0.7c0,0,0.2,3.1,1.9,3.9l1.5-0.8L190.8,53z"/>
			
				<linearGradient id="SVGID_27_" gradientUnits="userSpaceOnUse" x1="-2564.2109" y1="227.6106" x2="-2545.5049" y2="232.5788" gradientTransform="matrix(1 0 0 -1 2752.626 271.2813)">
				<stop  offset="0" style="stop-color:#55C8FF"/>
				<stop  offset="8.900958e-02" style="stop-color:#48AAE3"/>
				<stop  offset="0.2542" style="stop-color:#3379B5"/>
				<stop  offset="0.4179" style="stop-color:#214F8E"/>
				<stop  offset="0.5768" style="stop-color:#132F71"/>
				<stop  offset="0.7296" style="stop-color:#09185B"/>
				<stop  offset="0.8737" style="stop-color:#030B4E"/>
				<stop  offset="1" style="stop-color:#01064A"/>
			</linearGradient>
			<path class="st43" d="M204.8,30.5c0,0-1.5-5.8-5.5-4.5s-4.2,7.5-2.3,8.7c1.8,1.2,3.7,8.4,3.6,10.6c0,2.2-1.3,2.6-2.3,3.1
				c-1,0.4-7.7,4.7-7.7,4.7s0.3,3.2,2,4.3l11.5-5.4c0,0,3.2-0.9,2.7-6.4C206.2,40,204.8,30.5,204.8,30.5z"/>
		</g>
	</g>
	<g>
		<path class="st44" d="M146.5,113.7c-0.6-1.6-1.6-3.1-2.9-4.1c-0.3-0.2-0.6-0.4-0.9-0.6l-2.5-1.4l-8.6-4.9L62.1,62.3
			c-2.4-1.4-4.3-0.3-4.3,2.5l-0.1,49.4c0,0.1,0,0.1,0,0.2c0,0.2,0,0.4,0,0.6c0.3,2.6,2.1,5.4,4.2,6.7l46.2,26.6l34.5,19.9
			c2.4,1.4,4.3,0.3,4.3-2.5l0.1-49.4C147,115.5,146.8,114.6,146.5,113.7z"/>
		<g>
			<path class="st45" d="M97.5,119.1L97.5,119.1c0,0.1-0.1,0.1-0.2,0.3c0.1,0,0.2,0,0.2,0C97.5,119.2,97.5,119.2,97.5,119.1
				 M123,106.1l-0.6-0.3v2.2l0.7,0.4c0.6,0.3,0.9,0.2,0.9-0.5C124.1,107.2,123.8,106.6,123,106.1 M123.1,103.4l-0.6-0.4v1.7l0.6,0.3
				c0.7,0.4,0.9,0.2,0.9-0.3C124,104.2,123.6,103.8,123.1,103.4 M70.3,100.6l-1.1,1.7l1.1,3.2l-0.5-0.3c-0.4-1.3-0.7-2.1-0.9-2.5
				l0,0c-0.1,0.2-0.4,0.8-0.9,1.5l-0.5-0.3l1.1-1.8l-1.1-3l0.5,0.3c0.5,1.4,0.7,2.1,0.8,2.4l0,0c0.1-0.2,0.5-0.7,0.9-1.4L70.3,100.6
				 M73.3,102.3l-1.1,1.7l1.1,3.2l-0.5-0.3c-0.4-1.3-0.7-2.1-0.9-2.5l0,0c-0.1,0.2-0.4,0.8-0.9,1.5l-0.5-0.3l1.1-1.8l-1.1-3l0.5,0.3
				c0.5,1.4,0.7,2.1,0.8,2.4l0,0c0.1-0.2,0.5-0.7,0.9-1.4L73.3,102.3 M76.3,104l-1.1,1.7l1.1,3.2l-0.5-0.3c-0.4-1.3-0.7-2.1-0.9-2.5
				l0,0c-0.1,0.2-0.4,0.8-0.9,1.5l-0.5-0.3l1.1-1.8l-1.1-3l0.6,0.2c0.5,1.4,0.7,2.1,0.8,2.4l0,0c0.1-0.2,0.5-0.7,0.9-1.4L76.3,104
				 M79.3,105.8l-1.1,1.7l1.1,3.2l-0.5-0.3c-0.4-1.3-0.7-2.1-0.9-2.5l0,0c-0.1,0.2-0.4,0.8-0.9,1.5l-0.5-0.3l1.1-1.8l-1.1-3l0.5,0.3
				c0.5,1.4,0.7,2.1,0.8,2.4l0,0c0.1-0.2,0.5-0.7,0.9-1.4L79.3,105.8 M82.3,107.5l-1.1,1.7l1.1,3.2l-0.5-0.3
				c-0.4-1.3-0.7-2.1-0.9-2.5l0,0c-0.1,0.2-0.4,0.8-0.9,1.5l-0.5-0.3l1.1-1.8l-1.1-3l0.5,0.3c0.5,1.4,0.7,2.1,0.8,2.4l0,0
				c0.1-0.2,0.5-0.7,0.9-1.4L82.3,107.5 M89.9,111.9l-1.1,1.7l1.1,3.2l-0.5-0.3c-0.4-1.3-0.7-2.1-0.9-2.5l0,0
				c-0.1,0.2-0.4,0.8-0.9,1.5l-0.5-0.3l1.1-1.8l-1.1-3l0.5,0.3c0.5,1.4,0.7,2.1,0.8,2.4l0,0c0.1-0.2,0.5-0.7,0.9-1.4L89.9,111.9
				 M92.9,113.6l-1.1,1.7l1.1,3.2l-0.5-0.3c-0.4-1.3-0.7-2.1-0.9-2.5l0,0c-0.1,0.2-0.4,0.8-0.9,1.5l-0.5-0.3l1.1-1.8l-1.1-3l0.5,0.3
				c0.5,1.4,0.7,2.1,0.8,2.4l0,0c0.1-0.2,0.5-0.7,0.9-1.4L92.9,113.6 M71.5,86.5l6.4,3.7c1,0.6,1.7,1.9,1.7,3v0.9v0.1v3.1v0.1v0.9
				c0,1.1-0.8,1.6-1.7,1l-9-5.2c-1-0.6-1.7-1.9-1.7-3V86c0-1.1,0.8-1.5,1.7-1L71.5,86.5L71.5,86.5 M130.8,103L61.2,62.8
				c-2.4-1.4-4.3-0.3-4.3,2.5l-0.2,49.4c0,0.1,0,0.1,0,0.2c0,0.2,0,0.4,0,0.6c0.3,2.6,2.1,5.4,4.2,6.7l80.7,46.6
				c2.4,1.4,4.3,0.3,4.3-2.5c0,2.7-1.9,3.8-4.3,2.5l-34.5-19.9l-18.6-10.7l-27.6-15.9c-2.2-1.2-3.9-4.1-4.2-6.7c0-0.2,0-0.4,0-0.6
				c0-0.1,0-0.1,0-0.2v-0.3c7.1,2.1,22.7,5.9,38.5,5c-0.4-1.1-0.6-1.8-0.7-2.1l0,0c-0.1,0.2-0.4,0.8-0.9,1.5l-0.5-0.3l1.1-1.8
				l-1.1-3l0.5,0.3c0.5,1.4,0.7,2.1,0.8,2.4l0,0c0.1-0.2,0.5-0.7,0.9-1.4l0.5,0.3l-1.1,1.7l0.9,2.5c0.3,0,0.7,0,1-0.1l0.6-0.9
				l-1.1-3l0.5,0.3c0.5,1.4,0.7,2.1,0.8,2.4l0,0c0.1-0.2,0.5-0.7,0.9-1.4l0.5,0.3l-1.1,1.7l0.2,0.6c9.5-0.9,18.9-3.6,26.3-9.5
				c-0.3,0-0.6-0.1-1-0.4l-2-1.1v-6.8l2,1.2c1.1,0.7,1.8,1.7,1.8,2.8c0,0.9-0.4,1-0.8,1c0.5,0.5,1,1.2,1,2.2c0,0.2,0,0.3,0,0.4
				c0.4-0.4,0.8-0.7,1.2-1.1l0.8-3l1.4,0.8C129.4,104.8,130.1,103.9,130.8,103"/>
			<path class="st46" d="M105.1,123.5L105.1,123.5c-0.1,0.2-0.4,0.6-0.7,1.2c0.4,0,0.7,0,1.1,0C105.3,124.1,105.2,123.7,105.1,123.5
				 M128,106.4L128,106.4c-0.1,0.6-0.3,1.5-0.6,2.6l1.1,0.6C128.3,108.2,128.1,107.2,128,106.4 M139.3,107.9l-8.6-4.9
				c-0.7,0.9-1.4,1.8-2.2,2.7l0.1,0.1l1.5,7.7l-1.2-0.7l-0.3-1.9l-1.5-0.9l-0.3,1.5l-1.2-0.7l0.8-2.9c-0.4,0.4-0.8,0.7-1.2,1.1
				c-0.1,0.6-0.5,0.8-0.9,0.8c-7.4,5.9-16.8,8.6-26.3,9.5l0.9,2.6l-0.5-0.3c-0.4-1.1-0.6-1.8-0.8-2.3c-0.1,0-0.2,0-0.2,0
				c-0.2,0.3-0.4,0.7-0.7,1.2l-0.5-0.3l0.6-0.9c-0.3,0-0.7,0-1,0.1l0.3,0.7l-0.5-0.3c0-0.1-0.1-0.3-0.1-0.4c-15.8,0.9-31.5-3-38.5-5
				v0.3c0,0.1,0,0.1,0,0.2c0,0.2,0,0.4,0,0.6c0.3,2.6,2.1,5.4,4.2,6.7l27.6,15.9l-27.6-15.9c-2.2-1.2-3.9-4.1-4.2-6.7
				c0-0.2,0-0.4,0-0.6c7,2.8,27.4,10.1,47,9.8l1.1-1.8l-1.1-3l0.5,0.3c0.5,1.4,0.7,2.1,0.8,2.4l0,0c0.1-0.2,0.5-0.7,0.9-1.4l0.5,0.3
				l-1.1,1.7l0.5,1.5c0.6,0,1.3-0.1,1.9-0.1l-1-2.9l0.5,0.3c0.5,1.4,0.7,2.1,0.8,2.4l0,0c0.1-0.2,0.5-0.7,0.9-1.4l0.5,0.3l-0.8,1.2
				c0.5,0,0.9-0.1,1.4-0.1l-0.3-0.9l0.5,0.3c0.1,0.2,0.1,0.4,0.2,0.6c8.5-1,16.6-3.8,23-9.4c-1.2-4.3-1.5-5.1-1.5-5.4l0,0
				c0,0.9,0,1.9,0,3.1v2l-1.1-0.6v-6.8l1.3,0.8c1.4,4.6,1.6,5.4,1.7,5.8l0,0c-0.1-0.9-0.1-1.9,0-3V109l1.1,0.6v4
				c0.4-0.4,0.8-0.8,1.2-1.2v-2.1l1.2,0.7v0.1C138,109.9,138.7,108.9,139.3,107.9"/>
			<path class="st47" d="M141.8,109.4l-2.5-1.4c-0.7,1-1.3,1.9-2.1,2.8v3c0.4-0.4,1.2-1.5,1.8-2.1l1.4,0.8l-1.7,1.7l1.7,5.2
				l-1.3-0.8l-1.2-3.8l-0.6,0.5v2.3l-1.2-0.7v-4.7c-0.4,0.4-0.8,0.8-1.2,1.2v2.8l-1.3-0.7c-0.1-0.2-0.1-0.4-0.2-0.6
				c-6.4,5.6-14.4,8.4-23,9.4c0.4,1,0.5,1.5,0.6,1.8l0,0c0.1-0.2,0.5-0.7,0.9-1.4l0.5,0.3l-1.1,1.7l1.1,3.2l-0.5-0.3
				c-0.4-1.3-0.7-2.1-0.9-2.5l0,0c-0.1,0.2-0.4,0.8-0.9,1.5l-0.5-0.3l1.1-1.8l-0.7-2.1c-0.5,0.1-0.9,0.1-1.4,0.1l-0.3,0.5l1.1,3.2
				l-0.5-0.3c-0.4-1.3-0.7-2.1-0.9-2.5l0,0c-0.1,0.2-0.4,0.8-0.9,1.5l-0.5-0.3l1.1-1.8l-0.1-0.1c-0.6,0-1.3,0.1-1.9,0.1l0.6,1.7
				l-0.5-0.3c-0.2-0.5-0.3-1-0.5-1.4c-0.4,0-0.7,0-1.1,0c-0.1,0.1-0.1,0.2-0.2,0.3l-0.5-0.3l0,0c-19.6,0.3-40-7-47-9.8
				c0,0.2,0,0.4,0,0.6c0.3,2.6,2.1,5.4,4.2,6.7l27.6,15.9l18.6,10.7l-46.2-26.7c-2.2-1.2-3.9-4.1-4.2-6.7c9,4.5,35.4,16.7,58.2,15.7
				c-0.4-1.3-0.7-2.1-0.9-2.5l0,0c-0.1,0.2-0.4,0.8-0.9,1.5l-0.5-0.3l1.1-1.8l-1.1-3l0.5,0.3c0.5,1.4,0.7,2.1,0.8,2.4l0,0
				c0.1-0.2,0.5-0.7,0.9-1.4l0.5,0.3l-1.1,1.7l1,2.8c1.8-0.1,3.6-0.3,5.4-0.6l-0.4-1.1l0.5,0.3c0.1,0.3,0.2,0.5,0.3,0.8
				c9-1.5,17-5.5,22.6-13.5c0.6-0.9,1.3-1.9,1.8-2.9c-0.6-1.6-1.6-3.1-2.9-4.1C142.4,109.8,142.1,109.6,141.8,109.4"/>
			<path class="st48" d="M134.2,160.2c-0.3-0.2-0.4-0.1-0.4,0s0.1,0.3,0.3,0.4c0.2,0.1,0.3,0,0.3-0.3v-0.1
				C134.3,160.2,134.3,160.2,134.2,160.2 M132.3,158l-0.3-0.2v0.8l0.3,0.2c0.3,0.2,0.4,0.1,0.4-0.2
				C132.7,158.4,132.5,158.2,132.3,158 M137.9,154.3L137.9,154.3c-0.1,0.6-0.3,1.5-0.6,2.6l1.1,0.6C138.2,156,138,155,137.9,154.3
				 M135.6,161.7v-1.4l0.2,0.1v1.4L135.6,161.7 M137.9,162.9c0.2,0.1,0.3,0.1,0.3-0.2v-0.8l0.2,0.1v1c0,0.2,0,0.3,0,0.4l-0.2-0.1
				c0,0,0-0.1,0-0.2c-0.1,0.1-0.2,0.1-0.4,0s-0.4-0.3-0.4-0.6v-1l0.2,0.1v0.9C137.7,162.6,137.7,162.8,137.9,162.9 M133.6,159.5
				c0-0.2,0.1-0.3,0.5-0.1c0.3,0.2,0.4,0.4,0.4,0.6v0.8c0,0.1,0,0.2,0,0.2l-0.2-0.1c0,0,0-0.1,0-0.2c-0.1,0.1-0.2,0.1-0.4,0
				c-0.3-0.2-0.4-0.4-0.4-0.6c0-0.2,0.2-0.3,0.6-0.1c0.1,0,0.1,0.1,0.2,0.1v-0.2c0-0.1,0-0.3-0.3-0.4c-0.3-0.1-0.3,0-0.3,0.1
				L133.6,159.5 M136.3,160.9c0.1-0.1,0.2-0.1,0.4,0c0.2,0.1,0.4,0.3,0.4,0.6v1l-0.2-0.1v-0.9c0-0.2-0.1-0.3-0.3-0.5
				c-0.2-0.1-0.3-0.1-0.3,0.3v0.8l-0.2-0.1v-0.9c0-0.3,0-0.4,0-0.4L136.3,160.9C136.3,160.7,136.3,160.8,136.3,160.9 M139.7,162.8
				c0.1-0.1,0.2-0.1,0.4,0s0.4,0.3,0.4,0.6v1l-0.2-0.1v-1c0-0.1,0-0.3-0.2-0.4c-0.2-0.1-0.3,0-0.3,0.2v0.9l-0.2-0.1L139.7,162.8
				c-0.1-0.1-0.2-0.2-0.3-0.3c-0.2-0.1-0.3,0-0.3,0.2v0.9l-0.2-0.1v-1c0-0.2,0-0.3,0-0.4l0.2,0.1c0,0,0,0.1,0,0.2
				c0.1-0.1,0.2-0.1,0.4,0C139.5,162.5,139.6,162.6,139.7,162.8 M134.7,159.9v-0.1l0.2,0.1v-0.4l0.2,0.1v0.4l0.3,0.2v0.1l-0.3-0.2
				v0.9c0,0.1,0,0.2,0.1,0.2l0.1,0.1v0.1c0,0-0.1,0-0.2-0.1c-0.2-0.1-0.3-0.2-0.3-0.4L134.7,159.9L134.7,159.9 M131.8,159.4v-1.8
				l0.5,0.3c0.3,0.2,0.5,0.5,0.5,0.8s-0.2,0.4-0.6,0.2l-0.3-0.2v0.8L131.8,159.4 M133.1,160.2v-1.9l0.2,0.1v1.9L133.1,160.2
				 M135.6,160v-0.3l0.2,0.1v0.3L135.6,160 M126.2,151.9L126.2,151.9c0.1-0.6,0.3-1.5,0.5-2.3l0.6-2.6l1.2,0.7l-1.7,5.9l-1.4-0.8
				l-1.6-7.8l1.3,0.7l0.6,3.2C125.9,150,126.1,151.1,126.2,151.9 M129.1,154.9v-6.8l1.2,0.7v6.8L129.1,154.9 M135.6,158.6l1.5-5.9
				l1.5,0.9l1.5,7.7l-1.2-0.7l-0.3-1.9l-1.5-0.9l-0.3,1.5L135.6,158.6 M133.1,156.4c0.6,0.3,0.8,0.1,0.8-0.4c0-0.6-0.3-1-1.1-1.9
				c-1.1-1.2-1.6-2-1.6-3c0-1.1,0.7-1.4,1.9-0.8c1.5,0.9,1.9,2.1,1.9,3l-1.2-0.7c0-0.4-0.1-1-0.7-1.4c-0.5-0.3-0.7-0.1-0.7,0.4
				s0.2,0.8,1,1.7c1.2,1.2,1.7,2.1,1.7,3.2c0,1.1-0.6,1.6-2,0.8c-1.5-0.9-2-2.1-2-3.2l1.2,0.7C132.3,155.4,132.5,156,133.1,156.4
				 M126.1,132.8l-1.1,1.7l1.1,3.2l-0.5-0.3c-0.4-1.3-0.7-2.1-0.9-2.5l0,0c-0.1,0.2-0.4,0.8-0.9,1.5l-0.5-0.3l1.1-1.8l-1.1-3
				l0.5,0.3c0.5,1.4,0.7,2.1,0.8,2.4l0,0c0.1-0.2,0.5-0.7,0.9-1.4L126.1,132.8 M129.1,134.5l-1.1,1.7l1.1,3.2l-0.5-0.3
				c-0.4-1.3-0.7-2.1-0.9-2.5l0,0c-0.1,0.2-0.4,0.8-0.9,1.5l-0.5-0.3l1.1-1.8l-1.1-3l0.5,0.3c0.5,1.4,0.7,2.1,0.8,2.4l0,0
				c0.1-0.2,0.5-0.7,0.9-1.4L129.1,134.5 M132.1,136.2l-1.1,1.7l1.1,3.2l-0.5-0.3c-0.4-1.3-0.7-2.1-0.9-2.5l0,0
				c-0.1,0.2-0.4,0.8-0.9,1.5l-0.5-0.3l1.1-1.8l-1.1-3l0.5,0.3c0.5,1.4,0.7,2.1,0.8,2.4l0,0c0.1-0.2,0.5-0.7,0.9-1.4L132.1,136.2
				 M145.6,114.1c-0.6,1-1.2,2-1.8,2.9c-5.6,8-13.7,12-22.6,13.5c0.3,0.9,0.5,1.4,0.6,1.6l0,0c0.1-0.2,0.5-0.7,0.9-1.4l0.5,0.3
				l-1.1,1.7l1.1,3.2l-0.5-0.3c-0.4-1.3-0.7-2.1-0.9-2.5l0,0c-0.1,0.2-0.4,0.8-0.9,1.5l-0.5-0.3l1.1-1.8l-0.7-1.9
				c-1.8,0.3-3.6,0.5-5.4,0.6l0.1,0.4l-0.5-0.3l0,0c-22.8,1-49.2-11.1-58.2-15.7c0.3,2.6,2.1,5.4,4.2,6.7l46.2,26.7l34.5,19.9
				c2.4,1.4,4.3,0.3,4.3-2.5l0.1-49.4C146.1,116,145.9,115,145.6,114.1"/>
			<path class="st49" d="M128.5,147.7l-1.2-0.7l-0.6,2.6c-0.2,0.8-0.4,1.7-0.5,2.3l0,0c-0.1-0.8-0.3-1.9-0.4-2.9l-0.7-3.3l-1.3-0.7
				l1.6,7.8l1.4,0.8L128.5,147.7"/>
			<polyline class="st49" points="130.3,148.7 129.1,148.1 129.1,154.9 130.3,155.6 130.3,148.7 			"/>
			<path class="st49" d="M133.2,150.3c-1.2-0.7-1.9-0.3-1.9,0.8c0,1,0.4,1.8,1.6,3c0.8,0.9,1.1,1.4,1.1,1.9s-0.2,0.8-0.8,0.4
				c-0.6-0.3-0.8-1-0.9-1.6l-1.2-0.7c0,1,0.5,2.3,2,3.2c1.4,0.8,2,0.3,2-0.8s-0.5-2-1.7-3.2c-0.8-0.8-1-1.2-1-1.7s0.2-0.7,0.7-0.4
				c0.6,0.3,0.7,1,0.7,1.4l1.2,0.7C135,152.4,134.6,151.1,133.2,150.3"/>
			<path class="st49" d="M137.3,156.8c0.2-1.1,0.5-2,0.5-2.6l0,0c0.1,0.7,0.3,1.8,0.5,3.2L137.3,156.8 M138.7,153.6l-1.5-0.9
				l-1.5,5.9l1.2,0.7l0.3-1.5l1.5,0.9l0.3,1.9l1.2,0.7L138.7,153.6"/>
			<path class="st49" d="M122.4,108v-2.2l0.6,0.3c0.8,0.4,1.1,1,1.1,1.7c0,0.8-0.3,0.9-0.9,0.5L122.4,108 M122.4,104.8v-1.7l0.6,0.4
				c0.6,0.3,0.9,0.8,0.9,1.4s-0.2,0.8-0.9,0.3L122.4,104.8 M123.3,102.6l-2-1.2v6.8l2,1.1c0.4,0.2,0.7,0.3,1,0.4
				c0.5,0,0.8-0.2,0.9-0.8c0-0.1,0-0.3,0-0.4c0-1-0.5-1.7-1-2.2c0.4,0.1,0.8-0.1,0.8-1C125.1,104.3,124.5,103.3,123.3,102.6"/>
			<path class="st49" d="M127.4,109c0.2-1.1,0.5-2,0.5-2.6l0,0c0.1,0.7,0.3,1.8,0.5,3.2L127.4,109 M128.8,105.8L128.8,105.8
				l-1.5-0.9l-0.8,3l-0.8,2.9l1.2,0.7l0.3-1.5l1.5,0.9l0.3,1.9l1.2,0.7L128.8,105.8"/>
			<path class="st49" d="M134.9,109.3l-1.1-0.6v1.9c0,1.1,0,2.1,0,3l0,0c-0.1-0.4-0.3-1.3-1.7-5.8l-1.3-0.8v6.8l1.1,0.6v-2
				c0-1.2,0-2.2,0-3.1l0,0c0.1,0.3,0.3,1.2,1.5,5.4c0.1,0.2,0.1,0.4,0.2,0.6l1.3,0.7v-2.8V109.3"/>
			<path class="st49" d="M140.4,112.5l-1.4-0.8c-0.5,0.6-1.4,1.6-1.8,2.1v-3v-0.1L136,110v2.1v4.7l1.2,0.7v-2.3l0.6-0.5l1.2,3.8
				l1.3,0.8l-1.7-5.2L140.4,112.5"/>
			<path class="st49" d="M132,158.6v-0.8l0.3,0.2c0.3,0.1,0.4,0.4,0.4,0.6c0,0.3-0.1,0.3-0.4,0.2L132,158.6 M132.3,157.9l-0.5-0.3
				v1.8l0.2,0.1v-0.8l0.3,0.2c0.4,0.2,0.6,0.1,0.6-0.2C132.8,158.4,132.6,158.1,132.3,157.9"/>
			<polyline class="st49" points="133.3,158.4 133.1,158.3 133.1,160.2 133.3,160.3 133.3,158.4 			"/>
			<path class="st49" d="M134,160.6c-0.2-0.1-0.3-0.3-0.3-0.4c0-0.2,0.1-0.2,0.4,0c0.1,0,0.1,0.1,0.2,0.1v0.1
				C134.3,160.7,134.3,160.8,134,160.6 M134.1,159.4c-0.3-0.2-0.4-0.1-0.5,0.1l0.2,0.1c0-0.1,0-0.2,0.3-0.1c0.2,0.1,0.3,0.3,0.3,0.4
				v0.2c0,0-0.1-0.1-0.2-0.1c-0.4-0.2-0.6-0.1-0.6,0.1c0,0.2,0.1,0.5,0.4,0.6c0.2,0.1,0.3,0.1,0.4,0c0,0.1,0,0.1,0,0.2l0.2,0.1
				c0,0,0-0.1,0-0.2V160C134.5,159.8,134.4,159.6,134.1,159.4"/>
			<path class="st49" d="M135.1,159.6l-0.2-0.1v0.4l-0.2-0.1v0.1l0.2,0.1v1c0,0.2,0.1,0.3,0.3,0.4c0,0,0.1,0.1,0.2,0.1v-0.1
				c0,0-0.1,0-0.1-0.1c-0.1-0.1-0.1-0.1-0.1-0.2v-0.9l0.3,0.2v-0.1l-0.3-0.2L135.1,159.6"/>
			<path class="st49" d="M135.8,160.4l-0.2-0.1v1.4l0.2,0.1V160.4 M135.8,159.8l-0.2-0.1v0.3l0.2,0.1V159.8"/>
			<path class="st49" d="M136.7,160.9c-0.2-0.1-0.3-0.1-0.4,0c0-0.1,0-0.2,0-0.2l-0.2-0.1c0,0.1,0,0.1,0,0.4v0.9l0.2,0.1v-0.8
				c0-0.3,0.1-0.4,0.3-0.3c0.2,0.1,0.3,0.3,0.3,0.5v0.9l0.2,0.1v-1C137.1,161.2,136.9,161,136.7,160.9"/>
			<path class="st49" d="M138.4,161.9l-0.2-0.1v0.8c0,0.3-0.1,0.3-0.3,0.2c-0.2-0.1-0.3-0.3-0.3-0.5v-0.9l-0.2-0.1v1
				c0,0.4,0.2,0.5,0.4,0.6c0.2,0.1,0.3,0.1,0.4,0c0,0.1,0,0.2,0,0.2l0.2,0.1c0-0.1,0-0.2,0-0.4V161.9"/>
			<path class="st49" d="M140,162.8c-0.2-0.1-0.3-0.1-0.4,0c0-0.2-0.2-0.3-0.3-0.4c-0.2-0.1-0.3-0.1-0.4,0c0-0.1,0-0.1,0-0.2
				l-0.2-0.1c0,0.1,0,0.2,0,0.4v1l0.2,0.1v-0.9c0-0.2,0.1-0.3,0.3-0.2c0.2,0.1,0.2,0.2,0.2,0.4v1l0.2,0.1v-0.9
				c0-0.2,0.1-0.3,0.3-0.2c0.2,0.1,0.2,0.3,0.2,0.4v1l0.2,0.1v-1C140.4,163.1,140.2,162.9,140,162.8"/>
			<path class="st49" d="M70.3,100.6l-0.5-0.3c-0.4,0.7-0.7,1.2-0.9,1.4l0,0c-0.1-0.3-0.3-1-0.8-2.4L67.6,99l1.1,3l-1.1,1.8l0.5,0.3
				c0.4-0.7,0.8-1.3,0.9-1.5l0,0c0.1,0.4,0.4,1.2,0.9,2.5l0.5,0.3l-1.1-3.2L70.3,100.6"/>
			<path class="st49" d="M73.3,102.3l-0.5-0.3c-0.4,0.7-0.7,1.2-0.9,1.4l0,0c-0.1-0.3-0.4-1-0.8-2.4l-0.5-0.3l1.1,3l-1.1,1.8
				l0.5,0.3c0.4-0.7,0.8-1.3,0.9-1.5l0,0c0.1,0.4,0.4,1.2,0.9,2.5l0.5,0.3l-1.1-3.2L73.3,102.3"/>
			<path class="st49" d="M76.3,104l-0.5-0.3c-0.4,0.7-0.7,1.2-0.9,1.4l0,0c-0.1-0.3-0.3-1-0.8-2.4l-0.5-0.3l1.1,3l-1.1,1.8l0.5,0.3
				c0.4-0.7,0.8-1.3,0.9-1.5l0,0c0.1,0.4,0.4,1.2,0.9,2.5l0.5,0.3l-1.1-3.2L76.3,104"/>
			<path class="st49" d="M79.3,105.8l-0.5-0.3c-0.4,0.7-0.7,1.2-0.9,1.4l0,0c-0.1-0.3-0.4-1-0.8-2.4l-0.5-0.3l1.1,3l-1.1,1.8
				l0.5,0.3c0.4-0.7,0.8-1.3,0.9-1.5l0,0c0.1,0.4,0.4,1.2,0.9,2.5l0.5,0.3l-1.1-3.2L79.3,105.8"/>
			<path class="st49" d="M82.3,107.5l-0.5-0.3c-0.4,0.7-0.7,1.2-0.9,1.4l0,0c-0.1-0.3-0.3-1-0.8-2.4l-0.5-0.3l1.1,3l-1.1,1.8
				l0.5,0.3c0.4-0.7,0.8-1.3,0.9-1.5l0,0c0.1,0.4,0.4,1.2,0.9,2.5l0.5,0.3l-1.1-3.2L82.3,107.5"/>
			<path class="st49" d="M89.9,111.9l-0.5-0.3c-0.4,0.7-0.7,1.2-0.9,1.4l0,0c-0.1-0.3-0.3-1-0.8-2.4l-0.5-0.3l1.1,3l-1.1,1.8
				l0.5,0.3c0.4-0.7,0.8-1.3,0.9-1.5l0,0c0.1,0.4,0.4,1.2,0.9,2.5l0.5,0.3l-1.1-3.2L89.9,111.9"/>
			<path class="st49" d="M92.9,113.6l-0.5-0.3c-0.4,0.7-0.7,1.2-0.9,1.4l0,0c-0.1-0.3-0.4-1-0.8-2.4l-0.5-0.3l1.1,3l-1.1,1.8
				l0.5,0.3c0.4-0.7,0.8-1.3,0.9-1.5l0,0c0.1,0.4,0.4,1.2,0.9,2.5l0.5,0.3l-1.1-3.2L92.9,113.6"/>
			<path class="st49" d="M95.9,115.3l-0.5-0.3c-0.4,0.7-0.7,1.2-0.9,1.4l0,0c-0.1-0.3-0.3-1-0.8-2.4l-0.6-0.3l1.1,3l-1.1,1.8
				l0.5,0.3c0.4-0.7,0.8-1.3,0.9-1.5l0,0c0.1,0.3,0.4,1,0.7,2.1c0,0.1,0.1,0.2,0.1,0.4l0.5,0.3l-0.3-0.7l-0.9-2.5L95.9,115.3"/>
			<path class="st49" d="M98.9,117.1l-0.5-0.3c-0.4,0.7-0.7,1.2-0.9,1.4l0,0c-0.1-0.3-0.4-1-0.8-2.4l-0.5-0.3l1.1,3l-0.6,0.9
				l-0.6,0.9l0.5,0.3c0.3-0.5,0.6-1,0.7-1.2c0.1-0.1,0.1-0.2,0.2-0.3l0,0c0,0.1,0,0.1,0.1,0.2c0.2,0.4,0.4,1.2,0.8,2.3l0.5,0.3
				l-0.9-2.6l-0.2-0.6L98.9,117.1"/>
			<path class="st49" d="M106.5,121.4l-0.5-0.3c-0.4,0.7-0.7,1.2-0.9,1.4l0,0c-0.1-0.3-0.4-1-0.8-2.4l-0.5-0.3l1.1,3l-1.1,1.8l0,0
				l0.5,0.3c0.1-0.1,0.1-0.2,0.2-0.3c0.3-0.6,0.6-1,0.7-1.2l0,0c0.1,0.2,0.2,0.6,0.4,1.1c0.1,0.4,0.3,0.8,0.5,1.4l0.5,0.3l-0.6-1.7
				l-0.5-1.5L106.5,121.4"/>
			<path class="st49" d="M109.5,123.2l-0.5-0.3c-0.4,0.7-0.7,1.2-0.9,1.4l0,0c-0.1-0.3-0.3-1-0.8-2.4l-0.5-0.3l1,2.9l0.1,0.1
				l-1.1,1.8l0.5,0.3c0.4-0.7,0.8-1.3,0.9-1.5l0,0c0.1,0.4,0.4,1.2,0.9,2.5l0.5,0.3l-1.1-3.2l0.3-0.5L109.5,123.2"/>
			<path class="st49" d="M112.5,124.9l-0.5-0.3c-0.4,0.7-0.7,1.2-0.9,1.4l0,0c-0.1-0.3-0.3-0.8-0.6-1.8c-0.1-0.2-0.1-0.4-0.2-0.6
				l-0.5-0.3l0.3,0.9l0.7,2.1l-1.1,1.8l0.5,0.3c0.4-0.7,0.8-1.3,0.9-1.5l0,0c0.1,0.4,0.4,1.2,0.9,2.5l0.5,0.3l-1.1-3.2L112.5,124.9"
				/>
			<path class="st49" d="M115.5,126.6l-0.5-0.3c-0.4,0.7-0.7,1.2-0.9,1.4l0,0c-0.1-0.3-0.4-1-0.8-2.4l-0.5-0.3l1.1,3l-1.1,1.8
				l0.5,0.3c0.4-0.7,0.8-1.3,0.9-1.5l0,0c0.1,0.4,0.4,1.2,0.9,2.5l0,0l0.5,0.3l-0.1-0.4l-1-2.8L115.5,126.6"/>
			<path class="st49" d="M123.1,131l-0.5-0.3c-0.4,0.7-0.7,1.2-0.9,1.4l0,0c-0.1-0.3-0.3-0.7-0.6-1.6c-0.1-0.2-0.2-0.5-0.3-0.8
				l-0.5-0.3l0.4,1.1l0.7,1.9l-1.1,1.8l0.5,0.3c0.4-0.7,0.8-1.3,0.9-1.5l0,0c0.1,0.4,0.4,1.2,0.9,2.5l0.5,0.3l-1.1-3.2L123.1,131"/>
			<path class="st49" d="M126.1,132.8l-0.5-0.3c-0.4,0.7-0.7,1.2-0.9,1.4l0,0c-0.1-0.3-0.4-1-0.8-2.4l-0.5-0.3l1.1,3l-1.1,1.8
				l0.5,0.3c0.4-0.7,0.8-1.3,0.9-1.5l0,0c0.1,0.4,0.4,1.2,0.9,2.5l0.5,0.3l-1.1-3.2L126.1,132.8"/>
			<path class="st49" d="M129.1,134.5l-0.5-0.3c-0.4,0.7-0.7,1.2-0.9,1.4l0,0c-0.1-0.3-0.4-1-0.8-2.4l-0.5-0.3l1.1,3l-1.1,1.8
				l0.5,0.3c0.4-0.7,0.8-1.3,0.9-1.5l0,0c0.1,0.4,0.4,1.2,0.9,2.5l0.5,0.3l-1.1-3.2L129.1,134.5"/>
			<path class="st49" d="M132.1,136.2l-0.5-0.3c-0.4,0.7-0.7,1.2-0.9,1.4l0,0c-0.1-0.3-0.3-1-0.8-2.4l-0.5-0.3l1.1,3l-1.1,1.8
				l0.5,0.3c0.4-0.7,0.8-1.3,0.9-1.5l0,0c0.1,0.4,0.4,1.2,0.9,2.5l0.5,0.3l-1.1-3.2L132.1,136.2"/>
			<path class="st50" d="M79.5,94.2l-4-2.3V95l4,2.3V94.2 M71.3,95.6v-2.9h0.1L71.3,95.6L71.3,95.6 M67.1,90.2L67.1,90.2l4.3,2.4
				v0.1L67.1,90.2 M71.4,92.6v-3.1h0.1L71.4,92.6L71.4,92.6L71.4,92.6L71.4,92.6 M67.1,87L67.1,87l4.3,2.4v0.1L67.1,87 M77.8,90.2
				l-6.4-3.7v2.9v0.1h-0.1v-0.1v-2.9L68.8,85c-1-0.6-1.7-0.1-1.7,1v5.1c0,1.1,0.8,2.4,1.7,3l9,5.2c1,0.6,1.7,0.1,1.7-1v-0.9l-4-2.3
				V98h-0.1v-2.9h0.1h-0.1V95v-3.1h0.1h-0.1v-0.1h0.1l4,2.3v-0.9C79.5,92.1,78.8,90.8,77.8,90.2"/>
			<polyline class="st45" points="79.5,94.1 75.5,91.8 75.5,91.9 79.5,94.2 79.5,94.1 			"/>
			<polyline class="st45" points="71.4,89.4 67.1,86.9 67.1,87 71.4,89.5 71.4,89.4 			"/>
			<polyline class="st45" points="71.4,92.6 67.1,90.1 67.1,90.2 71.4,92.7 71.4,92.6 			"/>
			<polyline class="st45" points="79.5,97.3 75.5,95 75.5,95.1 79.5,97.4 79.5,97.3 			"/>
			<polyline class="st45" points="71.4,92.7 71.4,92.7 71.3,95.6 71.4,95.6 71.4,92.7 			"/>
			<polyline class="st45" points="71.4,89.5 71.4,89.5 71.4,92.6 71.4,92.6 71.4,89.5 			"/>
			<polyline class="st45" points="71.5,86.5 71.4,86.5 71.4,89.4 71.4,89.4 71.5,86.5 			"/>
			<polyline class="st45" points="71.4,89.4 71.4,89.4 71.4,89.5 71.4,89.5 71.4,89.4 			"/>
			<polyline class="st45" points="71.4,92.6 71.4,92.6 71.4,92.7 71.4,92.7 71.4,92.6 			"/>
			<polyline class="st45" points="75.5,95.1 75.4,95.1 75.4,97.9 75.5,98 75.5,95.1 			"/>
			<polyline class="st45" points="75.5,91.9 75.5,91.8 75.4,95 75.5,95 75.5,91.9 			"/>
			<polyline class="st45" points="75.5,91.8 75.5,91.7 75.5,91.8 75.5,91.9 75.5,91.8 			"/>
			<polyline class="st45" points="75.5,95 75.4,95 75.4,95.1 75.5,95.1 75.5,95 			"/>
		</g>
	</g>
</g>
</svg>
